<?xml version="1.0" encoding="utf-8"?>
<!-- Generator: Adobe Illustrator 25.4.1, SVG Export Plug-In . SVG Version: 6.00 Build 0)  -->
<svg version="1.1" id="Capa_1" xmlns="http://www.w3.org/2000/svg" xmlns:xlink="http://www.w3.org/1999/xlink" x="0px" y="0px"
	 viewBox="0 0 512 512" style="enable-background:new 0 0 512 512;" xml:space="preserve">
<style type="text/css">
	.st0{fill:#FFFFFF;}
</style>
<path class="st0" d="M479.3,210.5c-45.6,0-87.9-14.6-122.5-39.4V350c0,89.3-72.7,162-162,162c-34.5,0-66.5-10.9-92.8-29.4
	C60.2,453.3,32.8,404.8,32.8,350c0-89.3,72.7-162,162-162c7.4,0,14.7,0.6,21.8,1.6v20.8v69c-6.9-2.2-14.2-3.4-21.8-3.4
	c-40.8,0-74,33.2-74,74c0,28.4,16.1,53.1,39.7,65.5c10.3,5.4,21.9,8.5,34.3,8.5c39.9,0,72.4-31.7,73.9-71.2L268.8,0h88
	c0,7.6,0.7,15.1,2.1,22.3c6.2,33.5,26.1,62.3,53.7,80.3c19.2,12.5,42.1,19.8,66.7,19.8L479.3,210.5L479.3,210.5z"/>
</svg>
