<?xml version="1.0" standalone="no"?>
<!DOCTYPE svg PUBLIC "-//W3C//DTD SVG 1.1//EN" "http://www.w3.org/Graphics/SVG/1.1/DTD/svg11.dtd" >
<svg xmlns="http://www.w3.org/2000/svg" xmlns:xlink="http://www.w3.org/1999/xlink" version="1.1">
<metadata>
Created by FontForge 20170731 at Tue Nov 28 03:01:41 2023
 By Aleksey,,,
Copyright (c) 2006 The Hoefler Type Foundry, Inc., dba Hoefler &#38; Frere-Jones. All Rights Reserved.
</metadata>
<defs>
<font id="Verlag-Bold" horiz-adv-x="940" >
  <font-face 
    font-family="Verlag Bold"
    font-weight="400"
    font-stretch="normal"
    units-per-em="2048"
    panose-1="0 0 0 0 0 0 0 0 0 0"
    ascent="1638"
    descent="-410"
    x-height="874"
    cap-height="1501"
    bbox="-123 -662 2441 2349"
    underline-thickness="102"
    underline-position="-307"
    unicode-range="U+0020-2212"
  />
<missing-glyph horiz-adv-x="1024" 
 />
    <glyph glyph-name="f_f_i" unicode="ffi" horiz-adv-x="1845" 
d="M729 1497l-27 -197q-37 9 -86 9q-94 0 -135 -49t-41 -173v-213h246v-188h-246v-686h-231v686h-162v31l162 166v204q0 205 95 317t282 112q72 0 143 -19zM1391 1497l-25 -197q-40 9 -88 9q-92 0 -134 -49t-42 -173v-213h248v-188h-248v-686h-232v686h-161v31l161 166v204
q0 205 95 317t282 112q73 0 144 -19zM1741 1178q0 -57 -40 -97.5t-97 -40.5t-96.5 40.5t-39.5 97.5t39.5 97t96.5 40t97 -40t40 -97zM1720 0h-233v874h233v-874z" />
    <glyph glyph-name="f_f_l" unicode="ffl" horiz-adv-x="1839" 
d="M729 1497l-27 -197q-37 9 -86 9q-94 0 -135 -49t-41 -173v-213h246v-188h-246v-686h-231v686h-162v31l162 166v204q0 205 95 317t282 112q72 0 143 -19zM1391 1497l-25 -197q-40 9 -88 9q-92 0 -134 -49t-42 -173v-213h248v-188h-248v-686h-232v686h-161v31l161 166v204
q0 205 95 317t282 112q73 0 144 -19zM1714 0h-233v1501h233v-1501z" />
    <glyph glyph-name="f_f" unicode="ff" horiz-adv-x="1355" 
d="M729 1497l-27 -197q-37 9 -86 9q-94 0 -135 -49t-41 -173v-213h246v-188h-246v-686h-231v686h-162v31l162 166v204q0 205 95 317t282 112q72 0 143 -19zM1391 1497l-25 -197q-40 9 -88 9q-92 0 -134 -49t-42 -173v-213h248v-188h-248v-686h-232v686h-161v31l161 166v204
q0 205 95 317t282 112q73 0 144 -19z" />
    <glyph glyph-name="fi" unicode="fi" horiz-adv-x="1183" 
d="M1077 1178q0 -57 -39 -97.5t-96 -40.5t-97 40.5t-40 97.5t40 97t97 40t96 -40t39 -97zM729 1497l-27 -197q-37 9 -86 9q-94 0 -135 -49t-41 -173v-213h246v-188h-246v-686h-231v686h-162v31l162 166v204q0 205 95 317t282 112q72 0 143 -19zM1057 0h-234v874h234v-874z
" />
    <glyph glyph-name="fl" unicode="fl" horiz-adv-x="1175" 
d="M729 1497l-27 -197q-37 9 -86 9q-94 0 -135 -49t-41 -173v-213h246v-188h-246v-686h-231v686h-162v31l162 166v204q0 205 95 317t282 112q72 0 143 -19zM1051 0h-232v1501h232v-1501z" />
    <glyph glyph-name=".notdef" horiz-adv-x="1024" 
 />
    <glyph glyph-name=".null" horiz-adv-x="0" 
 />
    <glyph glyph-name="nonmarkingreturn" horiz-adv-x="682" 
 />
    <glyph glyph-name="space" unicode=" " horiz-adv-x="440" 
 />
    <glyph glyph-name="exclam" unicode="!" horiz-adv-x="536" 
d="M397 1501l-49 -1081h-160l-49 1081h258zM401 119q0 -57 -38.5 -96t-94.5 -39t-94.5 39t-38.5 96q0 55 38.5 94t94.5 39t94.5 -39t38.5 -94z" />
    <glyph glyph-name="quotedbl" unicode="&#x22;" horiz-adv-x="872" 
d="M479 1307l-303 -402l-100 68l225 450zM836 1286l-304 -403l-102 67l227 453z" />
    <glyph glyph-name="numbersign" unicode="#" horiz-adv-x="1255" 
d="M1204 901l-37 -168h-217l-61 -270h219l-37 -168h-219l-64 -295h-182l66 295h-219l-64 -295h-184l65 295h-219l39 168h217l60 270h-217l36 168h215l66 293h182l-63 -293h217l65 293h183l-66 -293h219zM766 733h-217l-60 -270h218z" />
    <glyph glyph-name="dollar" unicode="$" horiz-adv-x="983" 
d="M506 1362l137 -6l-14 -148q137 -19 245 -88l-75 -190q-88 59 -187 82l-28 -320q167 -65 239 -142.5t72 -205.5q0 -153 -106 -254.5t-271 -112.5l-12 -145l-137 6l12 146q-162 21 -313 122l86 195q126 -92 243 -117l31 344q-160 62 -231.5 138.5t-71.5 197.5
q0 139 101.5 238.5t267.5 111.5zM676 326q0 50 -27 84.5t-88 64.5l-26 -299q68 9 104.5 47.5t36.5 102.5zM342 885q0 -43 27 -76t84 -61l22 272q-65 -9 -99 -44.5t-34 -90.5z" />
    <glyph glyph-name="percent" unicode="%" horiz-adv-x="1445" 
d="M647 907q0 -129 -73.5 -219t-200.5 -90q-125 0 -198 90t-73 219t74 218t201 89t198.5 -88.5t71.5 -218.5zM1262 1141l-971 -1178l-107 90l971 1176zM1343 289q0 -129 -73.5 -219t-200.5 -90q-126 0 -197 89.5t-71 219.5q0 128 73 217.5t199 89.5t198 -89t72 -218z
M483 907q0 78 -28 125t-80 47q-51 0 -80 -47.5t-29 -124.5t29 -124.5t80 -47.5q52 0 80 47t28 125zM1180 289q0 78 -28.5 125t-80.5 47t-80 -47t-28 -125t28 -126t80 -48t80.5 48t28.5 126z" />
    <glyph glyph-name="ampersand" unicode="&#x26;" horiz-adv-x="1294" 
d="M1073 600l144 -119q-101 -128 -197 -227q84 -74 168 -141l-135 -144q-12 10 -81.5 66.5t-101.5 85.5q-182 -141 -368 -141q-167 0 -283.5 91t-116.5 248q0 106 74.5 196t200.5 147q-82 130 -82 233q0 134 102.5 232t241.5 98q147 0 237.5 -88t90.5 -201q0 -104 -73 -193
t-224 -145q88 -106 213 -219q89 87 190 221zM766 920q0 55 -36 92t-91 37q-54 0 -91.5 -43.5t-37.5 -106.5q0 -81 65 -176q99 39 145 90.5t46 106.5zM731 250q-154 145 -256 270q-64 -27 -102.5 -77t-38.5 -111q0 -73 51.5 -118.5t134.5 -45.5q94 0 211 82z" />
    <glyph glyph-name="quotesingle" unicode="'" horiz-adv-x="516" 
d="M479 1307l-303 -402l-100 68l225 450z" />
    <glyph glyph-name="parenleft" unicode="(" horiz-adv-x="741" 
d="M758 -336l-107 -153q-264 167 -404.5 439t-140.5 578q0 308 140.5 580t404.5 438l107 -151q-223 -144 -336 -369.5t-113 -497.5q0 -270 113 -495t336 -369z" />
    <glyph glyph-name="parenright" unicode=")" horiz-adv-x="741" 
d="M635 528q0 -201 -59 -388t-183.5 -352t-302.5 -277l-106 153q223 144 336.5 369t113.5 495q0 271 -113.5 497t-336.5 370l106 151q178 -111 302.5 -276t183.5 -352.5t59 -389.5z" />
    <glyph glyph-name="asterisk" unicode="*" horiz-adv-x="808" 
d="M727 1210l-221 -55l147 -172l-129 -92l-121 190l-120 -190l-129 92l147 172l-221 55l49 150l211 -84l-16 223h159l-16 -223l211 84z" />
    <glyph glyph-name="plus" unicode="+" 
d="M817 502h-254v-269h-186v269h-254v178h254v268h186v-268h254v-178z" />
    <glyph glyph-name="comma" unicode="," horiz-adv-x="505" 
d="M389 88q0 -96 -68 -197.5t-178 -156.5l-26 39q109 96 141 213q-61 4 -98 42t-37 93q0 53 37.5 90t89.5 37q65 0 102 -46t37 -114z" />
    <glyph glyph-name="hyphen" unicode="-" horiz-adv-x="706" 
d="M608 412h-508v178h508v-178z" />
    <glyph glyph-name="period" unicode="." horiz-adv-x="505" 
d="M121 119q0 55 38.5 94t94.5 39t94.5 -39t38.5 -94q0 -57 -38.5 -96t-94.5 -39t-94.5 39t-38.5 96z" />
    <glyph glyph-name="slash" unicode="/" horiz-adv-x="729" 
d="M729 1501l-487 -1943h-185l490 1943h182z" />
    <glyph glyph-name="zero" unicode="0" horiz-adv-x="1150" 
d="M1065 598q0 -125 -32 -236t-92 -196.5t-155 -135.5t-213 -50q-117 0 -210.5 50t-152 135.5t-89.5 196t-31 236.5t32 236.5t92.5 195.5t155.5 134.5t212 49.5t210.5 -49.5t152 -134.5t89.5 -195.5t31 -236.5zM825 598q0 191 -63 307.5t-184 116.5q-120 0 -184 -117
t-64 -307t64 -307t184 -117q121 0 184 116.5t63 307.5z" />
    <glyph glyph-name="one" unicode="1" horiz-adv-x="770" 
d="M565 0h-231v932l-207 -80l-74 197l451 172h61v-1221z" />
    <glyph glyph-name="two" unicode="2" horiz-adv-x="950" 
d="M854 0h-795l-4 96q274 262 396 414q77 93 112 163t35 140q0 89 -53 141t-150 52q-117 0 -235 -78l-78 180q156 106 338 106q188 0 299.5 -103t111.5 -259q0 -91 -38.5 -181.5t-120.5 -197.5q-106 -132 -252 -272h434v-201z" />
    <glyph glyph-name="three" unicode="3" horiz-adv-x="931" 
d="M848 1083l-359 -385q179 -19 266 -108.5t87 -227.5q0 -75 -31.5 -144.5t-88 -122t-141 -84t-184.5 -31.5q-158 0 -325 55l53 192q134 -45 256 -45q104 0 165.5 46t61.5 130q0 80 -66.5 127t-193.5 47q-89 0 -145 -12l-35 80l356 393h-434v201h754z" />
    <glyph glyph-name="four" unicode="4" horiz-adv-x="1021" 
d="M977 301h-178v-305h-221v305h-533v123l639 793h115v-728h178v-188zM578 489v312l-250 -312h250z" />
    <glyph glyph-name="five" unicode="5" horiz-adv-x="993" 
d="M901 387q0 -174 -126.5 -290.5t-336.5 -116.5q-162 0 -319 55l43 196q132 -51 258 -51q121 0 187.5 55t66.5 140q0 86 -66 134t-196 48q-126 0 -226 -25l-18 23v639h670v-201h-453v-243q62 4 94 4q209 0 315.5 -101t106.5 -266z" />
    <glyph glyph-name="six" unicode="6" horiz-adv-x="1030" 
d="M938 395q0 -104 -48 -197.5t-146.5 -155.5t-227.5 -62q-191 0 -308.5 122.5t-117.5 309.5q0 506 672 839l96 -180q-362 -169 -485 -371q83 68 202 68q166 0 264.5 -107.5t98.5 -265.5zM713 383q0 98 -52 158.5t-139 60.5q-97 0 -151 -57t-54 -160q0 -95 56 -158t143 -63
q92 0 144.5 63.5t52.5 155.5z" />
    <glyph glyph-name="seven" unicode="7" horiz-adv-x="937" 
d="M915 1194l-528 -1194h-233l436 987h-504v207h829z" />
    <glyph glyph-name="eight" unicode="8" horiz-adv-x="1044" 
d="M932 322q0 -142 -114 -242t-296 -100t-295.5 99.5t-113.5 242.5q0 96 49 170.5t145 117.5q-170 89 -170 269q0 142 107.5 238.5t277.5 96.5t276.5 -96.5t106.5 -238.5q0 -180 -168 -269q97 -43 146 -117.5t49 -170.5zM690 854q0 72 -47 120t-121 48t-121 -48t-47 -120
q0 -74 46.5 -121t121.5 -47t121.5 47t46.5 121zM698 348q0 77 -48.5 125.5t-127.5 48.5t-127.5 -48.5t-48.5 -125.5q0 -76 49 -126t127 -50t127 50t49 126z" />
    <glyph glyph-name="nine" unicode="9" horiz-adv-x="1019" 
d="M942 776q0 -111 -36 -216.5t-113.5 -212.5t-210 -209.5t-314.5 -192.5l-96 174q336 170 475 366q-77 -51 -178 -51q-167 0 -268 106.5t-101 264.5q0 79 29 152t81.5 130.5t133 92t176.5 34.5q193 0 307.5 -122t114.5 -316zM713 817q0 94 -54 154.5t-141 60.5
q-90 0 -141 -61t-51 -152q0 -98 50 -157.5t138 -59.5q96 0 147.5 56.5t51.5 158.5z" />
    <glyph glyph-name="colon" unicode=":" horiz-adv-x="505" 
d="M121 119q0 55 38.5 94t94.5 39t94.5 -39t38.5 -94q0 -57 -38.5 -96t-94.5 -39t-94.5 39t-38.5 96zM121 657q0 54 39 94t94 40t94 -40t39 -94q0 -57 -38.5 -96t-94.5 -39t-94.5 39t-38.5 96z" />
    <glyph glyph-name="semicolon" unicode=";" horiz-adv-x="505" 
d="M389 88q0 -96 -68 -197.5t-178 -156.5l-26 39q109 96 141 213q-61 4 -98 42t-37 93q0 53 37.5 90t89.5 37q65 0 102 -46t37 -114zM121 657q0 54 39 94t94 40t94 -40t39 -94q0 -57 -38.5 -96t-94.5 -39t-94.5 39t-38.5 96z" />
    <glyph glyph-name="less" unicode="&#x3c;" horiz-adv-x="806" 
d="M727 231l-133 -139l-516 498l516 500l133 -142l-379 -360z" />
    <glyph glyph-name="equal" unicode="=" horiz-adv-x="882" 
d="M760 668h-637v174h637v-174zM760 340h-637v172h637v-172z" />
    <glyph glyph-name="greater" unicode="&#x3e;" horiz-adv-x="806" 
d="M729 592l-514 -500l-135 144l379 358l-379 358l135 138z" />
    <glyph glyph-name="question" unicode="?" horiz-adv-x="806" 
d="M772 1161q0 -61 -20.5 -115t-54 -94.5t-73.5 -77.5t-79.5 -72t-73 -70t-54 -79t-20.5 -92v-117h-207v148q0 77 33 144.5t80 115.5t94 92t80 93t33 100q0 80 -53.5 120.5t-153.5 40.5q-105 0 -211 -41l-45 205q154 54 299 54q206 0 316 -100t110 -255zM426 119
q0 -57 -39 -96t-96 -39q-56 0 -94.5 39t-38.5 96q0 55 39 94t94 39q57 0 96 -38.5t39 -94.5z" />
    <glyph glyph-name="at" unicode="@" horiz-adv-x="1406" 
d="M1311 645q0 -97 -34.5 -177t-102.5 -130q-58 -43 -140 -43q-55 0 -101.5 25.5t-70.5 74.5q-84 -90 -205 -90q-81 0 -134.5 45.5t-53.5 124.5q0 72 53.5 118t141.5 46q75 0 139 -31v19q0 59 -31 85.5t-94 26.5q-56 0 -131 -20l-17 115q86 28 175 28q128 0 185.5 -59.5
t57.5 -181.5v-132q0 -49 27 -72.5t65 -23.5q42 0 72 23q37 28 58.5 86t21.5 129q0 63 -16 126t-53.5 125.5t-92 110.5t-137.5 77.5t-184 29.5q-129 0 -240 -68.5t-176.5 -185t-65.5 -252.5q0 -104 37 -196t104.5 -161.5t172 -110t231.5 -40.5q108 0 244 47l28 -108
q-166 -50 -278 -50q-149 0 -275 49t-210.5 133.5t-131.5 197t-47 239.5q0 166 82.5 308t222.5 225t302 83q144 0 262 -52t190.5 -135t111 -181t38.5 -197zM803 451v63q-44 33 -96 33q-38 0 -63.5 -19.5t-25.5 -50.5q0 -35 23.5 -54.5t65.5 -19.5q58 0 96 48z" />
    <glyph glyph-name="A" unicode="A" horiz-adv-x="1406" 
d="M1413 0h-270l-146 344h-594l-145 -344h-264l692 1522h37zM913 547l-213 502l-213 -502h426z" />
    <glyph glyph-name="B" unicode="B" horiz-adv-x="1261" 
d="M1180 418q0 -85 -39.5 -162t-114 -137.5t-193 -96.5t-264.5 -36q-179 0 -405 28v1471q194 28 385 28q143 0 258 -33t186 -88.5t108.5 -125t37.5 -146.5q0 -122 -62 -206.5t-200 -135.5q303 -84 303 -360zM874 1077q0 97 -71.5 156t-208.5 59q-89 0 -178 -14v-416
q56 -6 151 -6q155 0 231 60.5t76 160.5zM905 444q0 101 -87 165.5t-247 64.5q-102 0 -155 -6v-451q85 -10 182 -10q150 0 228.5 64t78.5 173z" />
    <glyph glyph-name="C" unicode="C" horiz-adv-x="1472" 
d="M1411 117q-99 -64 -227.5 -103t-261.5 -39q-234 0 -419 100.5t-287.5 277t-102.5 397.5q0 164 60.5 308t167 247t257 162t324.5 59q260 0 483 -137l-88 -218q-201 115 -399 115q-245 0 -388 -147.5t-143 -388.5q0 -239 146 -387t391 -148q99 0 208 32t201 87z" />
    <glyph glyph-name="D" unicode="D" horiz-adv-x="1581" 
d="M1468 764q0 -128 -33 -242.5t-103 -212.5t-171.5 -169t-246 -111.5t-318.5 -40.5q-171 0 -432 24v1475q218 24 418 24q174 0 319.5 -38.5t249.5 -107.5t176 -163t106.5 -204.5t34.5 -233.5zM1194 764q0 239 -151 380.5t-431 141.5q-112 0 -192 -12v-1047q76 -12 215 -12
q141 0 249 41t175 115t101 173t34 220z" />
    <glyph glyph-name="E" unicode="E" horiz-adv-x="1216" 
d="M1079 0h-915v1501h915v-233h-659v-394h596v-225h-596v-416h659v-233z" />
    <glyph glyph-name="F" unicode="F" horiz-adv-x="1136" 
d="M1079 1268h-659v-439h579v-227h-579v-602h-256v1501h915v-233z" />
    <glyph glyph-name="G" unicode="G" horiz-adv-x="1587" 
d="M872 795h596v-656q-252 -164 -559 -164q-160 0 -305 56.5t-253.5 156.5t-173 246.5t-64.5 315.5q0 171 65 317.5t174.5 246t254 156t302.5 56.5q156 0 281.5 -39.5t251.5 -116.5l-117 -205q-194 125 -403 125q-166 0 -289 -73t-184.5 -194.5t-61.5 -272.5q0 -156 71 -282
t193 -195.5t269 -69.5q175 0 303 71v295h-351v226z" />
    <glyph glyph-name="H" unicode="H" horiz-adv-x="1529" 
d="M1366 0h-256v645h-690v-645h-256v1501h256v-627h690v627h256v-1501z" />
    <glyph glyph-name="I" unicode="I" horiz-adv-x="604" 
d="M430 0h-256v1501h256v-1501z" />
    <glyph glyph-name="J" unicode="J" horiz-adv-x="1030" 
d="M877 1501v-1018q0 -236 -119 -372t-363 -136q-204 0 -366 107l96 209q55 -37 126 -59.5t140 -22.5q119 0 174.5 71.5t55.5 219.5v1001h256z" />
    <glyph glyph-name="K" unicode="K" horiz-adv-x="1376" 
d="M1352 0h-318l-614 721v-721h-256v1501h256v-676l590 676h309l-655 -721z" />
    <glyph glyph-name="L" unicode="L" horiz-adv-x="1116" 
d="M1079 0h-915v1501h256v-1268h659v-233z" />
    <glyph glyph-name="M" unicode="M" horiz-adv-x="1808" 
d="M1665 0h-252l-20 899l-473 -717h-31l-477 719l-17 -901h-252l64 1520l39 4l665 -996l650 996l41 -4z" />
    <glyph glyph-name="N" unicode="N" horiz-adv-x="1552" 
d="M1389 -23l-29 -6l-940 992v-963h-256v1522l41 8l928 -977v948h256v-1524z" />
    <glyph glyph-name="O" unicode="O" horiz-adv-x="1742" 
d="M1630 750q0 -219 -100.5 -396.5t-276 -278t-389.5 -100.5q-160 0 -300 59t-239 161.5t-155.5 246.5t-56.5 308t59 308.5t161 247t244 161.5t302 59q214 0 386 -100.5t268.5 -278t96.5 -397.5zM1356 750q0 236 -136 391t-348 155q-141 0 -252 -71t-172 -195.5t-61 -279.5
q0 -236 136 -391.5t349 -155.5q212 0 348 156t136 391z" />
    <glyph glyph-name="P" unicode="P" horiz-adv-x="1226" 
d="M1167 1006q0 -234 -158.5 -378.5t-439.5 -144.5q-2 0 -149 6v-489h-256v1487q200 24 381 24q151 0 270.5 -39t195.5 -108t116 -160t40 -198zM901 997q0 118 -82 198.5t-231 80.5q-88 0 -168 -12v-549q102 -8 143 -8q167 0 252.5 78.5t85.5 211.5z" />
    <glyph glyph-name="Q" unicode="Q" horiz-adv-x="1742" 
d="M1657 127l-158 -182q-143 133 -190 174q-203 -144 -445 -144q-160 0 -300 59t-239 161.5t-155.5 246.5t-56.5 308t59 308.5t161 247t244 161.5t302 59q215 0 387 -100.5t268 -278t96 -397.5q0 -263 -153 -465zM1356 750q0 236 -136.5 391t-347.5 155q-212 0 -347.5 -155
t-135.5 -391q0 -235 135.5 -391t347.5 -156q139 0 254 78l-247 217l157 180q232 -209 244 -221q76 136 76 293z" />
    <glyph glyph-name="R" unicode="R" horiz-adv-x="1296" 
d="M1276 0h-297l-328 541q-27 -2 -80 -2q-51 0 -149 4v-543h-256v1487q204 24 395 24q156 0 275.5 -36t192.5 -101t110 -149.5t37 -186.5q0 -146 -76.5 -259t-216.5 -175zM905 1026q0 116 -82.5 186t-228.5 70q-111 0 -172 -12v-512q63 -8 147 -8q165 0 250.5 72.5
t85.5 203.5z" />
    <glyph glyph-name="S" unicode="S" horiz-adv-x="1099" 
d="M1018 424q0 -91 -34.5 -172.5t-97 -143t-157 -97.5t-207.5 -36q-123 0 -245.5 40t-225.5 108l88 229q90 -65 192.5 -102t198.5 -37q112 0 170 56.5t58 140.5q0 56 -20.5 95t-83 82.5t-179.5 92.5q-191 81 -273.5 184t-82.5 242q0 82 33.5 157.5t95 134t156 93.5t208.5 35
q104 0 205.5 -31t171.5 -78l-82 -225q-65 45 -147 75.5t-154 30.5q-113 0 -172 -53t-59 -133q0 -73 58.5 -126t201.5 -116q218 -94 300.5 -194t82.5 -252z" />
    <glyph glyph-name="T" unicode="T" horiz-adv-x="1310" 
d="M1260 1268h-476v-1268h-256v1268h-477v233h1209v-233z" />
    <glyph glyph-name="U" unicode="U" horiz-adv-x="1492" 
d="M1348 575q0 -284 -162.5 -442t-442.5 -158q-283 0 -439.5 155t-156.5 445v926h256v-907q0 -191 90 -288t255 -97q164 0 254 98t90 287v907h256v-926z" />
    <glyph glyph-name="V" unicode="V" horiz-adv-x="1409" 
d="M1413 1501l-692 -1521h-33l-694 1521h293l422 -999l419 999h285z" />
    <glyph glyph-name="W" unicode="W" horiz-adv-x="1984" 
d="M1974 1501l-475 -1526l-41 -4l-467 1045l-461 -1045l-38 4l-482 1526h283l270 -946l418 958h29l420 -952l266 940h278z" />
    <glyph glyph-name="X" unicode="X" horiz-adv-x="1439" 
d="M1401 0h-307l-375 563l-377 -563h-301l524 741l-524 760h307l375 -563l379 563h299l-524 -739z" />
    <glyph glyph-name="Y" unicode="Y" horiz-adv-x="1374" 
d="M1343 1501l-528 -870v-631h-256v633l-528 868h293l368 -635l365 635h286z" />
    <glyph glyph-name="Z" unicode="Z" horiz-adv-x="1331" 
d="M1270 1470l-797 -1237h778v-233h-1179l-11 31l797 1237h-743v233h1145z" />
    <glyph glyph-name="bracketleft" unicode="[" horiz-adv-x="659" 
d="M614 -442h-452v1943h452v-178h-258v-1589h258v-176z" />
    <glyph glyph-name="backslash" unicode="\" horiz-adv-x="729" 
d="M672 -442h-185l-487 1943h182z" />
    <glyph glyph-name="bracketright" unicode="]" horiz-adv-x="659" 
d="M500 -442h-453v176h256v1589h-256v178h453v-1943z" />
    <glyph glyph-name="asciicircum" unicode="^" horiz-adv-x="962" 
d="M834 1006h-220l-133 172l-131 -172h-207l303 362h93z" />
    <glyph glyph-name="underscore" unicode="_" horiz-adv-x="1064" 
d="M1065 0h-1065v139h1065v-139z" />
    <glyph glyph-name="grave" unicode="`" horiz-adv-x="962" 
d="M754 1090l-68 -109l-418 186l109 199z" />
    <glyph glyph-name="a" unicode="a" 
d="M844 0h-221v84q-105 -100 -254 -100q-132 0 -220 74t-88 202q0 119 87.5 195.5t230.5 76.5q73 0 125 -14t110 -41v37q0 100 -52.5 147.5t-158.5 47.5q-91 0 -217 -37l-26 174q144 45 280 45q204 0 304 -96t100 -289v-506zM614 219v109q-48 32 -86.5 45.5t-93.5 13.5
q-67 0 -110 -34t-43 -91q0 -60 41 -93.5t116 -33.5q108 0 176 84z" />
    <glyph glyph-name="b" unicode="b" horiz-adv-x="1093" 
d="M1014 449q0 -93 -33.5 -179t-89.5 -148.5t-133 -100t-160 -37.5q-153 0 -258 94v-78h-223v1501h231v-704q105 94 264 94q173 0 287.5 -125t114.5 -317zM782 444q0 118 -58 190.5t-167 72.5q-123 0 -209 -89v-350q36 -45 88 -71.5t109 -26.5q109 0 173 75t64 199z" />
    <glyph glyph-name="c" unicode="c" horiz-adv-x="884" 
d="M860 72q-140 -88 -293 -88q-225 0 -359 129t-134 321q0 93 34 176t96 145.5t156 99t207 36.5q153 0 293 -88l-76 -162q-112 61 -221 61q-114 0 -187 -69.5t-73 -196.5q0 -119 79 -190.5t193 -71.5t220 62z" />
    <glyph glyph-name="d" unicode="d" horiz-adv-x="1087" 
d="M977 0h-223v82q-104 -98 -262 -98q-183 0 -297.5 126.5t-114.5 323.5q0 188 126.5 322.5t297.5 134.5q144 0 241 -78v688h232v-1501zM745 268v336q-35 45 -88.5 74t-115.5 29q-101 0 -165.5 -72t-64.5 -197q0 -122 61.5 -195t172.5 -73q121 0 200 98z" />
    <glyph glyph-name="e" unicode="e" horiz-adv-x="974" 
d="M915 471q0 -73 -6 -104h-606q14 -97 78.5 -149t193.5 -52q104 0 254 47l29 -180q-179 -49 -305 -49q-120 0 -213 35t-150 97t-86.5 142.5t-29.5 175.5q0 89 29.5 171t84 146t140 102t188.5 38q189 0 294 -118.5t105 -301.5zM307 512h402q-8 91 -59.5 144t-137.5 53
t-139.5 -51.5t-65.5 -145.5z" />
    <glyph glyph-name="f" unicode="f" horiz-adv-x="694" 
d="M729 1497l-27 -197q-37 9 -86 9q-94 0 -135 -49t-41 -173v-213h246v-188h-246v-686h-231v686h-162v31l162 166v204q0 205 95 317t282 112q72 0 143 -19z" />
    <glyph glyph-name="g" unicode="g" horiz-adv-x="1083" 
d="M977 -45q0 -220 -104 -317t-304 -97q-140 0 -290 43l22 205q118 -41 231 -41q110 0 161.5 48t51.5 155v106q-92 -73 -235 -73q-189 0 -309.5 119.5t-120.5 322.5q0 192 127 328.5t301 136.5q146 0 246 -80v63h223v-919zM745 254v362q-82 89 -196 89q-106 0 -172 -77
t-66 -204q0 -114 64.5 -186t179.5 -72t190 88z" />
    <glyph glyph-name="h" unicode="h" horiz-adv-x="1054" 
d="M954 0h-233v541q0 82 -33.5 119.5t-103.5 37.5q-57 0 -120 -34t-114 -89v-575h-233v1501h231v-768q149 158 318 158q141 0 214.5 -79.5t73.5 -213.5v-598z" />
    <glyph glyph-name="i" unicode="i" horiz-adv-x="485" 
d="M381 1178q0 -57 -40 -97.5t-97 -40.5t-96 40.5t-39 97.5t39 97t96 40t97 -40t40 -97zM360 0h-233v874h233v-874z" />
    <glyph glyph-name="j" unicode="j" horiz-adv-x="485" 
d="M383 1178q0 -57 -40 -97.5t-97 -40.5t-96 40.5t-39 97.5t39 97t96 40t97 -40t40 -97zM362 874v-991q0 -342 -329 -342q-67 0 -150 17l23 192q54 -8 84 -8q72 0 105.5 31.5t33.5 111.5v989h233z" />
    <glyph glyph-name="k" unicode="k" horiz-adv-x="974" 
d="M967 0h-279l-340 414v-414h-231v1501h231v-1001l324 374h278l-387 -411z" />
    <glyph glyph-name="l" unicode="l" horiz-adv-x="473" 
d="M352 0h-231v1501h231v-1501z" />
    <glyph glyph-name="m" unicode="m" horiz-adv-x="1597" 
d="M1497 0h-233v547q0 76 -29.5 112.5t-93.5 36.5q-105 0 -217 -121v-575h-234v541q0 81 -29.5 119t-97.5 38q-108 0 -213 -127v-571h-233v874h225v-145q78 80 154 121t161 41q98 0 155 -43.5t85 -124.5q151 168 334 168q131 0 198.5 -78.5t67.5 -214.5v-598z" />
    <glyph glyph-name="n" unicode="n" horiz-adv-x="1048" 
d="M948 0h-233v541q0 83 -32 120t-101 37q-58 0 -119.5 -33.5t-112.5 -89.5v-575h-233v874h225v-145q159 162 324 162q140 0 211 -79.5t71 -213.5v-598z" />
    <glyph glyph-name="o" unicode="o" horiz-adv-x="1060" 
d="M987 438q0 -192 -125 -323t-330 -131q-138 0 -243.5 62t-160 164.5t-54.5 227.5t54.5 227t160 164t243.5 62q205 0 330 -130.5t125 -322.5zM758 438q0 126 -61.5 200.5t-164.5 74.5q-104 0 -165.5 -74.5t-61.5 -200.5q0 -127 61.5 -201.5t165.5 -74.5q103 0 164.5 74.5
t61.5 201.5z" />
    <glyph glyph-name="p" unicode="p" horiz-adv-x="1093" 
d="M1014 444q0 -192 -123.5 -326t-312.5 -134q-128 0 -230 57v-483h-231v1316h223v-81q115 98 276 98q171 0 284.5 -126.5t113.5 -320.5zM782 442q0 117 -61 191t-162 74q-124 0 -211 -93v-366q34 -39 88.5 -59.5t114.5 -20.5q101 0 166 74t65 200z" />
    <glyph glyph-name="q" unicode="q" horiz-adv-x="1087" 
d="M977 -444h-232v505q-95 -77 -245 -77q-181 0 -300.5 122t-119.5 320q0 128 59.5 235.5t157 168.5t209.5 61q140 0 248 -84v67h223v-1318zM745 264v340q-35 45 -87 74t-113 29q-103 0 -168.5 -76.5t-65.5 -200.5q0 -122 64 -191t180 -69q55 0 106.5 25t83.5 69z" />
    <glyph glyph-name="r" unicode="r" horiz-adv-x="684" 
d="M653 662q-226 23 -303 -87v-575h-233v874h225v-143q62 83 136.5 121.5t174.5 38.5v-229z" />
    <glyph glyph-name="s" unicode="s" horiz-adv-x="786" 
d="M731 262q0 -120 -96 -199t-242 -79q-186 0 -346 114l90 166q59 -46 128 -74t124 -28q125 0 125 90q0 32 -31 56t-77 37.5t-100 35t-100 46.5t-77 73.5t-31 113.5q0 120 93 198.5t241 78.5q145 0 287 -82l-72 -170q-125 76 -225 76q-56 0 -85.5 -23t-29.5 -59
q0 -30 31.5 -52.5t78.5 -36.5t102 -36t102 -49t78.5 -78t31.5 -119z" />
    <glyph glyph-name="t" unicode="t" horiz-adv-x="694" 
d="M657 686h-243v-401q0 -57 25.5 -82t78.5 -25q28 0 76 10l43 -180q-113 -24 -186 -24q-130 0 -199.5 73t-69.5 240v389h-166v31l166 166v141l232 145v-295h243v-188z" />
    <glyph glyph-name="u" unicode="u" horiz-adv-x="1046" 
d="M940 0h-225v135q-68 -68 -152 -109.5t-166 -41.5q-141 0 -214.5 79.5t-73.5 212.5v598h233v-540q0 -156 139 -156q121 0 226 115v581h233v-874z" />
    <glyph glyph-name="v" unicode="v" horiz-adv-x="933" 
d="M944 874l-461 -897h-41l-452 897h260l221 -520l221 520h252z" />
    <glyph glyph-name="w" unicode="w" horiz-adv-x="1300" 
d="M1303 874l-338 -897h-41l-269 533l-270 -533h-41l-340 897h258l146 -491l225 494h41l231 -494l142 491h256z" />
    <glyph glyph-name="x" unicode="x" horiz-adv-x="937" 
d="M913 0h-256l-188 291l-195 -291h-247l313 434l-313 440h256l190 -292l193 292h247l-309 -436z" />
    <glyph glyph-name="y" unicode="y" horiz-adv-x="944" 
d="M948 874l-618 -1316h-232l267 530l-369 786h258l223 -555l219 555h252z" />
    <glyph glyph-name="z" unicode="z" horiz-adv-x="868" 
d="M829 844l-458 -651h448v-193h-774l-10 31l457 651h-418v192h745z" />
    <glyph glyph-name="braceleft" unicode="{" horiz-adv-x="636" 
d="M612 -457q-188 0 -287.5 96t-99.5 277v397q0 69 -27.5 101t-99.5 32h-47v166h47q72 0 99.5 32t27.5 101v396q0 181 99.5 278t287.5 97v-191q-98 0 -143 -46t-45 -159v-360q0 -97 -31 -144.5t-119 -87.5q88 -40 119 -87t31 -144v-358q0 -114 45 -160.5t143 -46.5v-189z
" />
    <glyph glyph-name="bar" unicode="|" horiz-adv-x="546" 
d="M362 -442h-178v1943h178v-1943z" />
    <glyph glyph-name="braceright" unicode="}" horiz-adv-x="636" 
d="M586 446h-47q-72 0 -99.5 -32t-27.5 -101v-397q0 -181 -98.5 -277t-288.5 -96v189q98 0 144 46.5t46 160.5v358q0 98 29.5 144.5t117.5 86.5q-87 40 -117 87.5t-30 144.5v360q0 112 -46 158.5t-144 46.5v191q189 0 288 -97t99 -278v-396q0 -69 27.5 -101t99.5 -32h47
v-166z" />
    <glyph glyph-name="asciitilde" unicode="~" horiz-adv-x="962" 
d="M831 745q-45 -55 -104 -87.5t-115 -32.5q-68 0 -135 39q-62 38 -117 38q-74 0 -139 -77l-82 131q44 56 103 88.5t116 32.5q69 0 136 -39q59 -37 112 -37q71 0 137 78z" />
    <glyph glyph-name="uni00A0" unicode="&#xa0;" horiz-adv-x="460" 
 />
    <glyph glyph-name="exclamdown" unicode="&#xa1;" horiz-adv-x="536" 
d="M135 1384q0 56 39 95t94 39t94 -39t39 -95t-38.5 -94.5t-94.5 -38.5t-94.5 38.5t-38.5 94.5zM141 0l47 1081h162l47 -1081h-256z" />
    <glyph glyph-name="cent" unicode="&#xa2;" horiz-adv-x="894" 
d="M420 -164l12 162q-162 34 -260 152.5t-98 283.5q0 187 123 313.5t311 141.5l12 153l139 -6l-14 -151q115 -19 215 -82l-76 -166q-79 46 -153 59l-45 -524q94 3 207 66l67 -166q-134 -82 -289 -88l-12 -154zM297 436q0 -84 40.5 -147t111.5 -94l43 503q-90 -20 -142.5 -86
t-52.5 -176z" />
    <glyph glyph-name="sterling" unicode="&#xa3;" horiz-adv-x="970" 
d="M936 1128l-78 -200q-110 76 -221 76q-88 0 -132 -57.5t-44 -153.5v-111h246v-190h-246v-287h467v-205h-852v205h153v287h-149v14l149 151v150q0 117 46 208t142 146.5t230 55.5q139 0 289 -89z" />
    <glyph glyph-name="yen" unicode="&#xa5;" horiz-adv-x="1120" 
d="M1069 1194l-313 -508h229v-168h-303v-127h303v-162h-303v-229h-233v229h-312v162h312v127h-312v168h238l-324 508h266l252 -432l242 432h258z" />
    <glyph glyph-name="section" unicode="&#xa7;" horiz-adv-x="974" 
d="M874 598q0 -116 -118 -186q73 -57 73 -158q0 -118 -98 -197.5t-252 -79.5q-192 0 -352 113l88 168q58 -45 133.5 -73.5t136.5 -28.5q125 0 125 86q0 29 -26 50t-68 35.5t-92.5 28.5t-100.5 33t-92 44t-68 68t-26 99q0 121 121 188q-74 60 -74 150q0 119 98.5 199
t247.5 80q77 0 156 -23.5t139 -60.5l-71 -168q-126 75 -232 75q-56 0 -89.5 -24.5t-33.5 -59.5q0 -29 35 -51.5t88 -36.5t114.5 -36t114.5 -48t88 -74t35 -112zM657 575q0 41 -48.5 69.5t-166.5 62.5q-42 -6 -67 -28.5t-25 -53.5q0 -14 5.5 -26t18.5 -22t27 -17.5
t37.5 -16.5t42.5 -15t51 -16t54 -18q71 19 71 81z" />
    <glyph glyph-name="dieresis" unicode="&#xa8;" horiz-adv-x="962" 
d="M797 1141q0 -53 -37.5 -91t-89.5 -38q-54 0 -91.5 38t-37.5 91q0 54 37.5 91.5t91.5 37.5q53 0 90 -37.5t37 -91.5zM424 1141q0 -53 -37.5 -91t-91.5 -38q-53 0 -91 38t-38 91q0 54 38 91.5t91 37.5q54 0 91.5 -37.5t37.5 -91.5z" />
    <glyph glyph-name="copyright" unicode="&#xa9;" horiz-adv-x="1724" 
d="M1622 750q0 -158 -60 -301.5t-162 -247t-242.5 -165t-295.5 -61.5t-295.5 61.5t-242.5 165t-162 247t-60 301.5t60 301.5t162 247.5t242.5 165.5t295.5 61.5t295.5 -61.5t242.5 -165.5t162 -247.5t60 -301.5zM1485 750q0 178 -83.5 329t-227 238.5t-312.5 87.5
q-127 0 -242 -52t-198.5 -139.5t-132.5 -209t-49 -254.5q0 -177 83 -327.5t226.5 -238.5t312.5 -88t312.5 88t227 238.5t83.5 327.5zM1147 434q-116 -72 -248 -72q-182 0 -298 111.5t-116 282.5q0 170 116 281.5t298 111.5q127 0 242 -68l-49 -129q-97 56 -193 56
q-116 0 -182 -68.5t-66 -183.5q0 -114 67 -182t183 -68q103 0 199 57z" />
    <glyph glyph-name="ordfeminine" unicode="&#xaa;" horiz-adv-x="757" 
d="M682 840h-193v63q-73 -76 -188 -76q-103 0 -170.5 56.5t-67.5 154.5q0 91 67 150t179 59q92 0 176 -41v25q0 143 -159 143q-62 0 -164 -26l-21 143q107 35 217 35q324 0 324 -301v-385zM485 1010v80q-55 40 -125 40q-47 0 -77.5 -23.5t-30.5 -64.5q0 -43 28.5 -66.5
t79.5 -23.5q74 0 125 58z" />
    <glyph glyph-name="guillemotleft" unicode="&#xab;" horiz-adv-x="966" 
d="M885 18h-217l-215 336l215 334h217l-223 -334zM530 18h-217l-215 336l215 334h217l-223 -334z" />
    <glyph glyph-name="registered" unicode="&#xae;" horiz-adv-x="790" 
d="M276 997v349q44 6 103 6q75 0 113 -31.5t38 -83.5q0 -33 -16.5 -61t-46.5 -41l86 -138h-88l-68 119q-8 -2 -18 -2q-15 0 -27 2v-119h-76zM352 1282v-102q12 -2 29 -2q68 0 68 57q0 49 -64 49q-23 0 -33 -2zM395 874q118 0 200.5 87t82.5 208q0 124 -82.5 211.5
t-200.5 87.5q-117 0 -199.5 -88t-82.5 -211q0 -122 82.5 -208.5t199.5 -86.5zM395 815q-145 0 -246.5 104t-101.5 250q0 149 101.5 254t246.5 105q146 0 248 -105t102 -254q0 -145 -102 -249.5t-248 -104.5z" />
    <glyph glyph-name="macron" unicode="&#xaf;" horiz-adv-x="962" 
d="M776 1032h-588v176h588v-176z" />
    <glyph glyph-name="degree" unicode="&#xb0;" horiz-adv-x="839" 
d="M649 1190q0 -93 -64.5 -156t-164.5 -63t-165 63t-65 156q0 94 65 158.5t165 64.5t164.5 -64.5t64.5 -158.5zM516 1192q0 46 -27 77t-69 31q-41 0 -67.5 -30.5t-26.5 -77.5q0 -49 26 -79t68 -30q43 0 69.5 30t26.5 79z" />
    <glyph glyph-name="acute" unicode="&#xb4;" horiz-adv-x="962" 
d="M717 1163l-414 -182l-59 113l372 274z" />
    <glyph glyph-name="paragraph" unicode="&#xb6;" horiz-adv-x="1280" 
d="M1126 0h-176v995q-84 9 -133 11v-1006h-176v307q-140 -7 -258 39.5t-192 146t-74 234.5q0 215 182 352.5t483 137.5q139 0 344 -25v-1192zM641 514v485q-131 -18 -200.5 -86.5t-69.5 -171.5q0 -113 76 -171.5t194 -55.5z" />
    <glyph glyph-name="periodcentered" unicode="&#xb7;" horiz-adv-x="587" 
d="M162 750q0 56 39 94.5t94 38.5t94 -38.5t39 -94.5t-39 -95t-94 -39t-94 39t-39 95z" />
    <glyph glyph-name="cedilla" unicode="&#xb8;" horiz-adv-x="962" 
d="M731 -311q0 -89 -60.5 -149t-172.5 -60q-114 0 -246 78l57 125q109 -68 195 -68q35 0 54.5 18t19.5 52q0 37 -46.5 63t-150.5 29l-8 18l63 240l103 -27l-27 -112q219 -52 219 -207z" />
    <glyph glyph-name="ordmasculine" unicode="&#xba;" horiz-adv-x="794" 
d="M754 1178q0 -147 -98 -249t-259 -102t-258.5 101.5t-97.5 249.5q0 147 97.5 247.5t258.5 100.5t259 -100.5t98 -247.5zM557 1178q0 92 -43 144t-117 52q-75 0 -117 -52t-42 -144q0 -93 42 -146t117 -53q74 0 117 53.5t43 145.5z" />
    <glyph glyph-name="guillemotright" unicode="&#xbb;" horiz-adv-x="966" 
d="M870 354l-215 -336h-219l226 336l-226 334h219zM516 354l-215 -336h-219l225 336l-225 334h219z" />
    <glyph glyph-name="questiondown" unicode="&#xbf;" horiz-adv-x="806" 
d="M381 1384q0 56 39 95t96 39q55 0 94 -39t39 -95t-38.5 -94.5t-94.5 -38.5q-57 0 -96 38.5t-39 94.5zM35 340q0 61 20.5 115t54 94.5t73.5 78t79.5 72.5t73 70t54 78.5t20.5 91.5v117h206v-148q0 -65 -23.5 -124t-59 -99.5t-77 -82.5t-77 -75.5t-59 -76t-23.5 -86.5
q0 -79 54 -120.5t153 -41.5q100 0 211 43l45 -205q-157 -55 -299 -55q-206 0 -316 100.5t-110 253.5z" />
    <glyph glyph-name="Agrave" unicode="&#xc0;" horiz-adv-x="1406" 
d="M1413 0h-270l-146 344h-594l-145 -344h-264l692 1522h37zM913 547l-213 502l-213 -502h426zM817 1729l-67 -109l-418 186l108 199z" />
    <glyph glyph-name="Aacute" unicode="&#xc1;" horiz-adv-x="1406" 
d="M1413 0h-270l-146 344h-594l-145 -344h-264l692 1522h37zM913 547l-213 502l-213 -502h426zM1053 1802l-414 -182l-59 113l372 274z" />
    <glyph glyph-name="Acircumflex" unicode="&#xc2;" horiz-adv-x="1406" 
d="M1413 0h-270l-146 344h-594l-145 -344h-264l692 1522h37zM913 547l-213 502l-213 -502h426zM1049 1649h-220l-133 172l-131 -172h-207l304 362h92z" />
    <glyph glyph-name="Atilde" unicode="&#xc3;" horiz-adv-x="1406" 
d="M1413 0h-270l-146 344h-594l-145 -344h-264l692 1522h37zM913 547l-213 502l-213 -502h426zM1057 1774q-45 -55 -104 -88t-115 -33q-69 0 -136 39q-63 39 -116 39q-74 0 -140 -78l-81 131q44 56 103 88.5t116 32.5q68 0 135 -39q59 -37 112 -37q72 0 138 78z" />
    <glyph glyph-name="Adieresis" unicode="&#xc4;" horiz-adv-x="1406" 
d="M1413 0h-270l-146 344h-594l-145 -344h-264l692 1522h37zM913 547l-213 502l-213 -502h426zM1018 1780q0 -53 -37.5 -91t-89.5 -38q-54 0 -91.5 38t-37.5 91q0 54 37.5 91.5t91.5 37.5q53 0 90 -37.5t37 -91.5zM645 1780q0 -53 -37.5 -91t-91.5 -38q-52 0 -90.5 38.5
t-38.5 90.5q0 54 38 91.5t91 37.5q54 0 91.5 -37.5t37.5 -91.5z" />
    <glyph glyph-name="Aring" unicode="&#xc5;" horiz-adv-x="1406" 
d="M944 1661q0 -85 -49.5 -147.5t-134.5 -79.5l653 -1434h-270l-146 344h-594l-145 -344h-264l651 1434q-84 18 -133 81t-49 146q0 97 66.5 165t172.5 68q107 0 174.5 -68t67.5 -165zM913 547l-213 502l-213 -502h426zM807 1661q0 51 -30 84t-75 33q-43 0 -71.5 -32.5
t-28.5 -84.5t28.5 -84.5t71.5 -32.5q45 0 75 32.5t30 84.5z" />
    <glyph glyph-name="AE" unicode="&#xc6;" horiz-adv-x="2082" 
d="M1946 0h-914v369h-502l-249 -369h-293l1044 1501h914v-233h-658v-394h594v-225h-594v-416h658v-233zM1032 580v544l-364 -544h364z" />
    <glyph glyph-name="Ccedilla" unicode="&#xc7;" horiz-adv-x="1472" 
d="M1145 -301q0 -89 -61 -149t-173 -60q-113 0 -245 78l57 125q109 -68 195 -68q73 0 73 70q0 37 -46 63t-150 29l-9 18l45 175q-319 28 -518.5 242t-199.5 528q0 164 60.5 308t167 247t257 162t324.5 59q260 0 483 -137l-88 -218q-201 115 -399 115q-245 0 -388 -147.5
t-143 -388.5q0 -239 146 -387t391 -148q99 0 208 32t201 87l78 -217q-96 -62 -218.5 -100.5t-250.5 -41.5l-16 -69q219 -52 219 -207z" />
    <glyph glyph-name="Egrave" unicode="&#xc8;" horiz-adv-x="1216" 
d="M1079 0h-915v1501h915v-233h-659v-394h596v-225h-596v-416h659v-233zM739 1729l-67 -109l-418 186l108 199z" />
    <glyph glyph-name="Eacute" unicode="&#xc9;" horiz-adv-x="1216" 
d="M973 1802l-414 -182l-59 113l372 274zM1079 0h-915v1501h915v-233h-659v-394h596v-225h-596v-416h659v-233z" />
    <glyph glyph-name="Ecircumflex" unicode="&#xca;" horiz-adv-x="1216" 
d="M969 1649h-219l-134 172l-131 -172h-206l303 362h92zM1079 0h-915v1501h915v-233h-659v-394h596v-225h-596v-416h659v-233z" />
    <glyph glyph-name="Edieresis" unicode="&#xcb;" horiz-adv-x="1216" 
d="M938 1780q0 -53 -37.5 -91t-89.5 -38q-54 0 -91.5 38t-37.5 91q0 54 37.5 91.5t91.5 37.5q53 0 90 -37.5t37 -91.5zM565 1780q0 -53 -37.5 -91t-91.5 -38q-52 0 -90.5 38.5t-38.5 90.5q0 54 38 91.5t91 37.5q54 0 91.5 -37.5t37.5 -91.5zM1079 0h-915v1501h915v-233h-659
v-394h596v-225h-596v-416h659v-233z" />
    <glyph glyph-name="Igrave" unicode="&#xcc;" horiz-adv-x="604" 
d="M430 0h-256v1501h256v-1501zM418 1729l-68 -109l-418 186l109 199z" />
    <glyph glyph-name="Iacute" unicode="&#xcd;" horiz-adv-x="604" 
d="M430 0h-256v1501h256v-1501zM651 1819l-413 -183l-60 113l373 274z" />
    <glyph glyph-name="Icircumflex" unicode="&#xce;" horiz-adv-x="604" 
d="M430 0h-256v1501h256v-1501zM647 1649h-219l-133 172l-131 -172h-207l303 362h92z" />
    <glyph glyph-name="Idieresis" unicode="&#xcf;" horiz-adv-x="604" 
d="M430 0h-256v1501h256v-1501zM616 1780q0 -53 -37.5 -91t-89.5 -38q-54 0 -91.5 38t-37.5 91q0 54 37.5 91.5t91.5 37.5q53 0 90 -37.5t37 -91.5zM244 1780q0 -53 -37.5 -91t-91.5 -38q-53 0 -91 38.5t-38 90.5q0 54 38 91.5t91 37.5q54 0 91.5 -37.5t37.5 -91.5z" />
    <glyph glyph-name="Eth" unicode="&#xd0;" horiz-adv-x="1601" 
d="M1509 764q0 -128 -33 -242.5t-103 -212.5t-171.5 -169t-246 -111.5t-318.5 -40.5q-171 0 -432 24v645h-166v213h166v617q217 24 418 24q174 0 319.5 -38.5t249.5 -107.5t176 -163t106.5 -204.5t34.5 -233.5zM1235 764q0 239 -151 380.5t-429 141.5q-115 0 -194 -12v-404
h229v-213h-229v-430q76 -12 215 -12q141 0 249 41t175 115t101 173t34 220z" />
    <glyph glyph-name="Ntilde" unicode="&#xd1;" horiz-adv-x="1552" 
d="M1389 -23l-29 -6l-940 992v-963h-256v1522l41 8l928 -977v948h256v-1524zM1128 1759q-45 -55 -104 -88t-115 -33q-68 0 -135 39q-63 39 -117 39q-73 0 -139 -78l-82 131q44 56 103 88.5t116 32.5q69 0 136 -39q57 -36 112 -36q72 0 137 77z" />
    <glyph glyph-name="Ograve" unicode="&#xd2;" horiz-adv-x="1742" 
d="M1630 750q0 -219 -100.5 -396.5t-276 -278t-389.5 -100.5q-160 0 -300 59t-239 161.5t-155.5 246.5t-56.5 308t59 308.5t161 247t244 161.5t302 59q214 0 386 -100.5t268.5 -278t96.5 -397.5zM1356 750q0 236 -136 391t-348 155q-141 0 -252 -71t-172 -195.5t-61 -279.5
q0 -236 136 -391.5t349 -155.5q212 0 348 156t136 391zM985 1729l-67 -109l-418 186l108 199z" />
    <glyph glyph-name="Oacute" unicode="&#xd3;" horiz-adv-x="1742" 
d="M1221 1802l-414 -182l-59 113l372 274zM1630 750q0 -219 -100.5 -396.5t-276 -278t-389.5 -100.5q-160 0 -300 59t-239 161.5t-155.5 246.5t-56.5 308t59 308.5t161 247t244 161.5t302 59q214 0 386 -100.5t268.5 -278t96.5 -397.5zM1356 750q0 236 -136 391t-348 155
q-141 0 -252 -71t-172 -195.5t-61 -279.5q0 -236 136 -391.5t349 -155.5q212 0 348 156t136 391z" />
    <glyph glyph-name="Ocircumflex" unicode="&#xd4;" horiz-adv-x="1742" 
d="M1217 1649h-220l-133 172l-131 -172h-207l303 362h93zM1630 750q0 -219 -100.5 -396.5t-276 -278t-389.5 -100.5q-160 0 -300 59t-239 161.5t-155.5 246.5t-56.5 308t59 308.5t161 247t244 161.5t302 59q214 0 386 -100.5t268.5 -278t96.5 -397.5zM1356 750
q0 236 -136 391t-348 155q-141 0 -252 -71t-172 -195.5t-61 -279.5q0 -236 136 -391.5t349 -155.5q212 0 348 156t136 391z" />
    <glyph glyph-name="Otilde" unicode="&#xd5;" horiz-adv-x="1742" 
d="M1630 750q0 -219 -100.5 -396.5t-276 -278t-389.5 -100.5q-160 0 -300 59t-239 161.5t-155.5 246.5t-56.5 308t59 308.5t161 247t244 161.5t302 59q214 0 386 -100.5t268.5 -278t96.5 -397.5zM1356 750q0 236 -136 391t-348 155q-141 0 -252 -71t-172 -195.5t-61 -279.5
q0 -236 136 -391.5t349 -155.5q212 0 348 156t136 391zM1225 1774q-45 -55 -104 -88t-115 -33q-69 0 -136 39q-63 39 -116 39q-74 0 -140 -78l-82 131q44 56 103.5 88.5t116.5 32.5q68 0 135 -39q59 -37 112 -37q72 0 138 78z" />
    <glyph glyph-name="Odieresis" unicode="&#xd6;" horiz-adv-x="1742" 
d="M1186 1780q0 -53 -37.5 -91t-89.5 -38q-54 0 -91.5 38t-37.5 91q0 54 37.5 91.5t91.5 37.5q53 0 90 -37.5t37 -91.5zM813 1780q0 -53 -37.5 -91t-91.5 -38q-52 0 -90.5 38.5t-38.5 90.5q0 54 38 91.5t91 37.5q54 0 91.5 -37.5t37.5 -91.5zM1630 750q0 -219 -100.5 -396.5
t-276 -278t-389.5 -100.5q-160 0 -300 59t-239 161.5t-155.5 246.5t-56.5 308t59 308.5t161 247t244 161.5t302 59q214 0 386 -100.5t268.5 -278t96.5 -397.5zM1356 750q0 236 -136 391t-348 155q-141 0 -252 -71t-172 -195.5t-61 -279.5q0 -236 136 -391.5t349 -155.5
q212 0 348 156t136 391z" />
    <glyph glyph-name="multiply" unicode="&#xd7;" horiz-adv-x="919" 
d="M127 805l123 125l209 -215l211 215l125 -125l-213 -215l213 -215l-125 -123l-211 213l-209 -213l-123 123l211 215z" />
    <glyph glyph-name="Oslash" unicode="&#xd8;" horiz-adv-x="1742" 
d="M1630 750q0 -219 -100.5 -396.5t-276 -278t-389.5 -100.5q-273 0 -475 162l-149 -149l-140 141l156 152q-143 205 -143 469q0 164 59 308.5t161 247t244 161.5t302 59q275 0 475 -164l149 149l139 -137l-155 -153q143 -201 143 -471zM1356 750q0 151 -68 278
q-717 -715 -717 -717q127 -108 301 -108q212 0 348 156t136 391zM1171 1188q-123 108 -299 108q-141 0 -252 -71t-172 -195.5t-61 -279.5q0 -154 68 -277z" />
    <glyph glyph-name="Ugrave" unicode="&#xd9;" horiz-adv-x="1492" 
d="M1348 575q0 -284 -162.5 -442t-442.5 -158q-283 0 -439.5 155t-156.5 445v926h256v-907q0 -191 90 -288t255 -97q164 0 254 98t90 287v907h256v-926zM862 1714l-67 -108l-418 186l108 199z" />
    <glyph glyph-name="Uacute" unicode="&#xda;" horiz-adv-x="1492" 
d="M1098 1788l-414 -182l-59 112l372 275zM1348 575q0 -284 -162.5 -442t-442.5 -158q-283 0 -439.5 155t-156.5 445v926h256v-907q0 -191 90 -288t255 -97q164 0 254 98t90 287v907h256v-926z" />
    <glyph glyph-name="Ucircumflex" unicode="&#xdb;" horiz-adv-x="1492" 
d="M1094 1634h-220l-133 172l-131 -172h-207l304 363h92zM1348 575q0 -284 -162.5 -442t-442.5 -158q-283 0 -439.5 155t-156.5 445v926h256v-907q0 -191 90 -288t255 -97q164 0 254 98t90 287v907h256v-926z" />
    <glyph glyph-name="Udieresis" unicode="&#xdc;" horiz-adv-x="1492" 
d="M1063 1765q0 -53 -37.5 -91t-89.5 -38q-54 0 -91.5 38t-37.5 91q0 54 37.5 91.5t91.5 37.5q53 0 90 -37.5t37 -91.5zM690 1765q0 -53 -37.5 -91t-91.5 -38q-53 0 -91 38t-38 91q0 54 38 91.5t91 37.5q54 0 91.5 -37.5t37.5 -91.5zM1348 575q0 -284 -162.5 -442
t-442.5 -158q-283 0 -439.5 155t-156.5 445v926h256v-907q0 -191 90 -288t255 -97q164 0 254 98t90 287v907h256v-926z" />
    <glyph glyph-name="Yacute" unicode="&#xdd;" horiz-adv-x="1374" 
d="M1343 1501l-528 -870v-631h-256v633l-528 868h293l368 -635l365 635h286zM1036 1788l-413 -182l-60 112l373 275z" />
    <glyph glyph-name="Thorn" unicode="&#xde;" horiz-adv-x="1226" 
d="M1167 758q0 -234 -158.5 -379.5t-439.5 -145.5q-29 0 -83.5 3.5t-65.5 3.5v-240h-256v1501h256v-239q31 4 125 4q150 0 270 -39.5t196 -109t116 -161t40 -198.5zM901 750q0 117 -82 197.5t-231 80.5q-88 0 -168 -12v-549q102 -8 143 -8q167 0 252.5 79t85.5 212z" />
    <glyph glyph-name="germandbls" unicode="&#xdf;" horiz-adv-x="1107" 
d="M1087 850l-280 -393q240 -67 240 -293q0 -87 -36.5 -156.5t-99.5 -112.5t-143 -65.5t-172 -22.5q-48 0 -123 11l23 188q47 -8 98 -8q109 0 166 42.5t57 119.5q0 66 -50 106.5t-155 40.5q-46 0 -73 -4l-15 29l232 350h-389v-682h-232v1087q0 205 95 317t282 112
q72 0 143 -19l-26 -197q-37 9 -86 9q-94 0 -135 -49t-41 -173v-213h710z" />
    <glyph glyph-name="agrave" unicode="&#xe0;" 
d="M844 0h-221v84q-105 -100 -254 -100q-132 0 -220 74t-88 202q0 119 87.5 195.5t230.5 76.5q73 0 125 -14t110 -41v37q0 100 -52.5 147.5t-158.5 47.5q-91 0 -217 -37l-26 174q144 45 280 45q204 0 304 -96t100 -289v-506zM614 219v109q-48 32 -86.5 45.5t-93.5 13.5
q-67 0 -110 -34t-43 -91q0 -60 41 -93.5t116 -33.5q108 0 176 84zM600 1090l-68 -109l-417 186l108 199z" />
    <glyph glyph-name="aacute" unicode="&#xe1;" 
d="M844 0h-221v84q-105 -100 -254 -100q-132 0 -220 74t-88 202q0 119 87.5 195.5t230.5 76.5q73 0 125 -14t110 -41v37q0 100 -52.5 147.5t-158.5 47.5q-91 0 -217 -37l-26 174q144 45 280 45q204 0 304 -96t100 -289v-506zM614 219v109q-48 32 -86.5 45.5t-93.5 13.5
q-67 0 -110 -34t-43 -91q0 -60 41 -93.5t116 -33.5q108 0 176 84zM834 1163l-414 -182l-60 113l373 274z" />
    <glyph glyph-name="acircumflex" unicode="&#xe2;" 
d="M844 0h-221v84q-105 -100 -254 -100q-132 0 -220 74t-88 202q0 119 87.5 195.5t230.5 76.5q73 0 125 -14t110 -41v37q0 100 -52.5 147.5t-158.5 47.5q-91 0 -217 -37l-26 174q144 45 280 45q204 0 304 -96t100 -289v-506zM614 219v109q-48 32 -86.5 45.5t-93.5 13.5
q-67 0 -110 -34t-43 -91q0 -60 41 -93.5t116 -33.5q108 0 176 84zM829 1010h-219l-133 172l-131 -172h-207l303 362h93z" />
    <glyph glyph-name="atilde" unicode="&#xe3;" 
d="M844 0h-221v84q-105 -100 -254 -100q-132 0 -220 74t-88 202q0 119 87.5 195.5t230.5 76.5q73 0 125 -14t110 -41v37q0 100 -52.5 147.5t-158.5 47.5q-91 0 -217 -37l-26 174q144 45 280 45q204 0 304 -96t100 -289v-506zM614 219v109q-48 32 -86.5 45.5t-93.5 13.5
q-67 0 -110 -34t-43 -91q0 -60 41 -93.5t116 -33.5q108 0 176 84zM838 1135q-45 -55 -104.5 -88t-115.5 -33q-68 0 -135 39q-63 39 -116 39q-74 0 -140 -78l-82 131q44 56 103.5 88.5t116.5 32.5q68 0 135 -39q59 -37 112 -37q72 0 138 78z" />
    <glyph glyph-name="adieresis" unicode="&#xe4;" 
d="M844 0h-221v84q-105 -100 -254 -100q-132 0 -220 74t-88 202q0 119 87.5 195.5t230.5 76.5q73 0 125 -14t110 -41v37q0 100 -52.5 147.5t-158.5 47.5q-91 0 -217 -37l-26 174q144 45 280 45q204 0 304 -96t100 -289v-506zM614 219v109q-48 32 -86.5 45.5t-93.5 13.5
q-67 0 -110 -34t-43 -91q0 -60 41 -93.5t116 -33.5q108 0 176 84zM799 1141q0 -53 -37.5 -91t-89.5 -38q-54 0 -91.5 38t-37.5 91q0 54 37.5 91.5t91.5 37.5q53 0 90 -37.5t37 -91.5zM426 1141q0 -53 -37.5 -91t-91.5 -38q-53 0 -91 38t-38 91q0 54 38 91.5t91 37.5
q54 0 91.5 -37.5t37.5 -91.5z" />
    <glyph glyph-name="aring" unicode="&#xe5;" 
d="M844 0h-221v84q-105 -100 -254 -100q-132 0 -220 74t-88 202q0 119 87.5 195.5t230.5 76.5q73 0 125 -14t110 -41v37q0 100 -52.5 147.5t-158.5 47.5q-91 0 -217 -37l-26 174q144 45 280 45q204 0 304 -96t100 -289v-506zM614 219v109q-48 32 -86.5 45.5t-93.5 13.5
q-67 0 -110 -34t-43 -91q0 -60 41 -93.5t116 -33.5q108 0 176 84zM725 1231q0 -98 -68 -166t-174 -68t-173.5 68t-67.5 166q0 96 67.5 164.5t173.5 68.5t174 -68.5t68 -164.5zM586 1231q0 50 -30 83.5t-73 33.5t-72.5 -32.5t-29.5 -84.5t29.5 -84.5t72.5 -32.5
q44 0 73.5 32.5t29.5 84.5z" />
    <glyph glyph-name="ae" unicode="&#xe6;" horiz-adv-x="1515" 
d="M616 475v39q0 100 -53 147.5t-160 47.5q-87 0 -217 -37l-26 174q144 45 276 45q235 0 322 -139q119 139 305 139q185 0 289 -119t104 -301q0 -57 -6 -104h-606q14 -98 78.5 -149.5t195.5 -51.5q102 0 252 47l29 -180q-176 -49 -299 -49q-245 0 -373 168
q-139 -168 -344 -168q-141 0 -231.5 73.5t-90.5 202.5q0 118 87.5 195t228.5 77q125 0 239 -57zM1249 512q-6 91 -57 144t-139 53q-86 0 -138.5 -51.5t-64.5 -145.5h399zM643 297q-35 44 -90.5 70t-122.5 26q-66 0 -107.5 -34t-41.5 -93q0 -60 41.5 -92.5t115.5 -32.5
q64 0 121.5 39t83.5 117z" />
    <glyph glyph-name="ccedilla" unicode="&#xe7;" horiz-adv-x="884" 
d="M748 -301q0 -89 -61 -149t-173 -60q-114 0 -246 78l58 125q109 -68 194 -68q35 0 54.5 18t19.5 52q0 37 -46.5 63t-150.5 29l-8 18l49 193q-170 35 -267 154.5t-97 281.5q0 93 34 176t96 145.5t156 99t207 36.5q153 0 293 -88l-76 -162q-112 61 -221 61
q-114 0 -187 -69.5t-73 -196.5q0 -119 79 -190.5t193 -71.5t220 62l65 -164q-140 -88 -293 -88h-20l-19 -78q220 -52 220 -207z" />
    <glyph glyph-name="egrave" unicode="&#xe8;" horiz-adv-x="974" 
d="M915 471q0 -73 -6 -104h-606q14 -97 78.5 -149t193.5 -52q104 0 254 47l29 -180q-179 -49 -305 -49q-120 0 -213 35t-150 97t-86.5 142.5t-29.5 175.5q0 89 29.5 171t84 146t140 102t188.5 38q189 0 294 -118.5t105 -301.5zM307 512h402q-8 91 -59.5 144t-137.5 53
t-139.5 -51.5t-65.5 -145.5zM629 1090l-68 -109l-418 186l109 199z" />
    <glyph glyph-name="eacute" unicode="&#xe9;" horiz-adv-x="974" 
d="M862 1163l-413 -182l-60 113l373 274zM915 471q0 -73 -6 -104h-606q14 -97 78.5 -149t193.5 -52q104 0 254 47l29 -180q-179 -49 -305 -49q-120 0 -213 35t-150 97t-86.5 142.5t-29.5 175.5q0 89 29.5 171t84 146t140 102t188.5 38q189 0 294 -118.5t105 -301.5zM307 512
h402q-8 91 -59.5 144t-137.5 53t-139.5 -51.5t-65.5 -145.5z" />
    <glyph glyph-name="ecircumflex" unicode="&#xea;" horiz-adv-x="974" 
d="M858 1010h-219l-133 172l-131 -172h-207l303 362h92zM915 471q0 -73 -6 -104h-606q14 -97 78.5 -149t193.5 -52q104 0 254 47l29 -180q-179 -49 -305 -49q-120 0 -213 35t-150 97t-86.5 142.5t-29.5 175.5q0 89 29.5 171t84 146t140 102t188.5 38q189 0 294 -118.5
t105 -301.5zM307 512h402q-8 91 -59.5 144t-137.5 53t-139.5 -51.5t-65.5 -145.5z" />
    <glyph glyph-name="edieresis" unicode="&#xeb;" horiz-adv-x="974" 
d="M827 1141q0 -53 -37.5 -91t-89.5 -38q-54 0 -91.5 38t-37.5 91q0 54 37.5 91.5t91.5 37.5q53 0 90 -37.5t37 -91.5zM455 1141q0 -53 -37.5 -91t-91.5 -38q-52 0 -90.5 38t-38.5 91q0 54 38 91.5t91 37.5q54 0 91.5 -37.5t37.5 -91.5zM915 471q0 -73 -6 -104h-606
q14 -97 78.5 -149t193.5 -52q104 0 254 47l29 -180q-179 -49 -305 -49q-120 0 -213 35t-150 97t-86.5 142.5t-29.5 175.5q0 89 29.5 171t84 146t140 102t188.5 38q189 0 294 -118.5t105 -301.5zM307 512h402q-8 91 -59.5 144t-137.5 53t-139.5 -51.5t-65.5 -145.5z" />
    <glyph glyph-name="igrave" unicode="&#xec;" horiz-adv-x="491" 
d="M365 0h-234v874h234v-874zM362 1090l-67 -109l-418 186l109 199z" />
    <glyph glyph-name="iacute" unicode="&#xed;" horiz-adv-x="491" 
d="M596 1163l-414 -182l-59 113l373 274zM365 0h-234v874h234v-874z" />
    <glyph glyph-name="icircumflex" unicode="&#xee;" horiz-adv-x="491" 
d="M592 1010h-219l-133 172l-131 -172h-207l303 362h92zM365 0h-234v874h234v-874z" />
    <glyph glyph-name="idieresis" unicode="&#xef;" horiz-adv-x="491" 
d="M561 1141q0 -53 -37.5 -91t-89.5 -38q-54 0 -91.5 38t-37.5 91q0 54 37.5 91.5t91.5 37.5q53 0 90 -37.5t37 -91.5zM188 1141q0 -53 -37.5 -91t-91.5 -38q-53 0 -91 38t-38 91q0 54 38 91.5t91 37.5q54 0 91.5 -37.5t37.5 -91.5zM365 0h-234v874h234v-874z" />
    <glyph glyph-name="eth" unicode="&#xf0;" horiz-adv-x="1073" 
d="M322 995l-99 121l129 113q-104 68 -200 106l90 181q150 -68 266 -148l137 121l105 -127l-111 -94q354 -314 354 -772q0 -231 -123.5 -373.5t-332.5 -142.5q-111 0 -200 38.5t-144 104.5t-84 149.5t-29 178.5q0 122 47 221t139.5 159t214.5 60q153 0 248 -92
q-67 177 -248 334zM772 440q0 123 -65.5 199t-171.5 76q-101 0 -163.5 -71.5t-62.5 -194.5t63 -206t169 -83q108 0 169.5 78t61.5 202z" />
    <glyph glyph-name="ntilde" unicode="&#xf1;" horiz-adv-x="1048" 
d="M948 0h-233v541q0 83 -32 120t-101 37q-58 0 -119.5 -33.5t-112.5 -89.5v-575h-233v874h225v-145q159 162 324 162q140 0 211 -79.5t71 -213.5v-598zM885 1135q-45 -55 -104 -88t-115 -33q-69 0 -136 39q-63 39 -116 39q-74 0 -140 -78l-81 131q44 56 103 88.5t116 32.5
q68 0 135 -39q59 -37 112 -37q72 0 138 78z" />
    <glyph glyph-name="ograve" unicode="&#xf2;" horiz-adv-x="1071" 
d="M987 438q0 -192 -125 -323t-330 -131q-138 0 -243.5 62t-160 164.5t-54.5 227.5t54.5 227t160 164t243.5 62q205 0 330 -130.5t125 -322.5zM758 438q0 126 -61.5 200.5t-164.5 74.5q-104 0 -165.5 -74.5t-61.5 -200.5q0 -127 61.5 -201.5t165.5 -74.5q103 0 164.5 74.5
t61.5 201.5zM651 1090l-67 -109l-418 186l108 199z" />
    <glyph glyph-name="oacute" unicode="&#xf3;" horiz-adv-x="1071" 
d="M885 1163l-414 -182l-59 113l372 274zM987 438q0 -192 -125 -323t-330 -131q-138 0 -243.5 62t-160 164.5t-54.5 227.5t54.5 227t160 164t243.5 62q205 0 330 -130.5t125 -322.5zM758 438q0 126 -61.5 200.5t-164.5 74.5q-104 0 -165.5 -74.5t-61.5 -200.5
q0 -127 61.5 -201.5t165.5 -74.5q103 0 164.5 74.5t61.5 201.5z" />
    <glyph glyph-name="ocircumflex" unicode="&#xf4;" horiz-adv-x="1071" 
d="M881 1010h-219l-134 172l-131 -172h-207l304 362h92zM987 438q0 -192 -125 -323t-330 -131q-138 0 -243.5 62t-160 164.5t-54.5 227.5t54.5 227t160 164t243.5 62q205 0 330 -130.5t125 -322.5zM758 438q0 126 -61.5 200.5t-164.5 74.5q-104 0 -165.5 -74.5t-61.5 -200.5
q0 -127 61.5 -201.5t165.5 -74.5q103 0 164.5 74.5t61.5 201.5z" />
    <glyph glyph-name="otilde" unicode="&#xf5;" horiz-adv-x="1071" 
d="M987 438q0 -192 -125 -323t-330 -131q-138 0 -243.5 62t-160 164.5t-54.5 227.5t54.5 227t160 164t243.5 62q205 0 330 -130.5t125 -322.5zM758 438q0 126 -61.5 200.5t-164.5 74.5q-104 0 -165.5 -74.5t-61.5 -200.5q0 -127 61.5 -201.5t165.5 -74.5q103 0 164.5 74.5
t61.5 201.5zM889 1135q-45 -55 -104 -88t-115 -33q-68 0 -135 39q-63 39 -117 39q-73 0 -139 -78l-82 131q44 56 103 88.5t116 32.5q68 0 135 -39q59 -37 113 -37q71 0 137 78z" />
    <glyph glyph-name="odieresis" unicode="&#xf6;" horiz-adv-x="1071" 
d="M850 1141q0 -53 -37.5 -91t-89.5 -38q-54 0 -91.5 38t-37.5 91q0 54 37.5 91.5t91.5 37.5q53 0 90 -37.5t37 -91.5zM477 1141q0 -53 -37.5 -91t-91.5 -38q-52 0 -90.5 38t-38.5 91q0 54 38 91.5t91 37.5q54 0 91.5 -37.5t37.5 -91.5zM987 438q0 -192 -125 -323t-330 -131
q-138 0 -243.5 62t-160 164.5t-54.5 227.5t54.5 227t160 164t243.5 62q205 0 330 -130.5t125 -322.5zM758 438q0 126 -61.5 200.5t-164.5 74.5q-104 0 -165.5 -74.5t-61.5 -200.5q0 -127 61.5 -201.5t165.5 -74.5q103 0 164.5 74.5t61.5 201.5z" />
    <glyph glyph-name="divide" unicode="&#xf7;" 
d="M123 504v172h694v-172h-694zM352 879q0 49 34.5 83.5t84.5 34.5q49 0 83 -34t34 -84q0 -48 -34 -82.5t-83 -34.5t-84 34.5t-35 82.5zM352 301q0 49 35 84t84 35t83 -34.5t34 -84.5t-34 -84.5t-83 -34.5t-84 35t-35 84z" />
    <glyph glyph-name="oslash" unicode="&#xf8;" horiz-adv-x="1060" 
d="M999 807l-98 -94q86 -115 86 -275q0 -193 -125 -323.5t-330 -130.5q-168 0 -292 94l-99 -94l-80 79l101 97q-88 120 -88 278q0 193 125.5 323t332.5 130q178 0 293 -98l97 94zM324 313l358 342q-58 58 -150 58q-106 0 -167.5 -73t-61.5 -202q0 -70 21 -125zM739 557
l-356 -342q59 -53 149 -53q105 0 165.5 73t60.5 203q0 64 -19 119z" />
    <glyph glyph-name="ugrave" unicode="&#xf9;" horiz-adv-x="1046" 
d="M940 0h-225v135q-68 -68 -152 -109.5t-166 -41.5q-141 0 -214.5 79.5t-73.5 212.5v598h233v-540q0 -156 139 -156q121 0 226 115v581h233v-874zM639 1090l-68 -109l-417 186l108 199z" />
    <glyph glyph-name="uacute" unicode="&#xfa;" horiz-adv-x="1046" 
d="M872 1163l-413 -182l-60 113l373 274zM940 0h-225v135q-68 -68 -152 -109.5t-166 -41.5q-141 0 -214.5 79.5t-73.5 212.5v598h233v-540q0 -156 139 -156q121 0 226 115v581h233v-874z" />
    <glyph glyph-name="ucircumflex" unicode="&#xfb;" horiz-adv-x="1046" 
d="M868 1010h-219l-133 172l-131 -172h-207l303 362h92zM940 0h-225v135q-68 -68 -152 -109.5t-166 -41.5q-141 0 -214.5 79.5t-73.5 212.5v598h233v-540q0 -156 139 -156q121 0 226 115v581h233v-874z" />
    <glyph glyph-name="udieresis" unicode="&#xfc;" horiz-adv-x="1046" 
d="M838 1141q0 -53 -37.5 -91t-89.5 -38q-54 0 -91.5 38t-37.5 91q0 54 37.5 91.5t91.5 37.5q53 0 90 -37.5t37 -91.5zM465 1141q0 -53 -37.5 -91t-91.5 -38q-52 0 -90.5 38t-38.5 91q0 54 38 91.5t91 37.5q54 0 91.5 -37.5t37.5 -91.5zM940 0h-225v135q-68 -68 -152 -109.5
t-166 -41.5q-141 0 -214.5 79.5t-73.5 212.5v598h233v-540q0 -156 139 -156q121 0 226 115v581h233v-874z" />
    <glyph glyph-name="yacute" unicode="&#xfd;" horiz-adv-x="944" 
d="M948 874l-618 -1316h-232l267 530l-369 786h258l223 -555l219 555h252zM821 1163l-413 -182l-60 113l373 274z" />
    <glyph glyph-name="thorn" unicode="&#xfe;" horiz-adv-x="1093" 
d="M1014 444q0 -192 -123.5 -326t-312.5 -134q-126 0 -228 57v-483h-233v1943h229v-706q113 96 270 96q171 0 284.5 -126.5t113.5 -320.5zM782 442q0 117 -61 191t-162 74q-124 0 -211 -93v-366q34 -39 88.5 -59.5t114.5 -20.5q101 0 166 74t65 200z" />
    <glyph glyph-name="ydieresis" unicode="&#xff;" horiz-adv-x="944" 
d="M948 874l-618 -1316h-232l267 530l-369 786h258l223 -555l219 555h252zM786 1141q0 -53 -37.5 -91t-89.5 -38q-54 0 -91.5 38t-37.5 91q0 54 37.5 91.5t91.5 37.5q53 0 90 -37.5t37 -91.5zM414 1141q0 -53 -37.5 -91t-91.5 -38q-53 0 -91 38t-38 91q0 54 38 91.5t91 37.5
q54 0 91.5 -37.5t37.5 -91.5z" />
    <glyph glyph-name="Amacron" unicode="&#x100;" horiz-adv-x="1406" 
d="M1413 0h-270l-146 344h-594l-145 -344h-264l692 1522h37zM913 547l-213 502l-213 -502h426zM997 1671h-587v176h587v-176z" />
    <glyph glyph-name="amacron" unicode="&#x101;" 
d="M844 0h-221v84q-105 -100 -254 -100q-132 0 -220 74t-88 202q0 119 87.5 195.5t230.5 76.5q73 0 125 -14t110 -41v37q0 100 -52.5 147.5t-158.5 47.5q-91 0 -217 -37l-26 174q144 45 280 45q204 0 304 -96t100 -289v-506zM614 219v109q-48 32 -86.5 45.5t-93.5 13.5
q-67 0 -110 -34t-43 -91q0 -60 41 -93.5t116 -33.5q108 0 176 84zM778 1032h-588v176h588v-176z" />
    <glyph glyph-name="Abreve" unicode="&#x102;" horiz-adv-x="1406" 
d="M1413 0h-270l-146 344h-594l-145 -344h-264l692 1522h37zM913 547l-213 502l-213 -502h426zM995 1921q0 -120 -79.5 -201.5t-213.5 -81.5q-132 0 -211 81.5t-79 201.5l180 14q0 -67 28.5 -104t81.5 -37q54 0 83.5 37t29.5 104z" />
    <glyph glyph-name="abreve" unicode="&#x103;" 
d="M844 0h-221v84q-105 -100 -254 -100q-132 0 -220 74t-88 202q0 119 87.5 195.5t230.5 76.5q73 0 125 -14t110 -41v37q0 100 -52.5 147.5t-158.5 47.5q-91 0 -217 -37l-26 174q144 45 280 45q204 0 304 -96t100 -289v-506zM614 219v109q-48 32 -86.5 45.5t-93.5 13.5
q-67 0 -110 -34t-43 -91q0 -60 41 -93.5t116 -33.5q108 0 176 84zM776 1282q0 -120 -79.5 -201.5t-213.5 -81.5q-132 0 -211 81.5t-79 201.5l180 14q0 -67 28.5 -104t81.5 -37q54 0 83.5 37t29.5 104z" />
    <glyph glyph-name="Aogonek" unicode="&#x104;" horiz-adv-x="1406" 
d="M1419 -354q-88 -98 -211 -101q-85 0 -135.5 50.5t-48.5 130.5q0 66 34.5 128t112.5 146h-28l-146 344h-594l-145 -344h-264l692 1522h37l690 -1522h-98q-65 -81 -95 -136t-30 -102q0 -35 18 -54t49 -19q48 0 97 49zM913 547l-213 502l-213 -502h426z" />
    <glyph glyph-name="aogonek" unicode="&#x105;" 
d="M877 -344q-87 -97 -211 -100q-86 0 -136.5 50t-48.5 130q0 65 34 126t108 142v80q-105 -100 -254 -100q-132 0 -220 74t-88 202q0 119 87.5 195.5t230.5 76.5q73 0 125 -14t110 -41v37q0 100 -52.5 147.5t-158.5 47.5q-91 0 -217 -37l-26 174q144 45 280 45
q204 0 304 -96t100 -289v-506h-80q-61 -75 -89 -128t-28 -99q0 -35 18.5 -54.5t49.5 -19.5q47 0 96 49zM614 219v109q-48 32 -86.5 45.5t-93.5 13.5q-67 0 -110 -34t-43 -91q0 -60 41 -93.5t116 -33.5q108 0 176 84z" />
    <glyph glyph-name="Cacute" unicode="&#x106;" horiz-adv-x="1472" 
d="M1217 1802l-414 -182l-60 113l373 274zM1411 117q-99 -64 -227.5 -103t-261.5 -39q-234 0 -419 100.5t-287.5 277t-102.5 397.5q0 164 60.5 308t167 247t257 162t324.5 59q260 0 483 -137l-88 -218q-201 115 -399 115q-245 0 -388 -147.5t-143 -388.5q0 -239 146 -387
t391 -148q99 0 208 32t201 87z" />
    <glyph glyph-name="cacute" unicode="&#x107;" horiz-adv-x="884" 
d="M866 1163l-413 -182l-60 113l373 274zM860 72q-140 -88 -293 -88q-225 0 -359 129t-134 321q0 93 34 176t96 145.5t156 99t207 36.5q153 0 293 -88l-76 -162q-112 61 -221 61q-114 0 -187 -69.5t-73 -196.5q0 -119 79 -190.5t193 -71.5t220 62z" />
    <glyph glyph-name="Cdotaccent" unicode="&#x10a;" horiz-adv-x="1472" 
d="M1411 117q-99 -64 -227.5 -103t-261.5 -39q-234 0 -419 100.5t-287.5 277t-102.5 397.5q0 164 60.5 308t167 247t257 162t324.5 59q260 0 483 -137l-88 -218q-201 115 -399 115q-245 0 -388 -147.5t-143 -388.5q0 -239 146 -387t391 -148q99 0 208 32t201 87zM739 1780
q0 54 37 91.5t90 37.5q54 0 91.5 -37.5t37.5 -91.5q0 -53 -37.5 -91t-91.5 -38q-52 0 -89.5 38t-37.5 91z" />
    <glyph glyph-name="cdotaccent" unicode="&#x10b;" horiz-adv-x="884" 
d="M860 72q-140 -88 -293 -88q-225 0 -359 129t-134 321q0 93 34 176t96 145.5t156 99t207 36.5q153 0 293 -88l-76 -162q-112 61 -221 61q-114 0 -187 -69.5t-73 -196.5q0 -119 79 -190.5t193 -71.5t220 62zM389 1141q0 54 37 91.5t90 37.5q54 0 91.5 -37.5t37.5 -91.5
q0 -53 -37.5 -91t-91.5 -38q-52 0 -89.5 38t-37.5 91z" />
    <glyph glyph-name="Ccaron" unicode="&#x10c;" horiz-adv-x="1472" 
d="M1212 1999l-305 -365h-90l-295 365h217l133 -174l132 174h208zM1411 117q-99 -64 -227.5 -103t-261.5 -39q-234 0 -419 100.5t-287.5 277t-102.5 397.5q0 164 60.5 308t167 247t257 162t324.5 59q260 0 483 -137l-88 -218q-201 115 -399 115q-245 0 -388 -147.5
t-143 -388.5q0 -239 146 -387t391 -148q99 0 208 32t201 87z" />
    <glyph glyph-name="ccaron" unicode="&#x10d;" horiz-adv-x="884" 
d="M862 1360l-305 -365h-90l-295 365h217l133 -174l131 174h209zM860 72q-140 -88 -293 -88q-225 0 -359 129t-134 321q0 93 34 176t96 145.5t156 99t207 36.5q153 0 293 -88l-76 -162q-112 61 -221 61q-114 0 -187 -69.5t-73 -196.5q0 -119 79 -190.5t193 -71.5t220 62z
" />
    <glyph glyph-name="Dcaron" unicode="&#x10e;" horiz-adv-x="1581" 
d="M1098 1999l-305 -365h-91l-294 365h217l133 -174l131 174h209zM1468 764q0 -128 -33 -242.5t-103 -212.5t-171.5 -169t-246 -111.5t-318.5 -40.5q-171 0 -432 24v1475q218 24 418 24q174 0 319.5 -38.5t249.5 -107.5t176 -163t106.5 -204.5t34.5 -233.5zM1194 764
q0 239 -151 380.5t-431 141.5q-112 0 -192 -12v-1047q76 -12 215 -12q141 0 249 41t175 115t101 173t34 220z" />
    <glyph glyph-name="dcaron" unicode="&#x10f;" horiz-adv-x="1087" 
d="M1161 1501l185 -35q0 -248 -199 -395l-105 68q111 131 119 362zM977 0h-223v82q-104 -98 -262 -98q-183 0 -297.5 126.5t-114.5 323.5q0 188 126.5 322.5t297.5 134.5q144 0 241 -78v688h232v-1501zM745 268v336q-35 45 -88.5 74t-115.5 29q-101 0 -165.5 -72t-64.5 -197
q0 -122 61.5 -195t172.5 -73q121 0 200 98z" />
    <glyph glyph-name="Dcroat" unicode="&#x110;" horiz-adv-x="1601" 
d="M1509 764q0 -128 -33 -242.5t-103 -212.5t-171.5 -169t-246 -111.5t-318.5 -40.5q-171 0 -432 24v645h-166v213h166v617q217 24 418 24q174 0 319.5 -38.5t249.5 -107.5t176 -163t106.5 -204.5t34.5 -233.5zM1235 764q0 239 -151 380.5t-429 141.5q-115 0 -194 -12v-404
h229v-213h-229v-430q76 -12 215 -12q141 0 249 41t175 115t101 173t34 220z" />
    <glyph glyph-name="dcroat" unicode="&#x111;" horiz-adv-x="1087" 
d="M977 0h-223v82q-104 -98 -262 -98q-183 0 -297.5 126.5t-114.5 323.5q0 188 126.5 322.5t297.5 134.5q144 0 241 -78v309h-290v174h290v205h232v-205h110v-174h-110v-1122zM745 268v336q-35 45 -88.5 74t-115.5 29q-101 0 -165.5 -72t-64.5 -197q0 -122 61.5 -195
t172.5 -73q121 0 200 98z" />
    <glyph glyph-name="Emacron" unicode="&#x112;" horiz-adv-x="1216" 
d="M1079 0h-915v1501h915v-233h-659v-394h596v-225h-596v-416h659v-233zM918 1671h-588v176h588v-176z" />
    <glyph glyph-name="emacron" unicode="&#x113;" horiz-adv-x="974" 
d="M915 471q0 -73 -6 -104h-606q14 -97 78.5 -149t193.5 -52q104 0 254 47l29 -180q-179 -49 -305 -49q-120 0 -213 35t-150 97t-86.5 142.5t-29.5 175.5q0 89 29.5 171t84 146t140 102t188.5 38q189 0 294 -118.5t105 -301.5zM307 512h402q-8 91 -59.5 144t-137.5 53
t-139.5 -51.5t-65.5 -145.5zM807 1032h-588v176h588v-176z" />
    <glyph glyph-name="Ebreve" unicode="&#x114;" horiz-adv-x="1216" 
d="M1079 0h-915v1501h915v-233h-659v-394h596v-225h-596v-416h659v-233zM915 1921q0 -120 -79 -201.5t-213 -81.5q-132 0 -211.5 81.5t-79.5 201.5l180 14q0 -67 29 -104t82 -37q54 0 83 36.5t29 104.5z" />
    <glyph glyph-name="ebreve" unicode="&#x115;" horiz-adv-x="974" 
d="M915 471q0 -73 -6 -104h-606q14 -97 78.5 -149t193.5 -52q104 0 254 47l29 -180q-179 -49 -305 -49q-120 0 -213 35t-150 97t-86.5 142.5t-29.5 175.5q0 89 29.5 171t84 146t140 102t188.5 38q189 0 294 -118.5t105 -301.5zM307 512h402q-8 91 -59.5 144t-137.5 53
t-139.5 -51.5t-65.5 -145.5zM805 1282q0 -120 -79.5 -201.5t-213.5 -81.5q-132 0 -211.5 81.5t-79.5 201.5l180 14q0 -67 29 -104t82 -37q54 0 83.5 37t29.5 104z" />
    <glyph glyph-name="Edotaccent" unicode="&#x116;" horiz-adv-x="1216" 
d="M1079 0h-915v1501h915v-233h-659v-394h596v-225h-596v-416h659v-233zM496 1780q0 54 37 91.5t90 37.5q54 0 91.5 -37.5t37.5 -91.5q0 -53 -37.5 -91t-91.5 -38q-52 0 -89.5 38t-37.5 91z" />
    <glyph glyph-name="edotaccent" unicode="&#x117;" horiz-adv-x="974" 
d="M915 471q0 -73 -6 -104h-606q14 -97 78.5 -149t193.5 -52q104 0 254 47l29 -180q-179 -49 -305 -49q-120 0 -213 35t-150 97t-86.5 142.5t-29.5 175.5q0 89 29.5 171t84 146t140 102t188.5 38q189 0 294 -118.5t105 -301.5zM307 512h402q-8 91 -59.5 144t-137.5 53
t-139.5 -51.5t-65.5 -145.5zM385 1141q0 54 37 91.5t90 37.5q54 0 91.5 -37.5t37.5 -91.5q0 -53 -37.5 -91t-91.5 -38q-52 0 -89.5 38t-37.5 91z" />
    <glyph glyph-name="Eogonek" unicode="&#x118;" horiz-adv-x="1216" 
d="M1079 0h-82q-65 -81 -95 -136t-30 -102q0 -35 18.5 -54t49.5 -19q47 0 96 49l66 -92q-88 -98 -211 -101q-85 0 -135.5 50.5t-48.5 130.5q0 66 34.5 128t112.5 146h-690v1501h915v-233h-659v-394h596v-225h-596v-416h659v-233z" />
    <glyph glyph-name="eogonek" unicode="&#x119;" horiz-adv-x="974" 
d="M915 471q0 -73 -6 -104h-606q14 -97 78.5 -149t193.5 -52q104 0 254 47l29 -176q-80 -73 -126 -145.5t-46 -129.5q0 -35 18.5 -54t49.5 -19q45 0 94 49l67 -92q-92 -98 -213 -101q-84 0 -134 50.5t-50 130.5q0 65 37 129t113 139q-68 -10 -115 -10q-120 0 -213 35
t-150 97t-86.5 142.5t-29.5 175.5q0 89 29.5 171t84 146t140 102t188.5 38q189 0 294 -118.5t105 -301.5zM307 512h402q-8 91 -59.5 144t-137.5 53t-139.5 -51.5t-65.5 -145.5z" />
    <glyph glyph-name="Ecaron" unicode="&#x11a;" horiz-adv-x="1216" 
d="M969 1999l-305 -365h-91l-294 365h217l133 -174l131 174h209zM1079 0h-915v1501h915v-233h-659v-394h596v-225h-596v-416h659v-233z" />
    <glyph glyph-name="ecaron" unicode="&#x11b;" horiz-adv-x="974" 
d="M858 1360l-305 -365h-90l-295 365h217l133 -174l131 174h209zM915 471q0 -73 -6 -104h-606q14 -97 78.5 -149t193.5 -52q104 0 254 47l29 -180q-179 -49 -305 -49q-120 0 -213 35t-150 97t-86.5 142.5t-29.5 175.5q0 89 29.5 171t84 146t140 102t188.5 38
q189 0 294 -118.5t105 -301.5zM307 512h402q-8 91 -59.5 144t-137.5 53t-139.5 -51.5t-65.5 -145.5z" />
    <glyph glyph-name="Gbreve" unicode="&#x11e;" horiz-adv-x="1587" 
d="M872 795h596v-656q-252 -164 -559 -164q-160 0 -305 56.5t-253.5 156.5t-173 246.5t-64.5 315.5q0 171 65 317.5t174.5 246t254 156t302.5 56.5q156 0 281.5 -39.5t251.5 -116.5l-117 -205q-194 125 -403 125q-166 0 -289 -73t-184.5 -194.5t-61.5 -272.5q0 -156 71 -282
t193 -195.5t269 -69.5q175 0 303 71v295h-351v226zM1178 1921q0 -120 -79.5 -201.5t-213.5 -81.5q-132 0 -211.5 81.5t-79.5 201.5l180 14q0 -67 29 -104t82 -37q54 0 83 36.5t29 104.5z" />
    <glyph glyph-name="gbreve" unicode="&#x11f;" horiz-adv-x="1083" 
d="M977 -45q0 -220 -104 -317t-304 -97q-140 0 -290 43l22 205q118 -41 231 -41q110 0 161.5 48t51.5 155v106q-92 -73 -235 -73q-189 0 -309.5 119.5t-120.5 322.5q0 192 127 328.5t301 136.5q146 0 246 -80v63h223v-919zM745 254v362q-82 89 -196 89q-106 0 -172 -77
t-66 -204q0 -114 64.5 -186t179.5 -72t190 88zM860 1282q0 -120 -79.5 -201.5t-213.5 -81.5q-132 0 -211.5 81.5t-79.5 201.5l181 14q0 -67 28.5 -104t81.5 -37q54 0 83.5 37t29.5 104z" />
    <glyph glyph-name="Gdotaccent" unicode="&#x120;" horiz-adv-x="1587" 
d="M872 795h596v-656q-252 -164 -559 -164q-160 0 -305 56.5t-253.5 156.5t-173 246.5t-64.5 315.5q0 171 65 317.5t174.5 246t254 156t302.5 56.5q156 0 281.5 -39.5t251.5 -116.5l-117 -205q-194 125 -403 125q-166 0 -289 -73t-184.5 -194.5t-61.5 -272.5q0 -156 71 -282
t193 -195.5t269 -69.5q175 0 303 71v295h-351v226zM758 1780q0 54 37 91.5t90 37.5q54 0 91.5 -37.5t37.5 -91.5q0 -53 -37.5 -91t-91.5 -38q-52 0 -89.5 38t-37.5 91z" />
    <glyph glyph-name="gdotaccent" unicode="&#x121;" horiz-adv-x="1083" 
d="M977 -45q0 -220 -104 -317t-304 -97q-140 0 -290 43l22 205q118 -41 231 -41q110 0 161.5 48t51.5 155v106q-92 -73 -235 -73q-189 0 -309.5 119.5t-120.5 322.5q0 192 127 328.5t301 136.5q146 0 246 -80v63h223v-919zM745 254v362q-82 89 -196 89q-106 0 -172 -77
t-66 -204q0 -114 64.5 -186t179.5 -72t190 88zM440 1141q0 54 37 91.5t90 37.5q54 0 91.5 -37.5t37.5 -91.5q0 -53 -37.5 -91t-91.5 -38q-52 0 -89.5 38t-37.5 91z" />
    <glyph glyph-name="Gcommaaccent" unicode="&#x122;" horiz-adv-x="1587" 
d="M1020 -309q0 -95 -68.5 -196.5t-179.5 -156.5l-24 39q110 94 141 213q-62 3 -98.5 41t-36.5 93q0 53 36.5 89.5t88.5 36.5q66 0 103.5 -45.5t37.5 -113.5zM872 795h596v-656q-252 -164 -559 -164q-160 0 -305 56.5t-253.5 156.5t-173 246.5t-64.5 315.5q0 171 65 317.5
t174.5 246t254 156t302.5 56.5q156 0 281.5 -39.5t251.5 -116.5l-117 -205q-194 125 -403 125q-166 0 -289 -73t-184.5 -194.5t-61.5 -272.5q0 -156 71 -282t193 -195.5t269 -69.5q175 0 303 71v295h-351v226z" />
    <glyph glyph-name="gcommaaccent" unicode="&#x123;" horiz-adv-x="1083" 
d="M434 1196q0 95 68.5 196t179.5 156l25 -39q-111 -95 -142 -213q62 -3 98.5 -40.5t36.5 -92.5q0 -53 -36.5 -90t-88.5 -37q-66 0 -103.5 46t-37.5 114zM977 -45q0 -220 -104 -317t-304 -97q-140 0 -290 43l22 205q118 -41 231 -41q110 0 161.5 48t51.5 155v106
q-92 -73 -235 -73q-189 0 -309.5 119.5t-120.5 322.5q0 192 127 328.5t301 136.5q146 0 246 -80v63h223v-919zM745 254v362q-82 89 -196 89q-106 0 -172 -77t-66 -204q0 -114 64.5 -186t179.5 -72t190 88z" />
    <glyph glyph-name="Hbar" unicode="&#x126;" horiz-adv-x="1529" 
d="M1366 0h-256v625h-690v-625h-256v1094h-148v176h148v231h256v-231h690v231h256v-231h150v-176h-150v-1094zM420 854h690v240h-690v-240z" />
    <glyph glyph-name="hbar" unicode="&#x127;" horiz-adv-x="1054" 
d="M954 0h-233v541q0 82 -33.5 119.5t-103.5 37.5q-57 0 -120 -34t-114 -89v-575h-233v1122h-111v174h111v205h231v-205h291v-174h-291v-389q149 158 318 158q141 0 214.5 -79.5t73.5 -213.5v-598z" />
    <glyph glyph-name="Imacron" unicode="&#x12a;" horiz-adv-x="604" 
d="M430 0h-256v1501h256v-1501zM596 1671h-588v176h588v-176z" />
    <glyph glyph-name="imacron" unicode="&#x12b;" horiz-adv-x="491" 
d="M365 0h-234v874h234v-874zM541 1032h-588v176h588v-176z" />
    <glyph glyph-name="Ibreve" unicode="&#x12c;" horiz-adv-x="604" 
d="M430 0h-256v1501h256v-1501zM594 1921q0 -120 -79.5 -201.5t-213.5 -81.5q-132 0 -211.5 81.5t-79.5 201.5l180 14q0 -67 29 -104t82 -37q54 0 83.5 37t29.5 104z" />
    <glyph glyph-name="ibreve" unicode="&#x12d;" horiz-adv-x="491" 
d="M365 0h-234v874h234v-874zM539 1282q0 -120 -79.5 -201.5t-213.5 -81.5q-132 0 -211.5 81.5t-79.5 201.5l180 14q0 -67 29 -104t82 -37q54 0 83 36.5t29 104.5z" />
    <glyph glyph-name="Iogonek" unicode="&#x12e;" horiz-adv-x="604" 
d="M483 -354q-88 -98 -211 -101q-85 0 -135.5 50.5t-48.5 130.5q0 66 35 128t113 146h-62v1501h256v-1501h-51q-65 -81 -95 -136t-30 -102q0 -35 18.5 -54t49.5 -19q47 0 96 49z" />
    <glyph glyph-name="iogonek" unicode="&#x12f;" horiz-adv-x="483" 
d="M432 -344q-91 -97 -213 -100q-84 0 -134 50t-50 130q1 65 33.5 125t103.5 139h-45v874h233v-874h-41q-116 -139 -116 -227q0 -35 18 -54.5t49 -19.5q46 0 95 49zM381 1178q0 -57 -40 -97.5t-97 -40.5t-96 40.5t-39 97.5t39 97t96 40t97 -40t40 -97z" />
    <glyph glyph-name="Idotaccent" unicode="&#x130;" horiz-adv-x="604" 
d="M430 0h-256v1501h256v-1501zM174 1780q0 54 37 91.5t90 37.5q54 0 91.5 -37.5t37.5 -91.5q0 -53 -37.5 -91t-91.5 -38q-52 0 -89.5 38t-37.5 91z" />
    <glyph glyph-name="dotlessi" unicode="&#x131;" horiz-adv-x="493" 
d="M365 0h-234v874h234v-874z" />
    <glyph glyph-name="Kcommaaccent" unicode="&#x136;" horiz-adv-x="1376" 
d="M840 -285q0 -95 -68.5 -196t-179.5 -156l-25 39q111 95 142 213q-62 3 -99 40.5t-37 92.5q0 53 36.5 90t88.5 37q66 0 104 -46t38 -114zM1352 0h-318l-614 721v-721h-256v1501h256v-676l590 676h309l-655 -721z" />
    <glyph glyph-name="kcommaaccent" unicode="&#x137;" horiz-adv-x="974" 
d="M645 -309q0 -95 -68.5 -196.5t-179.5 -156.5l-24 39q110 94 141 213q-62 3 -98.5 41t-36.5 93q0 53 36.5 89.5t88.5 36.5q66 0 103.5 -45.5t37.5 -113.5zM967 0h-279l-340 414v-414h-231v1501h231v-1001l324 374h278l-387 -411z" />
    <glyph glyph-name="Lacute" unicode="&#x139;" horiz-adv-x="1116" 
d="M737 1819l-413 -183l-60 113l373 274zM1079 0h-915v1501h256v-1268h659v-233z" />
    <glyph glyph-name="lacute" unicode="&#x13a;" horiz-adv-x="473" 
d="M621 1808l-414 -182l-60 113l373 274zM352 0h-231v1501h231v-1501z" />
    <glyph glyph-name="Lcommaaccent" unicode="&#x13b;" horiz-adv-x="1116" 
d="M745 -309q0 -96 -68 -197t-179 -156l-25 39q110 94 141 213q-62 3 -98.5 41t-36.5 93q0 53 36.5 89.5t88.5 36.5q66 0 103.5 -45.5t37.5 -113.5zM1079 0h-915v1501h256v-1268h659v-233z" />
    <glyph glyph-name="lcommaaccent" unicode="&#x13c;" horiz-adv-x="473" 
d="M371 -309q0 -95 -68.5 -196.5t-179.5 -156.5l-25 39q111 95 142 213q-62 3 -99 41t-37 93q0 53 36.5 89.5t88.5 36.5q66 0 104 -45.5t38 -113.5zM352 0h-231v1501h231v-1501z" />
    <glyph glyph-name="Lcaron" unicode="&#x13d;" horiz-adv-x="1116" 
d="M662 1501l184 -35q0 -248 -199 -395l-104 68q111 131 119 362zM1079 0h-915v1501h256v-1268h659v-233z" />
    <glyph glyph-name="lcaron" unicode="&#x13e;" horiz-adv-x="473" 
d="M537 1501l184 -35q0 -248 -199 -395l-104 68q111 131 119 362zM352 0h-231v1501h231v-1501z" />
    <glyph glyph-name="Ldot" unicode="&#x13f;" horiz-adv-x="1116" 
d="M1079 0h-915v1501h256v-1268h659v-233zM735 786q0 -53 37.5 -91t89.5 -38q54 0 91.5 38t37.5 91q0 54 -37.5 91.5t-91.5 37.5q-53 0 -90 -37.5t-37 -91.5z" />
    <glyph glyph-name="ldot" unicode="&#x140;" horiz-adv-x="688" 
d="M352 0h-231v1501h231v-1501zM453 752q0 -53 37.5 -91t89.5 -38q54 0 91.5 38t37.5 91q0 54 -37.5 91.5t-91.5 37.5q-53 0 -90 -37.5t-37 -91.5z" />
    <glyph glyph-name="Lslash" unicode="&#x141;" horiz-adv-x="1116" 
d="M1079 0h-915v559l-119 -53v219l119 55v721h256v-606l211 96v-219q-211 -94 -211 -96v-443h659v-233z" />
    <glyph glyph-name="lslash" unicode="&#x142;" horiz-adv-x="503" 
d="M465 711l-96 -49v-662h-234v547l-88 -45v219l88 45v735h234v-620l96 49v-219z" />
    <glyph glyph-name="Nacute" unicode="&#x143;" horiz-adv-x="1552" 
d="M1124 1788l-413 -182l-60 112l373 275zM1389 -23l-29 -6l-940 992v-963h-256v1522l41 8l928 -977v948h256v-1524z" />
    <glyph glyph-name="nacute" unicode="&#x144;" horiz-adv-x="1048" 
d="M881 1163l-414 -182l-59 113l372 274zM948 0h-233v541q0 83 -32 120t-101 37q-58 0 -119.5 -33.5t-112.5 -89.5v-575h-233v874h225v-145q159 162 324 162q140 0 211 -79.5t71 -213.5v-598z" />
    <glyph glyph-name="Ncommaaccent" unicode="&#x145;" horiz-adv-x="1552" 
d="M909 -285q0 -95 -68 -196t-179 -156l-25 39q110 94 141 213q-62 3 -98.5 40.5t-36.5 92.5q0 53 36.5 90t88.5 37q66 0 103.5 -46t37.5 -114zM1389 -23l-29 -6l-940 992v-963h-256v1522l41 8l928 -977v948h256v-1524z" />
    <glyph glyph-name="ncommaaccent" unicode="&#x146;" horiz-adv-x="1048" 
d="M666 -309q0 -95 -68.5 -196.5t-179.5 -156.5l-25 39q111 95 142 213q-62 3 -99 41t-37 93q0 53 36.5 89.5t88.5 36.5q66 0 104 -45.5t38 -113.5zM948 0h-233v541q0 83 -32 120t-101 37q-58 0 -119.5 -33.5t-112.5 -89.5v-575h-233v874h225v-145q159 162 324 162
q140 0 211 -79.5t71 -213.5v-598z" />
    <glyph glyph-name="Ncaron" unicode="&#x147;" horiz-adv-x="1552" 
d="M1120 1985l-305 -365h-90l-295 365h217l133 -175l131 175h209zM1389 -23l-29 -6l-940 992v-963h-256v1522l41 8l928 -977v948h256v-1524z" />
    <glyph glyph-name="ncaron" unicode="&#x148;" horiz-adv-x="1048" 
d="M877 1360l-306 -365h-90l-295 365h217l134 -174l131 174h209zM948 0h-233v541q0 83 -32 120t-101 37q-58 0 -119.5 -33.5t-112.5 -89.5v-575h-233v874h225v-145q159 162 324 162q140 0 211 -79.5t71 -213.5v-598z" />
    <glyph glyph-name="Omacron" unicode="&#x14c;" horiz-adv-x="1742" 
d="M1165 1671h-587v176h587v-176zM1630 750q0 -219 -100.5 -396.5t-276 -278t-389.5 -100.5q-160 0 -300 59t-239 161.5t-155.5 246.5t-56.5 308t59 308.5t161 247t244 161.5t302 59q214 0 386 -100.5t268.5 -278t96.5 -397.5zM1356 750q0 236 -136 391t-348 155
q-141 0 -252 -71t-172 -195.5t-61 -279.5q0 -236 136 -391.5t349 -155.5q212 0 348 156t136 391z" />
    <glyph glyph-name="omacron" unicode="&#x14d;" horiz-adv-x="1071" 
d="M829 1032h-587v176h587v-176zM987 438q0 -192 -125 -323t-330 -131q-138 0 -243.5 62t-160 164.5t-54.5 227.5t54.5 227t160 164t243.5 62q205 0 330 -130.5t125 -322.5zM758 438q0 126 -61.5 200.5t-164.5 74.5q-104 0 -165.5 -74.5t-61.5 -200.5q0 -127 61.5 -201.5
t165.5 -74.5q103 0 164.5 74.5t61.5 201.5z" />
    <glyph glyph-name="Obreve" unicode="&#x14e;" horiz-adv-x="1742" 
d="M1630 750q0 -219 -100.5 -396.5t-276 -278t-389.5 -100.5q-160 0 -300 59t-239 161.5t-155.5 246.5t-56.5 308t59 308.5t161 247t244 161.5t302 59q214 0 386 -100.5t268.5 -278t96.5 -397.5zM1356 750q0 236 -136 391t-348 155q-141 0 -252 -71t-172 -195.5t-61 -279.5
q0 -236 136 -391.5t349 -155.5q212 0 348 156t136 391zM1163 1921q0 -120 -79.5 -201.5t-213.5 -81.5q-132 0 -211 81.5t-79 201.5l180 14q0 -67 28.5 -104t81.5 -37q54 0 83.5 37t29.5 104z" />
    <glyph glyph-name="obreve" unicode="&#x14f;" horiz-adv-x="1071" 
d="M987 438q0 -192 -125 -323t-330 -131q-138 0 -243.5 62t-160 164.5t-54.5 227.5t54.5 227t160 164t243.5 62q205 0 330 -130.5t125 -322.5zM758 438q0 126 -61.5 200.5t-164.5 74.5q-104 0 -165.5 -74.5t-61.5 -200.5q0 -127 61.5 -201.5t165.5 -74.5q103 0 164.5 74.5
t61.5 201.5zM827 1282q0 -120 -79 -201.5t-213 -81.5q-132 0 -211.5 81.5t-79.5 201.5l180 14q0 -67 29 -104t82 -37q54 0 83 36.5t29 104.5z" />
    <glyph glyph-name="Ohungarumlaut" unicode="&#x150;" horiz-adv-x="1742" 
d="M1016 1952l-297 -318l-86 76l229 373zM1341 1931l-301 -315l-86 78l232 368zM1630 750q0 -219 -100.5 -396.5t-276 -278t-389.5 -100.5q-160 0 -300 59t-239 161.5t-155.5 246.5t-56.5 308t59 308.5t161 247t244 161.5t302 59q214 0 386 -100.5t268.5 -278t96.5 -397.5z
M1356 750q0 236 -136 391t-348 155q-141 0 -252 -71t-172 -195.5t-61 -279.5q0 -236 136 -391.5t349 -155.5q212 0 348 156t136 391z" />
    <glyph glyph-name="ohungarumlaut" unicode="&#x151;" horiz-adv-x="1071" 
d="M680 1313l-297 -318l-86 76l229 373zM1006 1292l-301 -315l-87 78l232 368zM987 438q0 -192 -125 -323t-330 -131q-138 0 -243.5 62t-160 164.5t-54.5 227.5t54.5 227t160 164t243.5 62q205 0 330 -130.5t125 -322.5zM758 438q0 126 -61.5 200.5t-164.5 74.5
q-104 0 -165.5 -74.5t-61.5 -200.5q0 -127 61.5 -201.5t165.5 -74.5q103 0 164.5 74.5t61.5 201.5z" />
    <glyph glyph-name="OE" unicode="&#x152;" horiz-adv-x="2203" 
d="M2066 0h-802q-135 -12 -275 -12q-207 0 -375 60t-276.5 163t-166.5 237.5t-58 286.5q0 161 56 300.5t161.5 246t271.5 168t373 61.5q127 0 274 -10h817v-233h-657v-394h594v-225h-594v-416h657v-233zM1153 227v1047q-76 12 -215 12q-263 0 -407 -151t-144 -400
q0 -234 154 -377t417 -143q116 0 195 12z" />
    <glyph glyph-name="oe" unicode="&#x153;" horiz-adv-x="1648" 
d="M1597 471q0 -57 -6 -104h-606q13 -97 77 -149t195 -52q102 0 252 47l29 -180q-176 -49 -299 -49q-250 0 -373 163q-126 -163 -340 -163q-133 0 -237.5 62t-159.5 165t-55 227t55 227t159.5 164.5t237.5 61.5q109 0 197 -44.5t147 -123.5q118 168 334 168
q184 0 288.5 -119t104.5 -301zM1391 512q-8 91 -59.5 144t-139.5 53q-86 0 -138.5 -51.5t-64.5 -145.5h402zM758 438q0 126 -62 200.5t-166 74.5q-103 0 -164 -74.5t-61 -200.5q0 -127 61 -201.5t164 -74.5q105 0 166.5 74.5t61.5 201.5z" />
    <glyph glyph-name="Racute" unicode="&#x154;" horiz-adv-x="1296" 
d="M991 1802l-413 -182l-60 113l373 274zM1276 0h-297l-328 541q-27 -2 -80 -2q-51 0 -149 4v-543h-256v1487q204 24 395 24q156 0 275.5 -36t192.5 -101t110 -149.5t37 -186.5q0 -146 -76.5 -259t-216.5 -175zM905 1026q0 116 -82.5 186t-228.5 70q-111 0 -172 -12v-512
q63 -8 147 -8q165 0 250.5 72.5t85.5 203.5z" />
    <glyph glyph-name="racute" unicode="&#x155;" horiz-adv-x="684" 
d="M725 1163l-414 -182l-59 113l373 274zM653 662q-226 23 -303 -87v-575h-233v874h225v-143q62 83 136.5 121.5t174.5 38.5v-229z" />
    <glyph glyph-name="Rcommaaccent" unicode="&#x156;" horiz-adv-x="1296" 
d="M776 -285q0 -95 -68.5 -196t-179.5 -156l-24 39q110 94 141 213q-62 3 -98.5 40.5t-36.5 92.5q0 53 36.5 90t88.5 37q66 0 103.5 -46t37.5 -114zM1276 0h-297l-328 541q-27 -2 -80 -2q-51 0 -149 4v-543h-256v1487q204 24 395 24q156 0 275.5 -36t192.5 -101t110 -149.5
t37 -186.5q0 -146 -76.5 -259t-216.5 -175zM905 1026q0 116 -82.5 186t-228.5 70q-111 0 -172 -12v-512q63 -8 147 -8q165 0 250.5 72.5t85.5 203.5z" />
    <glyph glyph-name="rcommaaccent" unicode="&#x157;" horiz-adv-x="684" 
d="M375 -309q0 -95 -68.5 -196.5t-179.5 -156.5l-25 39q111 95 142 213q-62 3 -98.5 41t-36.5 93q0 53 36 89.5t88 36.5q66 0 104 -45.5t38 -113.5zM653 662q-226 23 -303 -87v-575h-233v874h225v-143q62 83 136.5 121.5t174.5 38.5v-229z" />
    <glyph glyph-name="Rcaron" unicode="&#x158;" horiz-adv-x="1296" 
d="M987 1999l-305 -365h-90l-295 365h217l133 -174l131 174h209zM1276 0h-297l-328 541q-27 -2 -80 -2q-51 0 -149 4v-543h-256v1487q204 24 395 24q156 0 275.5 -36t192.5 -101t110 -149.5t37 -186.5q0 -146 -76.5 -259t-216.5 -175zM905 1026q0 116 -82.5 186t-228.5 70
q-111 0 -172 -12v-512q63 -8 147 -8q165 0 250.5 72.5t85.5 203.5z" />
    <glyph glyph-name="rcaron" unicode="&#x159;" horiz-adv-x="684" 
d="M721 1360l-305 -365h-90l-295 365h217l133 -174l131 174h209zM653 662q-226 23 -303 -87v-575h-233v874h225v-143q62 83 136.5 121.5t174.5 38.5v-229z" />
    <glyph glyph-name="Sacute" unicode="&#x15a;" horiz-adv-x="1099" 
d="M918 1802l-414 -182l-60 113l373 274zM1018 424q0 -91 -34.5 -172.5t-97 -143t-157 -97.5t-207.5 -36q-123 0 -245.5 40t-225.5 108l88 229q90 -65 192.5 -102t198.5 -37q112 0 170 56.5t58 140.5q0 56 -20.5 95t-83 82.5t-179.5 92.5q-191 81 -273.5 184t-82.5 242
q0 82 33.5 157.5t95 134t156 93.5t208.5 35q104 0 205.5 -31t171.5 -78l-82 -225q-65 45 -147 75.5t-154 30.5q-113 0 -172 -53t-59 -133q0 -73 58.5 -126t201.5 -116q218 -94 300.5 -194t82.5 -252z" />
    <glyph glyph-name="sacute" unicode="&#x15b;" horiz-adv-x="790" 
d="M766 1163l-414 -182l-59 113l373 274zM731 262q0 -120 -96 -199t-242 -79q-186 0 -346 114l90 166q59 -46 128 -74t124 -28q125 0 125 90q0 32 -31 56t-77 37.5t-100 35t-100 46.5t-77 73.5t-31 113.5q0 120 93 198.5t241 78.5q145 0 287 -82l-72 -170q-125 76 -225 76
q-56 0 -85.5 -23t-29.5 -59q0 -30 31.5 -52.5t78.5 -36.5t102 -36t102 -49t78.5 -78t31.5 -119z" />
    <glyph glyph-name="Scedilla" unicode="&#x15e;" horiz-adv-x="1099" 
d="M766 -301q0 -89 -61 -149t-173 -60q-113 0 -245 78l57 125q109 -68 195 -68q73 0 73 70q0 37 -46 63t-150 29l-8 18l45 175q-216 18 -402 143l88 229q90 -65 192.5 -102t198.5 -37q112 0 170 56.5t58 140.5q0 56 -20.5 95t-83 82.5t-179.5 92.5q-191 81 -273.5 184
t-82.5 242q0 82 33.5 157.5t95 134t156 93.5t208.5 35q104 0 205.5 -31t171.5 -78l-82 -225q-65 45 -147 75.5t-154 30.5q-113 0 -172 -53t-59 -133q0 -73 58.5 -126t201.5 -116q218 -94 300.5 -194t82.5 -252q0 -179 -123.5 -307t-331.5 -140l-16 -71q219 -52 219 -207z
" />
    <glyph glyph-name="scedilla" unicode="&#x15f;" horiz-adv-x="790" 
d="M616 -301q0 -89 -60.5 -149t-172.5 -60q-114 0 -246 78l58 125q109 -68 194 -68q35 0 54.5 18t19.5 52q0 37 -46.5 63t-150.5 29l-8 18l49 185q-138 20 -260 108l90 166q59 -46 128 -74t124 -28q125 0 125 90q0 32 -31 56t-77 37.5t-100 35t-100 46.5t-77 73.5t-31 113.5
q0 120 93 198.5t241 78.5q145 0 287 -82l-72 -170q-125 76 -225 76q-56 0 -85.5 -23t-29.5 -59q0 -30 31.5 -52.5t78.5 -36.5t102 -36t102 -49t78.5 -78t31.5 -119q0 -115 -89 -192.5t-226 -83.5l-19 -80q219 -52 219 -207z" />
    <glyph glyph-name="Scaron" unicode="&#x160;" horiz-adv-x="1099" 
d="M913 1999l-305 -365h-90l-295 365h217l133 -174l132 174h208zM1018 424q0 -91 -34.5 -172.5t-97 -143t-157 -97.5t-207.5 -36q-123 0 -245.5 40t-225.5 108l88 229q90 -65 192.5 -102t198.5 -37q112 0 170 56.5t58 140.5q0 56 -20.5 95t-83 82.5t-179.5 92.5
q-191 81 -273.5 184t-82.5 242q0 82 33.5 157.5t95 134t156 93.5t208.5 35q104 0 205.5 -31t171.5 -78l-82 -225q-65 45 -147 75.5t-154 30.5q-113 0 -172 -53t-59 -133q0 -73 58.5 -126t201.5 -116q218 -94 300.5 -194t82.5 -252z" />
    <glyph glyph-name="scaron" unicode="&#x161;" horiz-adv-x="790" 
d="M762 1360l-305 -365h-90l-295 365h217l133 -174l131 174h209zM731 262q0 -120 -96 -199t-242 -79q-186 0 -346 114l90 166q59 -46 128 -74t124 -28q125 0 125 90q0 32 -31 56t-77 37.5t-100 35t-100 46.5t-77 73.5t-31 113.5q0 120 93 198.5t241 78.5q145 0 287 -82
l-72 -170q-125 76 -225 76q-56 0 -85.5 -23t-29.5 -59q0 -30 31.5 -52.5t78.5 -36.5t102 -36t102 -49t78.5 -78t31.5 -119z" />
    <glyph glyph-name="Tcommaaccent" unicode="&#x162;" horiz-adv-x="1310" 
d="M788 -309q0 -96 -68 -197t-179 -156l-25 39q110 94 141 213q-62 3 -98.5 41t-36.5 93q0 53 36.5 89.5t88.5 36.5q66 0 103.5 -45.5t37.5 -113.5zM1260 1268h-476v-1268h-256v1268h-477v233h1209v-233z" />
    <glyph glyph-name="tcommaaccent" unicode="&#x163;" horiz-adv-x="694" 
d="M524 -309q0 -95 -68.5 -196.5t-179.5 -156.5l-24 39q110 94 141 213q-62 3 -98.5 41t-36.5 93q0 53 36.5 89.5t88.5 36.5q66 0 103.5 -45.5t37.5 -113.5zM657 686h-243v-401q0 -57 25.5 -82t78.5 -25q28 0 76 10l43 -180q-113 -24 -186 -24q-130 0 -199.5 73t-69.5 240
v389h-166v31l166 166v141l232 145v-295h243v-188z" />
    <glyph glyph-name="Tcaron" unicode="&#x164;" horiz-adv-x="1310" 
d="M999 1999l-305 -365h-90l-295 365h217l133 -174l132 174h208zM1260 1268h-476v-1268h-256v1268h-477v233h1209v-233z" />
    <glyph glyph-name="tcaron" unicode="&#x165;" horiz-adv-x="694" 
d="M600 1425l184 -34q0 -250 -198 -396l-105 68q111 131 119 362zM657 686h-243v-401q0 -57 25.5 -82t78.5 -25q28 0 76 10l43 -180q-113 -24 -186 -24q-130 0 -199.5 73t-69.5 240v389h-166v31l166 166v141l232 145v-295h243v-188z" />
    <glyph glyph-name="Umacron" unicode="&#x16a;" horiz-adv-x="1492" 
d="M1348 575q0 -284 -162.5 -442t-442.5 -158q-283 0 -439.5 155t-156.5 445v926h256v-907q0 -191 90 -288t255 -97q164 0 254 98t90 287v907h256v-926zM1042 1657h-587v176h587v-176z" />
    <glyph glyph-name="umacron" unicode="&#x16b;" horiz-adv-x="1046" 
d="M940 0h-225v135q-68 -68 -152 -109.5t-166 -41.5q-141 0 -214.5 79.5t-73.5 212.5v598h233v-540q0 -156 139 -156q121 0 226 115v581h233v-874zM817 1032h-588v176h588v-176z" />
    <glyph glyph-name="Ubreve" unicode="&#x16c;" horiz-adv-x="1492" 
d="M1348 575q0 -284 -162.5 -442t-442.5 -158q-283 0 -439.5 155t-156.5 445v926h256v-907q0 -191 90 -288t255 -97q164 0 254 98t90 287v907h256v-926zM1040 1907q0 -120 -79 -201.5t-213 -81.5q-132 0 -211.5 81.5t-79.5 201.5l180 14q0 -67 29 -104t82 -37q54 0 83 36.5
t29 104.5z" />
    <glyph glyph-name="ubreve" unicode="&#x16d;" horiz-adv-x="1046" 
d="M940 0h-225v135q-68 -68 -152 -109.5t-166 -41.5q-141 0 -214.5 79.5t-73.5 212.5v598h233v-540q0 -156 139 -156q121 0 226 115v581h233v-874zM815 1282q0 -120 -79.5 -201.5t-213.5 -81.5q-132 0 -211.5 81.5t-79.5 201.5l181 14q0 -67 28.5 -104t81.5 -37
q54 0 83.5 37t29.5 104z" />
    <glyph glyph-name="Uring" unicode="&#x16e;" horiz-adv-x="1492" 
d="M989 1855q0 -98 -67.5 -165.5t-173.5 -67.5t-174 68t-68 165q0 96 68 165t174 69t173.5 -68.5t67.5 -165.5zM850 1855q0 51 -29.5 84t-72.5 33q-44 0 -73.5 -32.5t-29.5 -84.5q0 -51 29.5 -83.5t73.5 -32.5t73 32t29 84zM1348 575q0 -284 -162.5 -442t-442.5 -158
q-283 0 -439.5 155t-156.5 445v926h256v-907q0 -191 90 -288t255 -97q164 0 254 98t90 287v907h256v-926z" />
    <glyph glyph-name="uring" unicode="&#x16f;" horiz-adv-x="1046" 
d="M766 1231q0 -98 -68 -166t-174 -68t-173.5 68t-67.5 166q0 96 67.5 164.5t173.5 68.5t174 -68.5t68 -164.5zM627 1231q0 50 -30 83.5t-73 33.5t-72.5 -32.5t-29.5 -84.5t29.5 -84.5t72.5 -32.5q44 0 73.5 32.5t29.5 84.5zM940 0h-225v135q-68 -68 -152 -109.5t-166 -41.5
q-141 0 -214.5 79.5t-73.5 212.5v598h233v-540q0 -156 139 -156q121 0 226 115v581h233v-874z" />
    <glyph glyph-name="Uhungarumlaut" unicode="&#x170;" horiz-adv-x="1492" 
d="M1348 575q0 -284 -162.5 -442t-442.5 -158q-283 0 -439.5 155t-156.5 445v926h256v-907q0 -191 90 -288t255 -97q164 0 254 98t90 287v907h256v-926zM893 1937l-297 -317l-86 76l229 372zM1219 1917l-301 -315l-87 77l232 369z" />
    <glyph glyph-name="uhungarumlaut" unicode="&#x171;" horiz-adv-x="1046" 
d="M940 0h-225v135q-68 -68 -152 -109.5t-166 -41.5q-141 0 -214.5 79.5t-73.5 212.5v598h233v-540q0 -156 139 -156q121 0 226 115v581h233v-874zM670 1313l-297 -318l-86 76l229 373zM995 1292l-301 -315l-86 78l232 368z" />
    <glyph glyph-name="Uogonek" unicode="&#x172;" horiz-adv-x="1492" 
d="M1348 575q0 -258 -135.5 -413t-372.5 -180q-111 -138 -111 -220q0 -35 18.5 -54t49.5 -19q47 0 96 49l65 -92q-88 -98 -210 -101q-85 0 -136 50.5t-49 130.5q0 62 30 119t95 132q-258 14 -399.5 168t-141.5 430v926h256v-907q0 -191 90 -288t255 -97q164 0 254 98t90 287
v907h256v-926z" />
    <glyph glyph-name="uogonek" unicode="&#x173;" horiz-adv-x="1046" 
d="M940 0h-82q-61 -75 -89 -128t-28 -99q0 -35 18.5 -54.5t49.5 -19.5q47 0 96 49l66 -92q-87 -97 -211 -100q-86 0 -136.5 50t-48.5 130q0 64 33 124t107 142v133q-68 -68 -152 -109.5t-166 -41.5q-141 0 -214.5 79.5t-73.5 212.5v598h233v-540q0 -156 139 -156
q121 0 226 115v581h233v-874z" />
    <glyph glyph-name="Wcircumflex" unicode="&#x174;" horiz-adv-x="1984" 
d="M1337 1649h-219l-133 172l-131 -172h-207l303 362h92zM1974 1501l-475 -1526l-41 -4l-467 1045l-461 -1045l-38 4l-482 1526h283l270 -946l418 958h29l420 -952l266 940h278z" />
    <glyph glyph-name="wcircumflex" unicode="&#x175;" horiz-adv-x="1300" 
d="M997 1010h-219l-133 172l-131 -172h-207l303 362h92zM1303 874l-338 -897h-41l-269 533l-270 -533h-41l-340 897h258l146 -491l225 494h41l231 -494l142 491h256z" />
    <glyph glyph-name="Ycircumflex" unicode="&#x176;" horiz-adv-x="1374" 
d="M1343 1501l-528 -870v-631h-256v633l-528 868h293l368 -635l365 635h286zM1032 1634h-219l-133 172l-131 -172h-207l303 363h92z" />
    <glyph glyph-name="ycircumflex" unicode="&#x177;" horiz-adv-x="944" 
d="M948 874l-618 -1316h-232l267 530l-369 786h258l223 -555l219 555h252zM817 1010h-219l-133 172l-131 -172h-207l303 362h92z" />
    <glyph glyph-name="Ydieresis" unicode="&#x178;" horiz-adv-x="1374" 
d="M1343 1501l-528 -870v-631h-256v633l-528 868h293l368 -635l365 635h286zM1001 1765q0 -53 -37.5 -91t-89.5 -38q-54 0 -91.5 38t-37.5 91q0 54 37.5 91.5t91.5 37.5q53 0 90 -37.5t37 -91.5zM629 1765q0 -53 -37.5 -91t-91.5 -38q-52 0 -90.5 38t-38.5 91q0 54 38 91.5
t91 37.5q54 0 91.5 -37.5t37.5 -91.5z" />
    <glyph glyph-name="Zacute" unicode="&#x179;" horiz-adv-x="1331" 
d="M1014 1802l-414 -182l-59 113l372 274zM1270 1470l-797 -1237h778v-233h-1179l-11 31l797 1237h-743v233h1145z" />
    <glyph glyph-name="zacute" unicode="&#x17a;" horiz-adv-x="868" 
d="M788 1163l-413 -182l-60 113l373 274zM829 844l-458 -651h448v-193h-774l-10 31l457 651h-418v192h745z" />
    <glyph glyph-name="Zdotaccent" unicode="&#x17b;" horiz-adv-x="1331" 
d="M1270 1470l-797 -1237h778v-233h-1179l-11 31l797 1237h-743v233h1145zM537 1780q0 54 37 91.5t90 37.5q54 0 91.5 -37.5t37.5 -91.5q0 -53 -37.5 -91t-91.5 -38q-52 0 -89.5 38t-37.5 91z" />
    <glyph glyph-name="zdotaccent" unicode="&#x17c;" horiz-adv-x="868" 
d="M829 844l-458 -651h448v-193h-774l-10 31l457 651h-418v192h745zM311 1141q0 54 37 91.5t90 37.5q54 0 91.5 -37.5t37.5 -91.5q0 -53 -37.5 -91t-91.5 -38q-52 0 -89.5 38t-37.5 91z" />
    <glyph glyph-name="Zcaron" unicode="&#x17d;" horiz-adv-x="1331" 
d="M1010 1999l-305 -365h-91l-295 365h218l133 -174l131 174h209zM1270 1470l-797 -1237h778v-233h-1179l-11 31l797 1237h-743v233h1145z" />
    <glyph glyph-name="zcaron" unicode="&#x17e;" horiz-adv-x="868" 
d="M784 1360l-305 -365h-90l-295 365h217l133 -174l131 174h209zM829 844l-458 -651h448v-193h-774l-10 31l457 651h-418v192h745z" />
    <glyph glyph-name="florin" unicode="&#x192;" horiz-adv-x="860" 
d="M821 1188l-30 -207q-42 10 -82 10q-91 0 -135 -49.5t-58 -163.5l-8 -78h190v-188h-213l-59 -512h-229q4 32 10 85t18.5 165.5t21 187t7.5 74.5h-166v14l191 185l6 59q52 434 409 434q72 0 127 -16z" />
    <glyph glyph-name="Aringacute" unicode="&#x1fa;" horiz-adv-x="1406" 
d="M1044 2144l-413 -182l-60 113l373 274zM944 1661q0 -85 -49.5 -147.5t-134.5 -79.5l653 -1434h-270l-146 344h-594l-145 -344h-264l651 1434q-84 18 -133 81t-49 146q0 97 66.5 165t172.5 68q107 0 174.5 -68t67.5 -165zM913 547l-213 502l-213 -502h426zM807 1661
q0 51 -30 84t-75 33q-43 0 -71.5 -32.5t-28.5 -84.5t28.5 -84.5t71.5 -32.5q45 0 75 32.5t30 84.5z" />
    <glyph glyph-name="aringacute" unicode="&#x1fb;" 
d="M844 0h-221v84q-105 -100 -254 -100q-132 0 -220 74t-88 202q0 119 87.5 195.5t230.5 76.5q73 0 125 -14t110 -41v37q0 100 -52.5 147.5t-158.5 47.5q-91 0 -217 -37l-26 174q144 45 280 45q204 0 304 -96t100 -289v-506zM614 219v109q-48 32 -86.5 45.5t-93.5 13.5
q-67 0 -110 -34t-43 -91q0 -60 41 -93.5t116 -33.5q108 0 176 84zM819 1722l-413 -182l-60 113l373 274zM719 1231q0 -98 -68 -166t-174 -68t-173.5 68t-67.5 166q0 96 67.5 164.5t173.5 68.5t174 -68.5t68 -164.5zM580 1231q0 50 -30 83.5t-73 33.5t-72.5 -32.5
t-29.5 -84.5t29.5 -84.5t72.5 -32.5q44 0 73.5 32.5t29.5 84.5z" />
    <glyph glyph-name="AEacute" unicode="&#x1fc;" horiz-adv-x="2082" 
d="M1710 1802l-414 -182l-59 113l373 274zM1946 0h-914v369h-502l-249 -369h-293l1044 1501h914v-233h-658v-394h594v-225h-594v-416h658v-233zM1032 580v544l-364 -544h364z" />
    <glyph glyph-name="aeacute" unicode="&#x1fd;" horiz-adv-x="1515" 
d="M1114 1163l-414 -182l-59 113l373 274zM616 475v39q0 100 -53 147.5t-160 47.5q-87 0 -217 -37l-26 174q144 45 276 45q235 0 322 -139q119 139 305 139q185 0 289 -119t104 -301q0 -57 -6 -104h-606q14 -98 78.5 -149.5t195.5 -51.5q102 0 252 47l29 -180
q-176 -49 -299 -49q-245 0 -373 168q-139 -168 -344 -168q-141 0 -231.5 73.5t-90.5 202.5q0 118 87.5 195t228.5 77q125 0 239 -57zM1249 512q-6 91 -57 144t-139 53q-86 0 -138.5 -51.5t-64.5 -145.5h399zM643 297q-35 44 -90.5 70t-122.5 26q-66 0 -107.5 -34t-41.5 -93
q0 -60 41.5 -92.5t115.5 -32.5q64 0 121.5 39t83.5 117z" />
    <glyph glyph-name="Oslashacute" unicode="&#x1fe;" horiz-adv-x="1742" 
d="M1630 750q0 -219 -100.5 -396.5t-276 -278t-389.5 -100.5q-273 0 -475 162l-149 -149l-140 141l156 152q-143 205 -143 469q0 164 59 308.5t161 247t244 161.5t302 59q275 0 475 -164l149 149l139 -137l-155 -153q143 -201 143 -471zM1356 750q0 151 -68 278
q-717 -715 -717 -717q127 -108 301 -108q212 0 348 156t136 391zM1171 1188q-123 108 -299 108q-141 0 -252 -71t-172 -195.5t-61 -279.5q0 -154 68 -277zM1221 1802l-414 -182l-59 113l372 274z" />
    <glyph glyph-name="oslashacute" unicode="&#x1ff;" horiz-adv-x="1071" 
d="M999 807l-98 -94q86 -115 86 -275q0 -193 -125 -323.5t-330 -130.5q-168 0 -292 94l-99 -94l-80 79l101 97q-88 120 -88 278q0 193 125.5 323t332.5 130q178 0 293 -98l97 94zM324 313l358 342q-58 58 -150 58q-106 0 -167.5 -73t-61.5 -202q0 -70 21 -125zM739 557
l-356 -342q59 -53 149 -53q105 0 165.5 73t60.5 203q0 64 -19 119zM885 1163l-414 -182l-59 113l372 274z" />
    <glyph glyph-name="Scommaaccent" unicode="&#x218;" horiz-adv-x="1099" 
d="M672 -309q0 -95 -68.5 -196.5t-179.5 -156.5l-25 39q111 95 142 213q-62 3 -98.5 41t-36.5 93q0 53 36 89.5t88 36.5q66 0 104 -45.5t38 -113.5zM1018 424q0 -91 -34.5 -172.5t-97 -143t-157 -97.5t-207.5 -36q-123 0 -245.5 40t-225.5 108l88 229q90 -65 192.5 -102
t198.5 -37q112 0 170 56.5t58 140.5q0 56 -20.5 95t-83 82.5t-179.5 92.5q-191 81 -273.5 184t-82.5 242q0 82 33.5 157.5t95 134t156 93.5t208.5 35q104 0 205.5 -31t171.5 -78l-82 -225q-65 45 -147 75.5t-154 30.5q-113 0 -172 -53t-59 -133q0 -73 58.5 -126t201.5 -116
q218 -94 300.5 -194t82.5 -252z" />
    <glyph glyph-name="scommaaccent" unicode="&#x219;" horiz-adv-x="790" 
d="M535 -309q0 -95 -68.5 -196.5t-179.5 -156.5l-25 39q110 94 141 213q-62 3 -98.5 41t-36.5 93q0 53 36.5 89.5t88.5 36.5q66 0 104 -45.5t38 -113.5zM731 262q0 -120 -96 -199t-242 -79q-186 0 -346 114l90 166q59 -46 128 -74t124 -28q125 0 125 90q0 32 -31 56
t-77 37.5t-100 35t-100 46.5t-77 73.5t-31 113.5q0 120 93 198.5t241 78.5q145 0 287 -82l-72 -170q-125 76 -225 76q-56 0 -85.5 -23t-29.5 -59q0 -30 31.5 -52.5t78.5 -36.5t102 -36t102 -49t78.5 -78t31.5 -119z" />
    <glyph glyph-name="circumflex" unicode="&#x2c6;" horiz-adv-x="962" 
d="M834 1010h-220l-133 172l-131 -172h-207l303 362h93z" />
    <glyph glyph-name="caron" unicode="&#x2c7;" horiz-adv-x="962" 
d="M821 1360l-305 -365h-90l-295 365h217l133 -174l131 174h209z" />
    <glyph glyph-name="breve" unicode="&#x2d8;" horiz-adv-x="962" 
d="M774 1282q0 -120 -79.5 -201.5t-213.5 -81.5q-132 0 -211.5 81.5t-79.5 201.5l181 14q0 -67 28.5 -104t81.5 -37q54 0 83.5 37t29.5 104z" />
    <glyph glyph-name="dotaccent" unicode="&#x2d9;" horiz-adv-x="901" 
d="M324 1141q0 54 37 91.5t90 37.5q54 0 91.5 -37.5t37.5 -91.5q0 -53 -37.5 -91t-91.5 -38q-52 0 -89.5 38t-37.5 91z" />
    <glyph glyph-name="ring" unicode="&#x2da;" horiz-adv-x="962" 
d="M723 1231q0 -98 -68 -166t-174 -68t-173.5 68t-67.5 166q0 96 67.5 164.5t173.5 68.5t174 -68.5t68 -164.5zM584 1231q0 50 -30 83.5t-73 33.5t-72.5 -32.5t-29.5 -84.5t29.5 -84.5t72.5 -32.5q44 0 73.5 32.5t29.5 84.5z" />
    <glyph glyph-name="ogonek" unicode="&#x2db;" horiz-adv-x="962" 
d="M702 -354q-88 -98 -210 -101q-85 0 -136 50.5t-49 130.5q0 79 48.5 151.5t170.5 198.5l84 -62q-72 -89 -104.5 -146.5t-32.5 -105.5q0 -35 18.5 -54t49.5 -19q47 0 96 49z" />
    <glyph glyph-name="tilde" unicode="&#x2dc;" horiz-adv-x="962" 
d="M831 1135q-45 -55 -104 -88t-115 -33q-68 0 -135 39q-63 39 -117 39q-73 0 -139 -78l-82 131q44 56 103 88.5t116 32.5q69 0 136 -39q59 -37 112 -37q71 0 137 78z" />
    <glyph glyph-name="hungarumlaut" unicode="&#x2dd;" horiz-adv-x="962" 
d="M541 1313l-297 -318l-86 76l229 373zM866 1292l-301 -315l-86 78l232 368z" />
    <glyph glyph-name="Wgrave" unicode="&#x1e80;" horiz-adv-x="1984" 
d="M1974 1501l-475 -1526l-41 -4l-467 1045l-461 -1045l-38 4l-482 1526h283l270 -946l418 958h29l420 -952l266 940h278zM1108 1729l-68 -109l-417 186l108 199z" />
    <glyph glyph-name="wgrave" unicode="&#x1e81;" horiz-adv-x="1300" 
d="M1303 874l-338 -897h-41l-269 533l-270 -533h-41l-340 897h258l146 -491l225 494h41l231 -494l142 491h256zM768 1090l-68 -109l-417 186l108 199z" />
    <glyph glyph-name="Wacute" unicode="&#x1e82;" horiz-adv-x="1984" 
d="M1341 1802l-413 -182l-60 113l373 274zM1974 1501l-475 -1526l-41 -4l-467 1045l-461 -1045l-38 4l-482 1526h283l270 -946l418 958h29l420 -952l266 940h278z" />
    <glyph glyph-name="wacute" unicode="&#x1e83;" horiz-adv-x="1300" 
d="M1001 1163l-413 -182l-60 113l373 274zM1303 874l-338 -897h-41l-269 533l-270 -533h-41l-340 897h258l146 -491l225 494h41l231 -494l142 491h256z" />
    <glyph glyph-name="Wdieresis" unicode="&#x1e84;" horiz-adv-x="1984" 
d="M1307 1780q0 -53 -37.5 -91t-89.5 -38q-54 0 -91.5 38t-37.5 91q0 54 37.5 91.5t91.5 37.5q53 0 90 -37.5t37 -91.5zM934 1780q0 -53 -37.5 -91t-91.5 -38q-53 0 -91 38.5t-38 90.5q0 54 38 91.5t91 37.5q54 0 91.5 -37.5t37.5 -91.5zM1974 1501l-475 -1526l-41 -4
l-467 1045l-461 -1045l-38 4l-482 1526h283l270 -946l418 958h29l420 -952l266 940h278z" />
    <glyph glyph-name="wdieresis" unicode="&#x1e85;" horiz-adv-x="1300" 
d="M967 1141q0 -53 -37.5 -91t-89.5 -38q-54 0 -91.5 38t-37.5 91q0 54 37.5 91.5t91.5 37.5q53 0 90 -37.5t37 -91.5zM594 1141q0 -53 -37.5 -91t-91.5 -38q-53 0 -91 38t-38 91q0 54 38 91.5t91 37.5q54 0 91.5 -37.5t37.5 -91.5zM1303 874l-338 -897h-41l-269 533
l-270 -533h-41l-340 897h258l146 -491l225 494h41l231 -494l142 491h256z" />
    <glyph glyph-name="Ygrave" unicode="&#x1ef2;" horiz-adv-x="1374" 
d="M1343 1501l-528 -870v-631h-256v633l-528 868h293l368 -635l365 635h286zM801 1714l-68 -108l-418 186l109 199z" />
    <glyph glyph-name="ygrave" unicode="&#x1ef3;" horiz-adv-x="944" 
d="M948 874l-618 -1316h-232l267 530l-369 786h258l223 -555l219 555h252zM588 1090l-68 -109l-418 186l109 199z" />
    <glyph glyph-name="enspace" unicode="&#x2002;" horiz-adv-x="1024" 
 />
    <glyph glyph-name="emspace" unicode="&#x2003;" horiz-adv-x="2048" 
 />
    <glyph glyph-name="threeperemspace" unicode="&#x2004;" horiz-adv-x="681" 
 />
    <glyph glyph-name="fourperemspace" unicode="&#x2005;" horiz-adv-x="512" 
 />
    <glyph glyph-name="figurespace" unicode="&#x2007;" horiz-adv-x="1064" 
 />
    <glyph glyph-name="thinspace" unicode="&#x2009;" horiz-adv-x="272" 
 />
    <glyph glyph-name="hairspace" unicode="&#x200a;" horiz-adv-x="153" 
 />
    <glyph glyph-name="endash" unicode="&#x2013;" horiz-adv-x="1024" 
d="M922 422h-820v158h820v-158z" />
    <glyph glyph-name="emdash" unicode="&#x2014;" horiz-adv-x="1536" 
d="M1434 422h-1332v158h1332v-158z" />
    <glyph glyph-name="quoteleft" unicode="&#x2018;" horiz-adv-x="393" 
d="M317 1182q0 -49 -35 -84t-85 -35q-61 0 -97.5 42t-36.5 105q0 89 62 178.5t168 145.5l22 -37q-92 -80 -127 -190q57 -3 93 -39t36 -86z" />
    <glyph glyph-name="quoteright" unicode="&#x2019;" horiz-adv-x="393" 
d="M330 1378q0 -88 -61.5 -177.5t-166.5 -145.5l-24 37q92 80 127 190q-57 3 -92 38.5t-35 86.5q0 49 35 84t84 35q62 0 97.5 -42t35.5 -106z" />
    <glyph glyph-name="quotesinglbase" unicode="&#x201a;" horiz-adv-x="442" 
d="M352 100q0 -90 -61 -179.5t-166 -145.5l-25 37q93 81 127 192q-57 3 -92 37.5t-35 85.5q0 50 35 85.5t84 35.5q62 0 97.5 -42t35.5 -106z" />
    <glyph glyph-name="quotedblleft" unicode="&#x201c;" horiz-adv-x="724" 
d="M647 1182q0 -50 -34.5 -84.5t-84.5 -34.5q-62 0 -97.5 41.5t-35.5 105.5q0 88 61.5 178t166.5 146l24 -37q-92 -80 -127 -190q57 -3 92 -38.5t35 -86.5zM317 1182q0 -49 -35 -84t-85 -35q-61 0 -97.5 42t-36.5 105q0 89 62 178.5t168 145.5l22 -37q-92 -80 -127 -190
q57 -3 93 -39t36 -86z" />
    <glyph glyph-name="quotedblright" unicode="&#x201d;" horiz-adv-x="724" 
d="M662 1378q0 -89 -62 -178t-168 -145l-22 37q92 80 127 190q-57 3 -93 38.5t-36 86.5q0 49 35 84t85 35q61 0 97.5 -42.5t36.5 -105.5zM330 1378q0 -88 -61.5 -177.5t-166.5 -145.5l-24 37q92 80 127 190q-57 3 -92 38.5t-35 86.5q0 49 35 84t84 35q62 0 97.5 -42
t35.5 -106z" />
    <glyph glyph-name="quotedblbase" unicode="&#x201e;" horiz-adv-x="774" 
d="M682 98q0 -89 -60.5 -178.5t-166.5 -144.5l-23 37q93 81 127 192q-58 3 -93.5 38t-35.5 85q0 49 36 85t85 36q61 0 96 -42.5t35 -107.5zM352 98q0 -89 -61 -178t-166 -145l-25 37q93 81 127 192q-57 3 -92 37.5t-35 85.5q0 50 35 85.5t84 35.5q63 0 98 -42.5t35 -107.5z
" />
    <glyph glyph-name="dagger" unicode="&#x2020;" horiz-adv-x="942" 
d="M877 971h-295v-670h-211v670h-303v194h303v336h211v-336h295v-194z" />
    <glyph glyph-name="daggerdbl" unicode="&#x2021;" horiz-adv-x="942" 
d="M887 580h-305v-279h-211v279h-293v196h293v252h-303v195h303v278h211v-278h295v-195h-295v-252h305v-196z" />
    <glyph glyph-name="bullet" unicode="&#x2022;" horiz-adv-x="882" 
d="M772 750q0 -139 -96.5 -237.5t-233.5 -98.5q-138 0 -234.5 98t-96.5 238q0 141 96.5 239t234.5 98q137 0 233.5 -98t96.5 -239z" />
    <glyph glyph-name="ellipsis" unicode="&#x2026;" horiz-adv-x="1579" 
d="M141 119q0 55 38.5 94t94.5 39t95 -39t39 -94q0 -57 -39 -96t-95 -39t-94.5 39t-38.5 96zM657 119q0 55 39 94t95 39q55 0 94 -39t39 -94q0 -57 -38.5 -96t-94.5 -39t-95 39t-39 96zM1174 119q0 55 39 94t94 39t94 -39t39 -94q0 -57 -38.5 -96t-94.5 -39t-94.5 39
t-38.5 96z" />
    <glyph glyph-name="perthousand" unicode="&#x2030;" horiz-adv-x="2068" 
d="M483 907q0 78 -28 125t-80 47q-51 0 -80 -47.5t-29 -124.5t29 -124.5t80 -47.5q52 0 80 47t28 125zM647 907q0 -129 -73.5 -219t-200.5 -90q-125 0 -198 90t-73 219t74 218t201 89t198.5 -88.5t71.5 -218.5zM1262 1141l-971 -1178l-107 90l971 1176zM1180 289
q0 78 -28.5 125t-80.5 47t-80 -47t-28 -125t28 -126t80 -48t80.5 48t28.5 126zM1343 289q0 -129 -73.5 -219t-200.5 -90q-126 0 -197 89.5t-71 219.5q0 128 73 217.5t199 89.5t198 -89t72 -218zM1802 289q0 78 -27.5 125t-78.5 47q-52 0 -80.5 -47t-28.5 -125t28.5 -126
t80.5 -48q51 0 78.5 48t27.5 126zM1966 289q0 -129 -73.5 -219t-198.5 -90q-127 0 -199 89.5t-72 219.5q0 128 74 217.5t201 89.5q125 0 196.5 -89.5t71.5 -217.5z" />
    <glyph glyph-name="guilsinglleft" unicode="&#x2039;" horiz-adv-x="620" 
d="M530 18h-217l-215 336l215 334h217l-223 -334z" />
    <glyph glyph-name="guilsinglright" unicode="&#x203a;" horiz-adv-x="620" 
d="M522 354l-215 -336h-217l223 336l-223 334h217z" />
    <glyph glyph-name="fraction" unicode="&#x2044;" horiz-adv-x="1183" 
d="M1128 1141l-970 -1178l-105 90l971 1176z" />
    <glyph glyph-name="Euro" unicode="&#x20ac;" horiz-adv-x="1329" 
d="M188 662h-131v153h166q66 181 227.5 291.5t378.5 110.5q205 0 388 -113l-82 -180q-159 88 -312 88q-127 0 -218 -51.5t-138 -145.5h516v-153h-561q-4 -40 -4 -68q0 -26 4 -66h561v-151h-512q48 -92 142 -144.5t221 -52.5q157 0 313 90l74 -180q-82 -51 -185.5 -83
t-206.5 -32q-220 0 -382 110t-226 292h-164v151h131q-2 20 -2 66q0 48 2 68z" />
    <glyph glyph-name="published" unicode="&#x2117;" horiz-adv-x="1724" 
d="M1014 872q0 54 -38.5 89.5t-107.5 35.5q-32 0 -73 -6v-248q25 -2 61 -2q78 0 118 35t40 96zM1171 874q0 -120 -80.5 -193t-226.5 -73q-12 0 -34 1t-35 1v-237h-154v755q156 13 203 13q156 0 241.5 -75t85.5 -192zM1622 750q0 -158 -60 -301.5t-162 -247t-242.5 -165
t-295.5 -61.5t-295.5 61.5t-242.5 165t-162 247t-60 301.5t60 301.5t162 247.5t242.5 165.5t295.5 61.5t295.5 -61.5t242.5 -165.5t162 -247.5t60 -301.5zM1485 750q0 178 -83.5 329t-227 238.5t-312.5 87.5q-127 0 -242 -52t-198.5 -139.5t-132.5 -209t-49 -254.5
q0 -177 83 -327.5t226.5 -238.5t312.5 -88t312.5 88t227 238.5t83.5 327.5z" />
    <glyph glyph-name="servicemark" unicode="&#x2120;" horiz-adv-x="968" 
d="M53 1085l33 91q62 -41 121 -41q53 0 53 41q0 20 -16 32.5t-68 36.5q-55 25 -80.5 57t-25.5 78q0 58 42 93.5t115 35.5q76 0 131 -34l-28 -91q-59 35 -101 35q-53 0 -53 -37q0 -19 16.5 -31.5t69.5 -35.5q107 -45 107 -135q0 -59 -43 -99.5t-119 -40.5q-89 0 -154 45z
M915 1047h-100l-6 223l-125 -160h-12l-127 160l-4 -223h-103l23 458h14l205 -258l201 258h14z" />
    <glyph glyph-name="trademark" unicode="&#x2122;" horiz-adv-x="1030" 
d="M977 1047h-100l-7 223l-125 -160h-12l-127 160l-4 -223h-102l22 458h15l204 -258l201 258h14zM430 1399h-135v-352h-111v352h-135v102h381v-102z" />
    <glyph glyph-name="arrowleft" unicode="&#x2190;" horiz-adv-x="1449" 
d="M1348 455h-934l303 -265l-129 -141l-520 486v26l520 486l129 -142l-303 -264h934v-186z" />
    <glyph glyph-name="arrowright" unicode="&#x2192;" horiz-adv-x="1449" 
d="M102 641h934l-301 264l129 142l520 -486v-26l-520 -486l-129 141l301 265h-934v186z" />
    <glyph glyph-name="minus" unicode="&#x2212;" 
d="M123 502v178h694v-178h-694z" />
    <glyph glyph-name="G.alt" horiz-adv-x="1689" 
d="M858 772h766q9 -177 -42.5 -327.5t-149 -253t-235.5 -159.5t-298 -57q-214 0 -392.5 96t-286 274.5t-107.5 404.5q0 170 65 317.5t174.5 246.5t253.5 155.5t301 56.5t283 -39.5t252 -116.5l-115 -205q-200 125 -407 125q-124 0 -226 -42.5t-168.5 -115.5t-102.5 -171
t-36 -211q0 -156 69 -282t187 -195.5t260 -69.5q187 0 306.5 98t148.5 248h-500v223z" />
    <glyph glyph-name="M.alt" horiz-adv-x="1808" 
d="M1665 0h-252l-20 932l-473 -668h-31l-477 666l-17 -930h-252l64 1520l39 4l665 -926l650 926l41 -4z" />
    <glyph glyph-name="schwa" horiz-adv-x="974" 
d="M59 403q0 69 7 105h606q-29 201 -273 201q-104 0 -254 -47l-28 180q179 49 305 49q120 0 213 -35.5t150 -97.5t86.5 -142.5t29.5 -175.5q0 -121 -50 -223t-152.5 -167.5t-239.5 -65.5q-190 0 -295 118.5t-105 300.5zM668 362h-402q8 -91 59.5 -143.5t137.5 -52.5
t139.5 51t65.5 145z" />
    <glyph glyph-name="zero.lin" horiz-adv-x="1441" 
d="M1331 750q0 -161 -41.5 -301.5t-118 -246t-193.5 -166.5t-259 -61q-143 0 -259.5 61t-192 166.5t-116 246t-40.5 301.5t41.5 301.5t117.5 246.5t193 167t260 61q115 0 213 -39.5t170 -111t123 -168.5t76.5 -213t25.5 -244zM1053 750q0 259 -90 406t-242 147
q-153 0 -241.5 -146.5t-88.5 -406.5q0 -259 89.5 -406t242.5 -147t241.5 146.5t88.5 406.5z" />
    <glyph glyph-name="one.lin" horiz-adv-x="903" 
d="M662 0h-256v1235l-259 -90l-71 198l504 185h82v-1528z" />
    <glyph glyph-name="two.lin" horiz-adv-x="1187" 
d="M1069 0h-993l-6 129q274 269 469 489q223 264 223 447q0 99 -66 166t-190 67q-155 0 -311 -106l-93 207q201 127 428 127q237 0 368.5 -123.5t131.5 -317.5q0 -111 -59 -230.5t-170 -260.5q-20 -25 -46.5 -56t-46 -53t-60 -65t-54.5 -58t-66 -69.5t-61 -63.5h602v-229z
" />
    <glyph glyph-name="three.lin" horiz-adv-x="1165" 
d="M1053 471q0 -100 -39 -190t-109.5 -158t-176 -108t-230.5 -40q-191 0 -408 70l70 209q168 -57 319 -57q139 0 223 73.5t84 182.5q0 100 -88.5 165.5t-246.5 65.5q-77 0 -189 -22l-51 118l473 492h-571v229h938l6 -149l-475 -473q218 -10 344.5 -119.5t126.5 -288.5z" />
    <glyph glyph-name="four.lin" horiz-adv-x="1290" 
d="M1227 371h-215v-371h-254v371h-701v159l799 996h156v-938h215v-217zM758 588v495l-400 -495h400z" />
    <glyph glyph-name="five.lin" horiz-adv-x="1222" 
d="M1100 475q0 -216 -158.5 -358t-423.5 -142q-196 0 -397 68l59 217q158 -63 318 -63q163 0 251.5 70t88.5 186q0 114 -91 192t-260 78q-59 0 -144.5 -10t-137.5 -25l-23 27v786h854v-229h-598v-342q98 8 140 8q252 0 387 -130t135 -333z" />
    <glyph glyph-name="six.lin" horiz-adv-x="1271" 
d="M1169 489q0 -97 -35.5 -188.5t-100.5 -165t-167 -118t-225 -44.5q-236 0 -382 153.5t-146 389.5q0 635 839 1047l115 -207q-201 -88 -375.5 -221.5t-253.5 -268.5q53 43 125 67.5t142 24.5q106 0 194.5 -38.5t147 -103t90.5 -149.5t32 -178zM909 477q0 123 -72 206
t-188 83q-121 0 -196.5 -79.5t-75.5 -205.5q0 -123 77 -209t193 -86q118 0 190 85t72 206z" />
    <glyph glyph-name="seven.lin" horiz-adv-x="1153" 
d="M1128 1501l-647 -1501h-274l569 1268h-684v233h1036z" />
    <glyph glyph-name="eight.lin" horiz-adv-x="1224" 
d="M1122 397q0 -178 -141.5 -300t-370.5 -122q-228 0 -369 122t-141 300q0 121 62.5 216.5t179.5 144.5q-99 52 -152 143t-53 203q0 181 130 301.5t343 120.5t344 -119.5t131 -300.5q0 -111 -55.5 -205t-150.5 -143q119 -50 181 -145t62 -216zM838 1069q0 104 -61 170
t-167 66q-105 0 -166 -66t-61 -170q0 -97 62.5 -158t164.5 -61t165 61t63 158zM858 434q0 102 -69 167t-179 65q-108 0 -174.5 -65t-66.5 -167q0 -100 67.5 -167.5t175.5 -67.5q111 0 178.5 67t67.5 168z" />
    <glyph glyph-name="nine.lin" horiz-adv-x="1284" 
d="M102 1012q0 98 36.5 189.5t103 164t170.5 116.5t229 44q159 0 281.5 -74t187 -198.5t64.5 -278.5q0 -168 -56.5 -316.5t-168 -276t-266 -236.5t-361.5 -209l-119 204q205 86 373 210t262 263q-46 -34 -117 -56.5t-150 -22.5q-204 0 -336.5 137t-132.5 340zM367 1022
q0 -126 74 -209.5t194 -83.5q123 0 195.5 82.5t72.5 206.5q0 122 -74.5 205.5t-189.5 83.5q-122 0 -197 -83.5t-75 -201.5z" />
    <glyph glyph-name="fraction.lin" horiz-adv-x="1443" 
d="M1382 1448l-1208 -1479l-113 97l1211 1476z" />
    <glyph glyph-name="ampersand.cap" horiz-adv-x="1501" 
d="M752 723q110 -132 282 -281q133 133 260 299l168 -137q-143 -181 -262 -303l217 -174l-155 -162q-115 91 -232 187q-237 -177 -448 -177q-138 0 -251 51t-180 148.5t-67 224.5q0 133 88.5 240.5t235.5 169.5q-99 156 -99 305q0 170 126.5 290t301.5 120q93 0 171.5 -32
t129 -84t78 -117.5t27.5 -133.5q0 -140 -100 -252t-291 -182zM862 297q-221 198 -342 350q-73 -33 -121.5 -93.5t-48.5 -135.5q0 -99 69 -163.5t183 -64.5q118 0 260 107zM637 877q124 42 196 112t72 156q0 75 -46 123.5t-120 48.5q-77 0 -127.5 -59.5t-50.5 -147.5
q0 -115 76 -233z" />
    <glyph glyph-name="guillemotleft.cap" horiz-adv-x="966" 
d="M885 424h-217l-215 336l215 334h217l-223 -334zM530 424h-217l-215 336l215 334h217l-223 -334z" />
    <glyph glyph-name="guillemotright.cap" horiz-adv-x="966" 
d="M870 760l-215 -336h-219l226 336l-226 334h219zM516 760l-215 -336h-219l225 336l-225 334h219z" />
    <glyph glyph-name="guilsinglleft.cap" horiz-adv-x="620" 
d="M530 424h-217l-215 336l215 334h217l-223 -334z" />
    <glyph glyph-name="guilsinglright.cap" horiz-adv-x="620" 
d="M522 760l-215 -336h-217l223 336l-223 334h217z" />
    <glyph glyph-name="hyphen.cap" horiz-adv-x="706" 
d="M608 670h-508v178h508v-178z" />
    <glyph glyph-name="endash.cap" horiz-adv-x="1024" 
d="M922 680h-820v158h820v-158z" />
    <glyph glyph-name="emdash.cap" horiz-adv-x="1536" 
d="M1434 680h-1332v158h1332v-158z" />
    <glyph glyph-name="slash.cap" horiz-adv-x="729" 
d="M700 1718l-487 -1943h-184l489 1943h182z" />
    <glyph glyph-name="backslash.cap" horiz-adv-x="729" 
d="M700 -225h-184l-487 1943h182z" />
    <glyph glyph-name="bar.cap" horiz-adv-x="546" 
d="M362 -225h-178v1943h178v-1943z" />
    <glyph glyph-name="parenleft.cap" horiz-adv-x="737" 
d="M754 -119l-107 -153q-264 167 -404.5 439t-140.5 578q0 308 140.5 580t404.5 438l107 -151q-223 -144 -336 -369.5t-113 -497.5q0 -270 113 -495t336 -369z" />
    <glyph glyph-name="parenright.cap" horiz-adv-x="737" 
d="M635 745q0 -201 -59 -388t-183.5 -352t-302.5 -277l-106 153q223 144 336.5 369t113.5 495q0 271 -113.5 497t-336.5 370l106 151q178 -111 302.5 -276t183.5 -352.5t59 -389.5z" />
    <glyph glyph-name="bracketleft.cap" horiz-adv-x="659" 
d="M614 -225h-452v1943h452v-178h-258v-1589h258v-176z" />
    <glyph glyph-name="bracketright.cap" horiz-adv-x="659" 
d="M500 -225h-453v176h256v1589h-256v178h453v-1943z" />
    <glyph glyph-name="braceleft.cap" horiz-adv-x="636" 
d="M612 -240q-188 0 -287.5 96t-99.5 277v397q0 70 -27.5 102t-99.5 32h-47v165h47q72 0 99.5 32t27.5 102v395q0 181 99.5 278t287.5 97v-191q-98 0 -143 -46t-45 -159v-360q0 -97 -31 -144.5t-119 -87.5q88 -40 119 -87t31 -144v-358q0 -114 45 -160.5t143 -46.5v-189z
" />
    <glyph glyph-name="braceright.cap" horiz-adv-x="636" 
d="M586 664h-47q-72 0 -99.5 -32t-27.5 -102v-397q0 -181 -98.5 -277t-288.5 -96v189q98 0 144 46.5t46 160.5v358q0 98 29.5 144.5t117.5 86.5q-87 40 -117 87.5t-30 144.5v360q0 112 -46 158.5t-144 46.5v191q189 0 288 -97t99 -278v-395q0 -70 27.5 -102t99.5 -32h47
v-165z" />
    <glyph glyph-name="at.cap" horiz-adv-x="1765" 
d="M1642 815q0 -121 -44 -222t-128 -163q-70 -53 -174 -53q-70 0 -127 32t-82 101q-102 -123 -249 -123q-105 0 -173.5 57.5t-68.5 153.5q0 94 65 151.5t179 57.5q94 0 180 -39v20q0 76 -37.5 112t-130.5 36q-73 0 -162 -29l-20 146q122 32 215 32q161 0 231 -74.5
t70 -226.5v-163q0 -61 34.5 -91t84.5 -30q60 0 92 28q46 34 75 108t29 161q0 83 -20 164t-66.5 161t-115 140t-175 97.5t-237.5 37.5q-125 0 -239.5 -51.5t-197.5 -138.5t-132.5 -207t-49.5 -252q0 -135 46 -251.5t132.5 -204.5t220 -138t298.5 -50q140 0 305 60l37 -127
q-206 -62 -349 -62q-150 0 -283 39.5t-233 110.5t-172.5 167.5t-109.5 212.5t-37 243q0 208 103.5 388t280 286t380.5 106q146 0 271 -42t212.5 -112.5t150 -163t92 -193t29.5 -202.5zM1020 582v65q-58 43 -129 43q-46 0 -79.5 -24.5t-33.5 -63.5q0 -40 30 -64t81 -24
q80 0 131 68z" />
    <glyph glyph-name="registered.alt" horiz-adv-x="1724" 
d="M862 -25q-155 0 -295.5 61.5t-242.5 165t-162 247t-60 301.5t60 301.5t162 247.5t242.5 165.5t295.5 61.5t295.5 -61.5t242.5 -165.5t162 -247.5t60 -301.5t-60 -301.5t-162 -247t-242.5 -165t-295.5 -61.5zM862 96q169 0 312.5 88t227 238.5t83.5 327.5q0 178 -83.5 329
t-227 238.5t-312.5 87.5q-127 0 -242 -52t-198.5 -139.5t-132.5 -209t-49 -254.5q0 -177 83 -327.5t226.5 -238.5t312.5 -88zM612 373v755q136 13 211 13q162 0 243 -69t81 -179q0 -70 -37.5 -128.5t-103.5 -92.5l190 -299h-176l-148 260h-36q-45 0 -70 2v-262h-154z
M766 997v-235q46 -4 65 -4q72 0 113 34t41 95q0 53 -38 85t-103 32q-34 0 -78 -7z" />
    <glyph glyph-name="dollar.lin" horiz-adv-x="1116" 
d="M578 1710l145 -6l-16 -182q164 -23 303 -113l-103 -207q-99 68 -223 92l-39 -422q214 -96 297.5 -194t83.5 -248q0 -183 -125.5 -312t-337.5 -141l-16 -188l-144 6l17 189q-203 27 -377 145l104 211q138 -97 293 -121l41 455q-6 0 -10 4q-198 83 -278 179.5t-80 248.5
q0 77 30.5 149t86 130t141.5 96t190 45zM764 410q0 62 -31.5 106t-116.5 92l-32 -393q88 13 134 67.5t46 127.5zM371 1118q0 -58 32 -99t107 -81l31 358q-83 -14 -126.5 -63t-43.5 -115z" />
    <glyph glyph-name="sterling.lin" horiz-adv-x="1234" 
d="M1149 0h-1049v217h193v426h-180v31l180 168v186q0 226 124.5 362t366.5 136q98 0 189 -30.5t160 -82.5l-105 -213q-124 92 -250 92q-114 0 -175.5 -71t-61.5 -205v-168h348v-205h-348v-426h608v-217z" />
    <glyph glyph-name="Euro.lin" horiz-adv-x="1585" 
d="M254 840h-172v159h203q73 235 274 381t483 146q249 0 476 -135l-99 -193q-189 111 -385 111q-180 0 -306 -84t-187 -226h698v-159h-741q-9 -43 -9 -88q0 -43 7 -101h743v-162h-694q63 -134 192.5 -214t311.5 -80q184 0 387 116l88 -192q-229 -144 -490 -144
q-274 0 -472 141.5t-275 372.5h-205v162h172q-4 22 -4 97q0 71 4 92z" />
    <glyph glyph-name="yen.lin" horiz-adv-x="1443" 
d="M1384 1507q-29 -47 -76.5 -123.5t-148.5 -238.5t-167.5 -269.5t-65.5 -107.5h327v-174h-407v-166h407v-170h-407v-258h-246v258h-407v170h407v166h-407v174h329l-463 739h287l379 -657l381 657h278z" />
    <glyph glyph-name="cent.lin" horiz-adv-x="905" 
d="M420 160l12 159q-162 35 -260 154.5t-98 284.5q0 187 123 313t311 141l12 154l139 -6l-14 -152q115 -19 215 -82l-76 -165q-79 46 -153 59l-45 -524q96 3 207 65l67 -166q-139 -85 -289 -88l-12 -153zM297 760q0 -85 40.5 -148t111.5 -94l43 504q-90 -20 -142.5 -86
t-52.5 -176z" />
    <glyph glyph-name="numbersign.lin" horiz-adv-x="1599" 
d="M1483 924h-264l-76 -349h264l-47 -202h-262l-84 -373h-221l81 373h-313l-84 -373h-223l82 373h-264l47 202h262l76 349h-262l45 202h260l84 375h223l-82 -375h313l84 375h221l-79 -375h264zM672 928l-82 -357h338l78 357h-334z" />
    <glyph glyph-name="paragraph.lin" horiz-adv-x="1464" 
d="M1300 0h-208v1286q-51 8 -181 12v-1298h-209v399q-129 -2 -243.5 31.5t-203.5 97t-141.5 166t-52.5 230.5q0 130 55 240t157 189.5t256 124t343 44.5t428 -31v-1491zM702 627v657q-184 -21 -280 -115.5t-96 -238.5t106 -226t270 -77z" />
    <glyph glyph-name="section.lin" horiz-adv-x="1138" 
d="M1026 754q0 -137 -154 -230q99 -80 99 -207q0 -148 -117.5 -245t-314.5 -97q-240 0 -443 144l90 198q78 -55 178 -93t177 -38q83 0 127.5 31.5t44.5 83.5q0 36 -33 63t-85.5 46t-116.5 37.5t-128 43.5t-116.5 57t-85.5 85t-33 121q0 149 151 233q-92 72 -92 191
q0 151 118.5 249.5t305.5 98.5q96 0 196 -29.5t175 -75.5l-84 -200q-71 43 -151.5 70.5t-147.5 27.5q-74 0 -118 -31.5t-44 -81.5q0 -35 33 -61t86.5 -44.5t117.5 -37t128 -43.5t117.5 -57.5t86.5 -86t33 -122.5zM801 719q0 17 -5.5 32t-18 28t-25.5 24t-36 22t-41 19
t-49.5 18.5t-52.5 17t-58.5 17.5t-59.5 18q-53 -13 -83 -47.5t-30 -79.5q0 -17 5 -32.5t17.5 -28.5t25.5 -23.5t36 -21.5t41.5 -18.5t50 -17.5t53 -16.5t60 -17.5t61.5 -18q50 15 79.5 48.5t29.5 76.5z" />
    <glyph glyph-name="degree.lin" horiz-adv-x="800" 
d="M686 1247q0 -116 -79.5 -197t-205.5 -81t-206 81t-80 197q0 117 80 198t206 81t205.5 -81t79.5 -198zM532 1247q0 67 -37.5 109.5t-93.5 42.5q-58 0 -95.5 -42t-37.5 -110q0 -67 37.5 -108t95.5 -41q56 0 93.5 41.5t37.5 107.5z" />
    <glyph glyph-name="percent.lin" horiz-adv-x="1792" 
d="M795 1141q0 -161 -92 -273t-250 -112q-106 0 -184.5 54t-117 140.5t-38.5 190.5q0 162 91.5 273.5t250.5 111.5q107 0 185.5 -54t116.5 -140t38 -191zM612 1143q0 101 -39.5 165t-117.5 64q-77 0 -118.5 -64.5t-41.5 -164.5q0 -101 41 -165.5t119 -64.5q76 0 116.5 64.5
t40.5 165.5zM1548 1442l-1210 -1477l-109 94l1207 1477zM1665 362q0 -104 -39 -191t-118.5 -141.5t-186.5 -54.5q-157 0 -247.5 112.5t-90.5 274.5q0 105 38.5 191t117.5 140.5t186 54.5q106 0 184.5 -54.5t117 -141t38.5 -190.5zM1481 360q0 101 -40 165.5t-118 64.5
q-76 0 -118 -65t-42 -165q0 -101 41 -165t119 -64q76 0 117 64.5t41 164.5z" />
    <glyph glyph-name="perthousand.lin" horiz-adv-x="2566" 
d="M612 1143q0 101 -39.5 165t-117.5 64q-77 0 -118.5 -64.5t-41.5 -164.5q0 -101 41 -165.5t119 -64.5q76 0 116.5 64.5t40.5 165.5zM795 1141q0 -161 -92 -273t-250 -112q-106 0 -184.5 54t-117 140.5t-38.5 190.5q0 162 91.5 273.5t250.5 111.5q107 0 185.5 -54
t116.5 -140t38 -191zM1548 1442l-1210 -1477l-109 94l1207 1477zM1481 360q0 101 -40 165.5t-118 64.5q-76 0 -118 -65t-42 -165q0 -101 41 -165t119 -64q76 0 117 64.5t41 164.5zM1665 362q0 -104 -39 -191t-118.5 -141.5t-186.5 -54.5q-157 0 -247.5 112.5t-90.5 274.5
q0 105 38.5 191t117.5 140.5t186 54.5q106 0 184.5 -54.5t117 -141t38.5 -190.5zM2259 360q0 101 -40.5 165.5t-119.5 64.5q-75 0 -116 -65t-41 -165q0 -101 39.5 -165t117.5 -64q77 0 118.5 64.5t41.5 164.5zM2441 362q0 -105 -38.5 -191.5t-117.5 -141t-186 -54.5
t-185.5 54.5t-116.5 141t-38 191.5q0 104 39 191t118 141t185 54t184.5 -54.5t117 -141t38.5 -190.5z" />
    <glyph glyph-name="quotedbl.cap" horiz-adv-x="849" 
d="M469 1452l-303 -401l-100 67l225 451zM825 1432l-303 -404l-102 68l227 452z" />
    <glyph glyph-name="quotesingle.cap" horiz-adv-x="516" 
d="M469 1452l-303 -401l-100 67l225 451z" />
    <glyph glyph-name="plus.lin" 
d="M817 672h-254v-269h-186v269h-254v178h254v268h186v-268h254v-178z" />
    <glyph glyph-name="minus.lin" 
d="M123 672v178h694v-178h-694z" />
    <glyph glyph-name="divide.lin" 
d="M123 674v172h694v-172h-694zM352 1049q0 49 34.5 83.5t84.5 34.5q49 0 83 -34t34 -84q0 -48 -34 -82.5t-83 -34.5t-84 34.5t-35 82.5zM352 471q0 49 35 84t84 35t83 -34.5t34 -84.5t-34 -84.5t-83 -34.5t-84 35t-35 84z" />
    <glyph glyph-name="equal.lin" horiz-adv-x="882" 
d="M760 838h-637v174h637v-174zM760 510h-637v172h637v-172z" />
    <glyph glyph-name="multiply.lin" horiz-adv-x="919" 
d="M127 975l123 125l209 -215l211 215l125 -125l-213 -215l213 -215l-125 -123l-211 213l-209 -213l-123 123l211 215z" />
    <glyph glyph-name="less.lin" horiz-adv-x="806" 
d="M727 399l-133 -139l-516 498l516 499l133 -141l-379 -360z" />
    <glyph glyph-name="greater.lin" horiz-adv-x="806" 
d="M729 760l-514 -500l-135 143l379 359l-379 358l135 137z" />
    <glyph glyph-name="florin.lin" horiz-adv-x="1075" 
d="M1024 1495l-43 -219q-70 18 -109 18q-120 0 -184.5 -75.5t-83.5 -231.5l-14 -133h282v-207h-307l-76 -647h-245l75 647h-182l-2 19l207 186l16 143q30 255 156 390t346 135q97 0 164 -25z" />
    <glyph glyph-name="arrowleft.cap" horiz-adv-x="1449" 
d="M1348 666h-934l303 -265l-129 -141l-520 485v27l520 485l129 -141l-303 -264h934v-186z" />
    <glyph glyph-name="arrowright.cap" horiz-adv-x="1449" 
d="M102 852h934l-301 264l129 141l520 -485v-27l-520 -485l-129 141l301 265h-934v186z" />
    <glyph glyph-name="hfjslug" horiz-adv-x="1421" 
d="M1319 -410h-426l-16 29h-334l-17 -29h-424v621q28 0 47 18.5t19 46.5q0 27 -19.5 46.5t-46.5 19.5v1135h205l62 161h684l59 -161h207v-1887zM819 1153v-352h31v160h78v28h-78v135h88v29h-119zM377 1153v-352h31v162h96v-162h31v352h-31v-162h-96v162h-31zM942 807
q16 -8 43 -8q64 0 64 73v281h-33v-281q0 -45 -33 -45q-19 0 -41 13v-33zM715 897l-33 64q47 44 47 86q0 25 -14.5 44t-40.5 19q-25 0 -41.5 -19t-16.5 -44q0 -9 1 -16.5t4.5 -16.5t6 -13.5t9 -16.5t8.5 -17q-47 -38 -47 -93q0 -34 18 -56.5t46 -22.5q35 0 55 49h2l24 -49
l23 16l-33 61q22 54 27 80l-27 6q-5 -21 -18 -61zM1071 662v-95h16v27l15 14l33 -41h18l-39 54l37 41h-21l-43 -50v50h-16zM999 598l21 -31h18l-24 35q20 7 20 31q0 10 -9.5 19.5t-23.5 9.5h-43v-95h17v31h24zM872 565q23 0 36.5 14t13.5 35q0 19 -14.5 34.5t-35.5 15.5
t-34 -15t-13 -35q0 -21 13 -35t34 -14zM758 616l-27 46h-18l37 -60v-35h16v35l37 60h-19zM395 662v-95h68v15h-51v26h45v15h-45v24h51v15h-68zM270 662v-95h17v66l51 -66h14v95h-16v-66l-51 66h-15zM494 662l30 -97h17l20 70h2l23 -70h16l29 97h-17l-20 -72h-2l-21 72h-16
l-23 -72h-2l-20 72h-16zM670 981q-25 48 -25 66q0 15 8.5 26.5t20.5 11.5t19 -11t7 -27q0 -31 -30 -66zM700 866q-5 -16 -15.5 -29.5t-20.5 -13.5q-15 0 -25 16.5t-10 39.5q0 37 30 67zM999 612h-24v35h22q21 0 21 -16q0 -7 -6 -13t-13 -6zM872 580q-13 0 -21.5 10t-8.5 24
q0 13 8.5 24t21.5 11t23 -11t10 -24q0 -14 -10 -24t-23 -10z" />
    <glyph glyph-name="caron.alt" horiz-adv-x="436" 
d="M197 1513l184 -34q0 -249 -199 -396l-104 68q111 131 119 362z" />
    <glyph glyph-name="commaaccent" horiz-adv-x="387" 
d="M330 -309q0 -95 -68.5 -196.5t-179.5 -156.5l-25 39q111 95 142 213q-62 3 -99 41t-37 93q0 53 36.5 89.5t88.5 36.5q66 0 104 -45.5t38 -113.5z" />
    <glyph glyph-name="NUL" horiz-adv-x="0" 
 />
    </font>
</defs>
</svg>
