<?xml version="1.0" standalone="no"?>
<!DOCTYPE svg PUBLIC "-//W3C//DTD SVG 1.1//EN" "http://www.w3.org/Graphics/SVG/1.1/DTD/svg11.dtd" >
<svg xmlns="http://www.w3.org/2000/svg" xmlns:xlink="http://www.w3.org/1999/xlink" version="1.1">
<metadata>
Created by FontForge 20170731 at Tue Nov 28 03:01:41 2023
 By Aleksey,,,
Copyright (c) 2006 The Hoefler Type Foundry, Inc., dba Hoefler &#38; Frere-Jones. All Rights Reserved.
</metadata>
<defs>
<font id="Verlag-Light" horiz-adv-x="970" >
  <font-face 
    font-family="Verlag Light"
    font-weight="300"
    font-stretch="normal"
    units-per-em="2048"
    panose-1="0 0 0 0 0 0 0 0 0 0"
    ascent="1638"
    descent="-410"
    x-height="856"
    cap-height="1501"
    bbox="-150 -537 2251 2238"
    underline-thickness="102"
    underline-position="-307"
    unicode-range="U+0020-2212"
  />
<missing-glyph horiz-adv-x="1024" 
 />
    <glyph glyph-name="f_f_i" unicode="ffi" horiz-adv-x="1521" 
d="M629 1495l-21 -98q-44 16 -102 16q-103 0 -152 -61t-49 -201v-295h254v-100h-254v-756h-112v756h-144v26l144 80v275q0 188 78 282q80 97 225 97q82 0 133 -21zM1194 1495l-20 -98q-44 16 -101 16q-104 0 -153 -61q-50 -62 -50 -201v-295h254v-100h-254v-756h-112v756
h-142v26l142 80v275q0 187 79 282q80 97 226 97q80 0 131 -21zM1411 1174q0 -36 -23 -59t-59 -23q-35 0 -58 23q-24 24 -24 59t24 59t58 24q33 0 57 -24q25 -25 25 -59zM1386 0h-114v856h114v-856z" />
    <glyph glyph-name="f_f_l" unicode="ffl" horiz-adv-x="1525" 
d="M629 1495l-21 -98q-44 16 -102 16q-103 0 -152 -61t-49 -201v-295h254v-100h-254v-756h-112v756h-144v26l144 80v275q0 188 78 282q80 97 225 97q82 0 133 -21zM1194 1495l-20 -98q-44 16 -101 16q-104 0 -153 -61q-50 -62 -50 -201v-295h254v-100h-254v-756h-112v756
h-142v26l142 80v275q0 187 79 282q80 97 226 97q80 0 131 -21zM1386 0h-114v1501h114v-1501z" />
    <glyph glyph-name="f_f" unicode="ff" horiz-adv-x="1132" 
d="M629 1495l-21 -98q-44 16 -102 16q-103 0 -152 -61t-49 -201v-295h254v-100h-254v-756h-112v756h-144v26l144 80v275q0 188 78 282q80 97 225 97q82 0 133 -21zM1194 1495l-20 -98q-44 16 -101 16q-104 0 -153 -61q-50 -62 -50 -201v-295h254v-100h-254v-756h-112v756
h-142v26l142 80v275q0 187 79 282q80 97 226 97q80 0 131 -21z" />
    <glyph glyph-name="fi" unicode="fi" horiz-adv-x="954" 
d="M844 1174q0 -35 -24 -59q-23 -23 -58 -23q-34 0 -57 23q-25 25 -25 59t25 59q24 24 57 24q34 0 58 -24t24 -59zM629 1495l-21 -98q-44 16 -102 16q-103 0 -152 -61t-49 -201v-295h254v-100h-254v-756h-112v756h-144v26l144 80v275q0 188 78 282q80 97 225 97
q82 0 133 -21zM819 0h-112v856h112v-856z" />
    <glyph glyph-name="fl" unicode="fl" horiz-adv-x="958" 
d="M629 1495l-21 -98q-44 16 -102 16q-103 0 -152 -61t-49 -201v-295h254v-100h-254v-756h-112v756h-144v26l144 80v275q0 188 78 282q80 97 225 97q82 0 133 -21zM819 0h-112v1501h112v-1501z" />
    <glyph glyph-name=".notdef" horiz-adv-x="1024" 
 />
    <glyph glyph-name=".null" horiz-adv-x="0" 
 />
    <glyph glyph-name="nonmarkingreturn" horiz-adv-x="681" 
 />
    <glyph glyph-name="space" unicode=" " horiz-adv-x="438" 
 />
    <glyph glyph-name="exclam" unicode="!" horiz-adv-x="415" 
d="M270 1501l-18 -1128h-88l-17 1128h123zM299 74q0 -40 -27 -65q-26 -25 -63 -25q-38 0 -64 25t-26 65q0 37 26 62q28 26 64 26q35 0 63 -26q27 -26 27 -62z" />
    <glyph glyph-name="quotedbl" unicode="&#x22;" horiz-adv-x="729" 
d="M399 1317l-237 -344l-64 41l189 372zM672 1294l-240 -344l-65 41l190 375z" />
    <glyph glyph-name="numbersign" unicode="#" horiz-adv-x="1153" 
d="M1110 854l-18 -92h-228l-78 -344h230l-21 -92h-229l-72 -326h-104l74 326h-291l-72 -326h-104l73 326h-227l20 92h228l76 344h-228l21 92h227l74 328h104l-73 -328h288l74 328h102l-71 -328h225zM760 762h-289l-78 -344h291z" />
    <glyph glyph-name="dollar" unicode="$" horiz-adv-x="878" 
d="M461 1331l90 -8l-10 -127q116 -15 223 -84l-51 -90q-79 58 -181 76l-36 -457q150 -68 220 -140q68 -69 68 -188q0 -140 -97 -231q-99 -93 -243 -100l-10 -136l-90 7l10 131q-146 17 -295 114l58 92q116 -88 245 -106l39 481q-143 62 -212 133q-70 71 -70 187
q0 127 92 216q93 89 240 97zM674 305q0 78 -48 129q-46 49 -139 94l-34 -448q96 11 158 68q63 58 63 157zM227 893q0 -125 183 -213l32 420q-105 -10 -160 -68t-55 -139z" />
    <glyph glyph-name="percent" unicode="%" horiz-adv-x="1314" 
d="M596 901q0 -124 -68 -212q-67 -87 -184 -87q-115 0 -181 87q-67 88 -67 212q0 127 68 213t182 86q117 0 183 -86q67 -87 67 -213zM1167 1159l-954 -1192l-66 56l955 1191zM1219 281q0 -124 -68 -212q-67 -87 -182 -87q-117 0 -183 86q-65 84 -65 213q0 127 66 213t184 86
q115 0 181 -86q67 -87 67 -213zM502 901q0 92 -41 154q-40 61 -115 61q-74 0 -116 -61q-42 -62 -42 -154q0 -89 42 -151t116 -62t115 62t41 151zM1126 281q0 91 -41 153t-116 62q-74 0 -115 -62t-41 -153q0 -90 41 -152q40 -61 115 -61q76 0 116 61q41 62 41 152z" />
    <glyph glyph-name="ampersand" unicode="&#x26;" horiz-adv-x="1218" 
d="M1063 573l80 -57q-145 -194 -230 -285q136 -120 213 -184l-67 -78q-103 84 -219 191q-191 -176 -379 -176q-157 0 -258 86t-101 233q0 221 287 344q-92 145 -92 252q0 125 88 212t203 87q123 0 195 -76q73 -78 73 -172q0 -219 -309 -342q99 -132 295 -311q86 87 221 276z
M752 942q0 68 -46 117t-120 49q-73 0 -126 -59q-54 -60 -54 -146q0 -87 86 -223q142 56 201 120t59 142zM768 223q-226 216 -328 348q-225 -85 -225 -270q0 -98 70 -160q68 -61 180 -61q142 0 303 143z" />
    <glyph glyph-name="quotesingle" unicode="'" horiz-adv-x="456" 
d="M399 1317l-237 -344l-64 41l189 372z" />
    <glyph glyph-name="parenleft" unicode="(" horiz-adv-x="686" 
d="M696 -381l-49 -86q-260 157 -402 428q-141 269 -141 567q0 299 141 568t402 430l51 -84q-232 -141 -359 -387q-128 -247 -128 -527t128 -524t357 -385z" />
    <glyph glyph-name="parenright" unicode=")" horiz-adv-x="686" 
d="M582 528q0 -298 -141 -567q-142 -271 -402 -428l-51 86q231 141 359 385t128 524t-128 527q-127 246 -359 387l51 84q261 -161 402 -430t141 -568z" />
    <glyph glyph-name="asterisk" unicode="*" horiz-adv-x="755" 
d="M688 1257l-248 -75l158 -201l-72 -51l-147 209l-148 -209l-71 51l155 201l-247 75l28 84l244 -86l-8 254h92l-8 -254l246 86z" />
    <glyph glyph-name="plus" unicode="+" horiz-adv-x="942" 
d="M819 524h-295v-309h-106v309h-295v101h295v309h106v-309h295v-101z" />
    <glyph glyph-name="comma" unicode="," horiz-adv-x="372" 
d="M283 47q0 -75 -53 -155q-52 -78 -130 -125l-22 26q96 89 117 193q-45 5 -70 30q-27 27 -27 62t26 59q27 25 60 25q44 0 71 -32q28 -33 28 -83z" />
    <glyph glyph-name="hyphen" unicode="-" horiz-adv-x="694" 
d="M592 446h-490v101h490v-101z" />
    <glyph glyph-name="period" unicode="." horiz-adv-x="372" 
d="M98 74q0 36 26 62t62 26q39 0 65 -26q25 -25 25 -62q0 -40 -25 -65t-65 -25q-37 0 -62 25q-26 26 -26 65z" />
    <glyph glyph-name="slash" unicode="/" horiz-adv-x="653" 
d="M651 1501l-487 -1943h-107l490 1943h104z" />
    <glyph glyph-name="zero" unicode="0" horiz-adv-x="1069" 
d="M983 590q0 -261 -121 -434q-122 -174 -327 -174q-209 0 -327 174q-118 173 -118 434q0 260 120 435t329 175q206 0 325 -174q119 -175 119 -436zM864 590q0 221 -85 366q-86 146 -242 146q-158 0 -244 -146t-86 -366q0 -219 86 -364q85 -144 244 -144q157 0 242 144
q85 143 85 364z" />
    <glyph glyph-name="one" unicode="1" horiz-adv-x="681" 
d="M436 0h-112v1057l-209 -74l-35 98l338 125h18v-1206z" />
    <glyph glyph-name="two" unicode="2" horiz-adv-x="892" 
d="M784 0h-745l-8 18q321 337 436 480q96 116 136 191q44 82 44 167q0 108 -69 174t-189 66q-140 0 -270 -86l-33 94q147 96 301 96q173 0 275 -93t102 -241q0 -97 -49 -191q-50 -96 -152 -220q-166 -193 -321 -353h542v-102z" />
    <glyph glyph-name="three" unicode="3" horiz-adv-x="864" 
d="M793 1161l-431 -491q16 2 31 2q169 -12 272 -104q101 -91 101 -236q0 -154 -111 -253t-288 -99q-143 0 -301 55l32 96q153 -51 262 -51q136 0 215 70q78 69 78 184q0 117 -88 183q-90 67 -239 67q-69 0 -142 -13l-12 19l428 487h-530v103h712z" />
    <glyph glyph-name="four" unicode="4" horiz-adv-x="974" 
d="M930 354h-197v-356h-106v356h-590v29l665 819h31v-747h197v-101zM627 455v503l-410 -503h410z" />
    <glyph glyph-name="five" unicode="5" horiz-adv-x="937" 
d="M827 360q0 -164 -110 -271t-293 -107q-144 0 -305 59l33 94q136 -53 266 -53q138 0 218 77q79 76 79 199q0 116 -80 185q-79 69 -225 69q-130 0 -228 -26l-14 16v580h608v-103h-500v-374q54 10 136 10q199 0 307 -99t108 -256z" />
    <glyph glyph-name="six" unicode="6" horiz-adv-x="976" 
d="M877 381q0 -162 -109 -282q-107 -117 -281 -117q-173 0 -280 117q-109 120 -109 302q0 230 156 442q157 213 487 380l50 -88q-427 -212 -541 -514q98 120 268 120q152 0 255 -102q104 -102 104 -258zM766 367q0 129 -76 206q-76 78 -196 78q-128 0 -204 -78
q-77 -79 -77 -198q0 -127 78 -211t196 -84q121 0 200 82t79 205z" />
    <glyph glyph-name="seven" unicode="7" horiz-adv-x="833" 
d="M795 1182l-527 -1182h-110l485 1079h-598v103h750z" />
    <glyph glyph-name="eight" unicode="8" horiz-adv-x="950" 
d="M836 315q0 -140 -103 -237q-102 -96 -260 -96q-157 0 -258 96q-100 96 -100 237q0 97 55 174t147 115q-180 86 -180 277q0 136 95 228q94 91 241 91q150 0 244 -91t94 -228q0 -191 -180 -277q94 -37 149 -115q56 -79 56 -174zM702 879q0 95 -63 161t-166 66
q-101 0 -164 -66t-63 -161q0 -97 63 -163q64 -67 164 -67q102 0 166 67q63 66 63 163zM723 317q0 102 -72 171t-178 69q-107 0 -176 -69q-70 -70 -70 -171q0 -103 70 -173q68 -68 176 -68q110 0 179 68q71 69 71 173z" />
    <glyph glyph-name="nine" unicode="9" horiz-adv-x="962" 
d="M870 782q0 -230 -154 -442t-487 -381l-49 88q414 205 537 510q-95 -111 -250 -111t-262 102t-107 259q0 165 111 279t278 114q174 0 279 -117q104 -116 104 -301zM756 815q0 128 -76 208q-76 81 -195 81q-120 0 -197 -80t-77 -203q0 -128 74 -205q72 -75 196 -75
q125 0 200 76q75 77 75 198z" />
    <glyph glyph-name="colon" unicode=":" horiz-adv-x="372" 
d="M98 74q0 36 26 62t62 26q39 0 65 -26q25 -25 25 -62q0 -40 -25 -65t-65 -25q-37 0 -62 25q-26 26 -26 65zM96 662q0 36 27 63t63 27q37 0 64 -27q26 -26 26 -63q0 -38 -26 -63q-28 -26 -64 -26q-35 0 -63 26q-27 25 -27 63z" />
    <glyph glyph-name="semicolon" unicode=";" horiz-adv-x="372" 
d="M283 47q0 -75 -53 -155q-52 -78 -130 -125l-22 26q96 89 117 193q-45 5 -70 30q-27 27 -27 62t26 59q27 25 60 25q44 0 71 -32q28 -33 28 -83zM96 662q0 36 27 63t63 27q37 0 64 -27q26 -26 26 -63q0 -38 -26 -63q-28 -26 -64 -26q-35 0 -63 26q-27 25 -27 63z" />
    <glyph glyph-name="less" unicode="&#x3c;" horiz-adv-x="780" 
d="M700 150l-69 -72l-563 497l563 500l69 -76l-479 -426z" />
    <glyph glyph-name="equal" unicode="=" horiz-adv-x="825" 
d="M702 668h-579v102h579v-102zM702 379h-579v100h579v-100z" />
    <glyph glyph-name="greater" unicode="&#x3e;" horiz-adv-x="780" 
d="M713 578l-563 -500l-70 76l479 426l-479 424l70 71z" />
    <glyph glyph-name="question" unicode="?" horiz-adv-x="786" 
d="M735 1176q0 -84 -41 -155q-41 -72 -98 -121q-42 -36 -115 -96q-57 -47 -98 -104q-41 -58 -41 -120v-164h-106q-1 182 0 186q0 73 39 134q41 64 96 110l111 93q58 47 97 105t39 127q0 110 -73 174t-209 64q-118 0 -260 -70l-31 101q161 76 299 76q186 0 290 -96
q101 -94 101 -244zM379 74q0 -40 -27 -65q-26 -25 -63 -25q-38 0 -64 25t-26 65q0 37 26 62q28 26 64 26q35 0 63 -26q27 -26 27 -62z" />
    <glyph glyph-name="at" unicode="@" horiz-adv-x="1400" 
d="M1300 641q0 -197 -116 -295q-65 -55 -146 -55q-120 0 -170 102q-90 -96 -198 -96q-83 0 -138 46t-55 128q0 71 54 118q53 46 143 46q81 0 160 -41v31q0 145 -150 145q-62 0 -139 -27l-17 78q86 33 168 33q236 0 236 -233v-123q0 -66 31 -97q30 -30 77 -30q57 0 90 30
q78 67 78 234q0 183 -131 331q-130 146 -377 146q-210 0 -356 -154q-145 -152 -145 -372q0 -228 150 -376q151 -149 413 -149q113 0 254 48q0 -1 1.5 -6.5t2.5 -8.5q0 -2 3 -11t4 -15q5 -21 9 -31l2 -10q-167 -52 -280 -52q-297 0 -476 176q-180 177 -180 435q0 253 176 432
q175 178 422 178q144 0 264 -50q115 -48 189 -131q73 -82 110 -177t37 -197zM834 442v76q-66 45 -146 45q-53 0 -83 -23q-32 -24 -32 -67q0 -46 31 -74q29 -26 84 -26q80 0 146 69z" />
    <glyph glyph-name="A" unicode="A" horiz-adv-x="1425" 
d="M1380 0h-123l-194 459h-705l-192 -459h-121l657 1526h21zM1020 557l-309 735l-310 -735h619z" />
    <glyph glyph-name="B" unicode="B" horiz-adv-x="1157" 
d="M1075 408q0 -176 -144 -299t-403 -123q-130 0 -350 24v1481q198 25 336 25q255 0 390 -109q134 -108 134 -272q0 -273 -311 -357q170 -30 260 -130q88 -98 88 -240zM922 1122q0 136 -102 215q-103 80 -298 80q-121 0 -229 -18v-576q55 -4 186 -4q221 0 331 85
q112 86 112 218zM956 414q0 143 -120 227q-122 86 -349 86q-138 0 -194 -4v-619q133 -18 248 -18q196 0 306 92q109 91 109 236z" />
    <glyph glyph-name="C" unicode="C" horiz-adv-x="1515" 
d="M1423 143q-245 -163 -518 -163q-334 0 -560 211t-226 557q0 344 228 561q227 217 558 217q281 0 522 -164l-51 -96q-234 153 -477 153q-282 0 -468 -185q-187 -186 -187 -484t189 -481t472 -183q241 0 477 152z" />
    <glyph glyph-name="D" unicode="D" horiz-adv-x="1515" 
d="M1397 764q0 -329 -223 -553q-223 -225 -623 -225q-189 0 -373 24v1481q192 25 365 25q201 0 368 -63t270 -169q101 -104 159 -240q57 -133 57 -280zM1274 764q0 280 -194 466q-192 185 -535 185q-160 0 -252 -16v-1297q99 -16 262 -16q346 0 532 189q187 190 187 489z
" />
    <glyph glyph-name="E" unicode="E" horiz-adv-x="1153" 
d="M1026 0h-848v1501h848v-102h-733v-586h661v-102h-661v-607h733v-104z" />
    <glyph glyph-name="F" unicode="F" horiz-adv-x="1112" 
d="M1026 1399h-733v-613h661v-102h-661v-684h-115v1501h848v-102z" />
    <glyph glyph-name="G" unicode="G" horiz-adv-x="1595" 
d="M915 715h543v-551q-233 -184 -545 -184q-206 0 -386 89t-294 268t-114 413q0 174 66 322q65 147 176 247q108 98 250 152q144 55 288 55q172 0 298 -46t257 -139l-61 -90q-235 171 -494 172q-281 0 -468 -189q-187 -188 -187 -484q0 -297 195 -483q194 -185 479 -185
q238 0 425 131v395h-428v107z" />
    <glyph glyph-name="H" unicode="H" horiz-adv-x="1447" 
d="M1270 0h-115v713h-862v-713h-115v1501h115v-686h862v686h115v-1501z" />
    <glyph glyph-name="I" unicode="I" horiz-adv-x="487" 
d="M301 0h-115v1501h115v-1501z" />
    <glyph glyph-name="J" unicode="J" horiz-adv-x="952" 
d="M782 1501v-1055q0 -220 -109 -345q-109 -126 -304 -126q-189 0 -334 115l61 88q122 -96 275 -96q141 0 219 92t78 275v1052h114z" />
    <glyph glyph-name="K" unicode="K" horiz-adv-x="1214" 
d="M1171 0h-151l-727 741v-741h-115v1501h115v-698l702 698h148l-740 -729z" />
    <glyph glyph-name="L" unicode="L" horiz-adv-x="1050" 
d="M1026 0h-848v1501h115v-1397h733v-104z" />
    <glyph glyph-name="M" unicode="M" horiz-adv-x="1734" 
d="M1579 0h-117l-24 1200l-561 -985h-19l-561 987l-25 -1202h-116l51 1520l26 4l639 -1137l629 1137l27 -4z" />
    <glyph glyph-name="N" unicode="N" horiz-adv-x="1488" 
d="M1311 -18l-21 -5l-999 1274v-1251h-113v1518l27 6l991 -1260v1237h115v-1519z" />
    <glyph glyph-name="O" unicode="O" horiz-adv-x="1724" 
d="M1606 750q0 -330 -217 -550t-531 -220q-311 0 -525 220t-214 550q0 331 217 552q218 222 530 222q311 0 526 -221q214 -220 214 -553zM1481 750q0 287 -175 478t-444 191q-268 0 -443 -191t-175 -478q0 -286 175 -477t443 -191q269 0 444 191t175 477z" />
    <glyph glyph-name="P" unicode="P" horiz-adv-x="1136" 
d="M1065 1034q0 -229 -158 -370q-159 -142 -430 -142q-73 0 -184 13v-535h-115v1491q156 20 309 20q278 0 427 -136q151 -137 151 -341zM942 1028q0 159 -117 270t-325 111q-106 0 -207 -14v-758q116 -14 188 -14q219 0 340 111t121 294z" />
    <glyph glyph-name="Q" unicode="Q" horiz-adv-x="1724" 
d="M1604 49l-72 -84q-142 133 -201 185q-208 -170 -473 -170q-313 0 -526 219t-213 551q0 331 217 552q218 222 528 222q311 0 526 -221q214 -220 214 -553q0 -310 -195 -527zM1481 750q0 287 -175 478t-444 191q-268 0 -443 -191t-175 -478q0 -286 175 -477t443 -191
q221 0 387 139l-78 70l-155 139l-80 72l72 82l317 -285q156 184 156 451z" />
    <glyph glyph-name="R" unicode="R" horiz-adv-x="1208" 
d="M1157 0h-139l-410 610q-59 -8 -131 -8q-76 0 -182 8v-610h-117v1487q190 24 322 24q273 0 421 -121t148 -323q0 -156 -91 -269q-91 -114 -257 -163zM946 1061q0 157 -113 252q-114 96 -321 96q-110 0 -217 -18v-678q111 -13 188 -13q222 0 343 97q120 96 120 264z" />
    <glyph glyph-name="S" unicode="S" horiz-adv-x="1058" 
d="M950 387q0 -181 -132 -296q-133 -116 -326 -116q-221 0 -435 140l56 100q198 -135 389 -135q147 0 239 83q93 84 93 210q0 122 -76 194q-78 74 -254 152q-190 84 -282 177q-91 92 -91 239q0 165 126 278q127 113 325 113q185 0 338 -103l-56 -96q-133 94 -293 94
q-147 0 -236 -80t-89 -198q0 -111 76 -180q81 -73 233 -144q212 -95 303 -187q92 -94 92 -245z" />
    <glyph glyph-name="T" unicode="T" horiz-adv-x="1257" 
d="M1196 1399h-508v-1399h-117v1399h-510v102h1135v-102z" />
    <glyph glyph-name="U" unicode="U" horiz-adv-x="1449" 
d="M1286 545q0 -263 -153 -414q-152 -151 -410 -151q-263 0 -410 147t-147 418v956h115v-954q0 -227 117 -344q119 -119 325 -119q205 0 326 120q120 119 120 343v954h117v-956z" />
    <glyph glyph-name="V" unicode="V" horiz-adv-x="1406" 
d="M1368 1501l-653 -1526h-23l-653 1526h127l541 -1286l536 1286h125z" />
    <glyph glyph-name="W" unicode="W" horiz-adv-x="1949" 
d="M1880 1501l-393 -1521l-29 -5l-485 1285l-481 -1285l-29 5l-393 1521h114l316 -1231l465 1239h20l469 -1235l313 1227h113z" />
    <glyph glyph-name="X" unicode="X" horiz-adv-x="1388" 
d="M1311 0h-137l-482 674l-481 -674h-135l555 756l-547 745h139l471 -661l473 661h136l-545 -743z" />
    <glyph glyph-name="Y" unicode="Y" horiz-adv-x="1282" 
d="M1223 1501l-525 -827v-674h-114v676l-525 825h129l457 -729l451 729h127z" />
    <glyph glyph-name="Z" unicode="Z" horiz-adv-x="1292" 
d="M1188 1481l-914 -1377h904v-104h-1076l-8 20l912 1379h-861v102h1033z" />
    <glyph glyph-name="bracketleft" unicode="[" horiz-adv-x="604" 
d="M555 -442h-391v1943h391v-94h-285v-1755h285v-94z" />
    <glyph glyph-name="backslash" unicode="\" horiz-adv-x="653" 
d="M596 -442h-107l-487 1943h104z" />
    <glyph glyph-name="bracketright" unicode="]" horiz-adv-x="604" 
d="M442 -442h-391v94h285v1755h-285v94h391v-1943z" />
    <glyph glyph-name="asciicircum" unicode="^" horiz-adv-x="901" 
d="M731 993h-121l-161 201l-154 -201h-119l248 305h61z" />
    <glyph glyph-name="underscore" unicode="_" horiz-adv-x="1064" 
d="M1065 0h-1065v102h1065v-102z" />
    <glyph glyph-name="grave" unicode="`" horiz-adv-x="901" 
d="M684 1034l-39 -61l-393 203l63 110z" />
    <glyph glyph-name="a" unicode="a" horiz-adv-x="886" 
d="M770 0h-106v92q-108 -108 -271 -108q-136 0 -225 71q-90 72 -90 197q0 118 91 193t228 75q123 0 260 -65v77q0 124 -58 182t-189 58q-115 0 -224 -47l-22 98q132 49 258 49q348 0 348 -340v-532zM657 190v168q-127 72 -245 72q-101 0 -163 -46q-63 -46 -63 -132
q0 -84 62 -129t168 -45q147 0 241 112z" />
    <glyph glyph-name="b" unicode="b" horiz-adv-x="1036" 
d="M948 432q0 -188 -123 -318t-297 -130t-290 116v-100h-109v1501h113v-743q123 114 297 114q175 0 292 -124t117 -316zM836 430q0 150 -87 247t-227 97q-169 0 -280 -129v-432q108 -131 272 -131q139 0 230 97q92 98 92 251z" />
    <glyph glyph-name="c" unicode="c" horiz-adv-x="868" 
d="M819 70q-136 -86 -284 -86q-195 0 -322 127t-127 313q0 187 127 317q128 131 322 131q148 0 284 -86l-51 -88q-118 74 -240 74q-145 0 -238 -95t-93 -249q0 -150 97 -247t238 -97q123 0 242 74z" />
    <glyph glyph-name="d" unicode="d" horiz-adv-x="1036" 
d="M907 0h-108v104q-116 -120 -295 -120q-182 0 -299 124t-117 316q0 188 123 318t297 130q171 0 287 -106v735h112v-1501zM795 215v430q-107 129 -281 129q-136 0 -224 -97q-89 -98 -89 -251q0 -150 88 -247t229 -97q169 0 277 133z" />
    <glyph glyph-name="e" unicode="e" horiz-adv-x="944" 
d="M864 459q0 -37 -4 -56h-661q7 -144 95 -232q87 -87 255 -87q115 0 244 51q0 -1 1 -4l2 -6t1 -6t1.5 -7.5t3 -12l2.5 -12.5q7 -31 7 -34l4 -14q-144 -55 -272 -55q-220 0 -338 124q-119 125 -119 318q0 187 112 317q111 129 296 129q176 0 273 -115t97 -298zM203 494h553
q-7 123 -76 202q-68 78 -195 78q-121 0 -194 -76t-88 -204z" />
    <glyph glyph-name="f" unicode="f" horiz-adv-x="567" 
d="M629 1495l-21 -98q-44 16 -102 16q-103 0 -152 -61t-49 -201v-295h254v-100h-254v-756h-112v756h-144v26l144 80v275q0 188 78 282q80 97 225 97q82 0 133 -21z" />
    <glyph glyph-name="g" unicode="g" horiz-adv-x="1036" 
d="M907 -84q0 -379 -358 -379q-135 0 -285 49l21 105q126 -49 252 -49q132 0 195 64q63 65 63 202v188q-121 -112 -291 -112q-182 0 -299 124t-117 316q0 188 123 318t297 130q179 0 291 -116v100h108v-940zM795 211v430q-111 133 -279 133q-139 0 -227 -98t-88 -252
q0 -150 90 -247t233 -97q164 0 271 131z" />
    <glyph glyph-name="h" unicode="h" horiz-adv-x="954" 
d="M846 0h-115v551q0 223 -199 223q-155 0 -301 -164v-610h-112v1501h112v-790q151 161 324 161q144 0 217 -80q74 -82 74 -217v-575z" />
    <glyph glyph-name="i" unicode="i" horiz-adv-x="385" 
d="M274 1174q0 -35 -24 -59q-23 -23 -57 -23q-36 0 -59 23t-23 59t23 59q24 24 59 24q33 0 57 -24t24 -59zM250 0h-115v856h115v-856z" />
    <glyph glyph-name="j" unicode="j" horiz-adv-x="387" 
d="M279 1174q0 -35 -24 -59q-23 -23 -58 -23t-58 23q-24 24 -24 59t24 59t58 24t58 -24t24 -59zM254 856v-1059q0 -256 -219 -256q-51 0 -123 15l14 98q49 -10 86 -10q129 0 129 147v1065h113z" />
    <glyph glyph-name="k" unicode="k" horiz-adv-x="815" 
d="M811 0h-143l-426 422v-422h-113v1501h113v-1024l405 379h144l-445 -403z" />
    <glyph glyph-name="l" unicode="l" horiz-adv-x="382" 
d="M248 0h-113v1501h113v-1501z" />
    <glyph glyph-name="m" unicode="m" horiz-adv-x="1531" 
d="M1411 0h-115v561q0 211 -178 211q-156 0 -291 -166v-606h-114v557q0 217 -181 217q-146 0 -290 -166v-608h-113v856h109v-145q157 161 327 161q185 0 236 -176q145 174 348 174q121 0 191 -74q71 -76 71 -216v-580z" />
    <glyph glyph-name="n" unicode="n" 
d="M850 0h-115v551q0 223 -196 223q-147 0 -297 -164v-610h-113v856h109v-147q153 163 327 163q142 0 213 -80q72 -81 72 -217v-575z" />
    <glyph glyph-name="o" unicode="o" horiz-adv-x="1024" 
d="M938 430q0 -189 -121 -317q-121 -129 -305 -129q-186 0 -305 128t-119 316q0 186 120 315t306 129q184 0 304 -128t120 -314zM823 428q0 153 -86 251q-85 97 -225 97t-225 -98q-86 -100 -86 -250t86 -250q85 -98 225 -98t225 98q86 100 86 250z" />
    <glyph glyph-name="p" unicode="p" horiz-adv-x="1036" 
d="M948 430q0 -195 -121 -320q-121 -126 -307 -126q-148 0 -278 88v-514h-113v1298h109v-104q123 120 301 120q173 0 291 -126q118 -125 118 -316zM836 428q0 150 -88 248t-226 98q-169 0 -280 -129v-450q115 -115 278 -115q138 0 226 96q90 98 90 252z" />
    <glyph glyph-name="q" unicode="q" horiz-adv-x="1036" 
d="M907 -442h-112v536q-120 -110 -285 -110q-183 0 -302 122q-120 123 -120 318q0 189 125 319q125 129 301 129q172 0 285 -110v94h108v-1298zM795 213v432q-111 129 -279 129q-136 0 -225 -98q-90 -99 -90 -250q0 -154 89 -249t238 -95q160 0 267 131z" />
    <glyph glyph-name="r" unicode="r" horiz-adv-x="583" 
d="M549 764q-96 -5 -177 -49q-84 -46 -130 -129v-586h-113v856h109v-162q128 180 311 180v-110z" />
    <glyph glyph-name="s" unicode="s" horiz-adv-x="724" 
d="M637 238q0 -105 -77 -180q-75 -74 -198 -74q-156 0 -299 106l56 82q122 -94 239 -94q82 0 128 40t46 105q0 55 -44 94t-106 63q-59 23 -124 51q-60 26 -105 79q-44 52 -44 125q0 97 74 167t200 70q129 0 248 -81l-51 -86q-104 73 -199 73q-81 0 -125 -38q-43 -37 -43 -95
q0 -52 44 -90q40 -35 105 -60q56 -22 124 -51q66 -28 107 -78q44 -53 44 -128z" />
    <glyph glyph-name="t" unicode="t" horiz-adv-x="600" 
d="M563 756h-270v-537q0 -135 143 -135q43 0 92 10l11 -96q-74 -14 -129 -14q-228 0 -228 243v529h-145v26l145 80v185l111 81v-272h270v-100z" />
    <glyph glyph-name="u" unicode="u" 
d="M842 0h-109v141q-60 -63 -150 -111q-86 -46 -173 -46q-144 0 -216 81q-73 82 -73 216v575h115v-551q0 -223 198 -223q149 0 295 160v614h113v-856z" />
    <glyph glyph-name="v" unicode="v" horiz-adv-x="886" 
d="M870 856l-421 -881h-21l-412 881h125l301 -682l308 682h120z" />
    <glyph glyph-name="w" unicode="w" horiz-adv-x="1251" 
d="M1214 856l-286 -881h-21l-274 664l-281 -664h-20l-289 881h123l192 -643l263 643h20l268 -643l185 643h120z" />
    <glyph glyph-name="x" unicode="x" horiz-adv-x="804" 
d="M780 0h-127l-247 346l-252 -346h-121l315 428l-313 428h129l246 -344l243 344h123l-311 -424z" />
    <glyph glyph-name="y" unicode="y" horiz-adv-x="874" 
d="M860 856l-604 -1298h-115l242 499l-367 799h125l297 -684l299 684h123z" />
    <glyph glyph-name="z" unicode="z" horiz-adv-x="813" 
d="M770 836l-565 -738h553v-98h-721l-8 18l565 740h-524v98h692z" />
    <glyph glyph-name="braceleft" unicode="{" horiz-adv-x="606" 
d="M569 -457q-344 0 -344 355v438q0 76 -29 111q-30 36 -108 36h-47v97h47q78 0 108 34q29 33 29 113v432q0 357 344 357v-101q-119 0 -177 -59t-58 -193v-409q0 -95 -28 -146q-27 -49 -107 -78q81 -29 107 -77q28 -51 28 -146v-411q0 -134 58 -193t177 -59v-101z" />
    <glyph glyph-name="bar" unicode="|" horiz-adv-x="473" 
d="M287 -444h-103v1943h103v-1943z" />
    <glyph glyph-name="braceright" unicode="}" horiz-adv-x="606" 
d="M565 483h-47q-77 0 -107 -36t-30 -111v-438q0 -355 -344 -355v101q121 0 179 59t58 193v411q0 95 28 146q26 48 106 77q-79 29 -106 78q-28 51 -28 146v409q0 134 -58 193t-179 59v101q344 0 344 -357v-432q0 -79 30 -113t107 -34h47v-97z" />
    <glyph glyph-name="asciitilde" unicode="~" horiz-adv-x="901" 
d="M758 774q-96 -115 -193 -110q-51 0 -127 45q-68 44 -106 45q-64 0 -133 -84l-58 69q97 115 193 111q53 0 125 -45q72 -44 108 -45q64 0 133 84z" />
    <glyph glyph-name="uni00A0" unicode="&#xa0;" horiz-adv-x="458" 
 />
    <glyph glyph-name="exclamdown" unicode="&#xa1;" horiz-adv-x="415" 
d="M119 1430q0 39 25 64q26 26 65 26q36 0 62 -26t26 -64q0 -37 -26 -63t-62 -26q-39 0 -65 26q-25 25 -25 63zM147 2l17 1128h88l18 -1128h-123z" />
    <glyph glyph-name="cent" unicode="&#xa2;" horiz-adv-x="897" 
d="M406 -166l12 162q-152 33 -243 149t-91 277q0 179 116 307q114 126 287 141l13 154l96 -8l-12 -148q120 -11 233 -82l-51 -88q-104 59 -191 70l-53 -684h8q120 0 242 74l45 -88q-140 -86 -289 -86h-14l-12 -158zM195 426q0 -123 63 -210q64 -88 168 -118l53 672
q-126 -16 -206 -110q-78 -91 -78 -234z" />
    <glyph glyph-name="sterling" unicode="&#xa3;" horiz-adv-x="890" 
d="M854 1114l-55 -94q-117 78 -232 78q-245 0 -245 -299v-164h299v-98h-299v-435h530v-102h-780v102h135v435h-129v16l129 88v168q0 177 97 284t278 107q132 0 272 -86z" />
    <glyph glyph-name="yen" unicode="&#xa5;" horiz-adv-x="1013" 
d="M958 1182l-344 -545h283v-100h-332v-152h332v-98h-332v-287h-112v287h-336v98h336v152h-336v100h289l-351 545h131l326 -520l319 520h127z" />
    <glyph glyph-name="section" unicode="&#xa7;" horiz-adv-x="864" 
d="M772 586q0 -141 -154 -201q101 -62 101 -162q0 -103 -84 -172t-219 -69q-167 0 -307 106l55 82q54 -43 124 -69q72 -27 134 -27q89 0 139 35q49 34 49 100q0 55 -51 91q-50 36 -124 57q-70 20 -145 47q-73 26 -124 74t-51 122q0 70 45 123q47 55 116 78q-106 60 -106 162
q0 100 86 169q84 68 213 68q149 0 274 -86l-51 -86q-109 80 -225 80q-83 0 -135 -38q-51 -38 -51 -97q0 -48 50 -83q44 -31 123 -57q81 -27 145 -51q77 -29 123 -75q50 -50 50 -121zM668 571q0 66 -61 101q-62 36 -228 86q-66 -8 -111 -48t-45 -94q0 -26 11 -45t29 -34
q16 -13 49 -29q30 -14 59 -24q42 -14 74 -24q41 -13 79 -28q61 11 102 49q42 39 42 90z" />
    <glyph glyph-name="dieresis" unicode="&#xa8;" horiz-adv-x="901" 
d="M713 1112q0 -34 -26 -60t-60 -26q-37 0 -63 26q-25 25 -25 60q0 36 25 62t63 26q35 0 60 -26q26 -28 26 -62zM362 1112q0 -35 -25 -60q-26 -26 -61 -26q-34 0 -60 26t-26 60t26 62q25 26 60 26q36 0 61 -26t25 -62z" />
    <glyph glyph-name="copyright" unicode="&#xa9;" horiz-adv-x="1724" 
d="M1622 750q0 -322 -222 -548q-222 -227 -538 -227q-315 0 -537 227q-223 228 -223 548q0 319 223 548q222 228 537 228q316 0 538 -228t222 -548zM1524 750q0 287 -194 489q-194 201 -468 201q-275 0 -467 -201t-192 -489t192 -487q192 -200 467 -200q274 0 468 200
t194 487zM1147 451q-117 -78 -254 -78q-173 0 -286 106t-113 279q0 170 114 278q115 109 285 109q132 0 254 -76l-35 -80q-112 68 -221 68q-130 0 -212 -82q-83 -83 -83 -217q0 -135 84 -216t215 -81q111 0 219 69z" />
    <glyph glyph-name="ordfeminine" unicode="&#xaa;" horiz-adv-x="714" 
d="M608 879h-100v67q-78 -78 -195 -78q-99 0 -167 54q-66 54 -66 143q0 88 67 143q68 56 168 56q90 0 189 -45v49q0 86 -42 127q-43 41 -136 41q-82 0 -164 -33l-17 86q100 35 195 35q268 0 268 -258v-387zM504 1024v117q-85 49 -170 49q-67 0 -111 -32q-43 -31 -43 -89
q0 -60 43 -90q45 -31 115 -31q100 0 166 76z" />
    <glyph glyph-name="guillemotleft" unicode="&#xab;" horiz-adv-x="823" 
d="M731 18h-119l-215 336l215 334h119l-221 -334zM434 18h-119l-215 336l215 334h119l-221 -334z" />
    <glyph glyph-name="registered" unicode="&#xae;" horiz-adv-x="790" 
d="M287 1001v340q51 7 92 7q68 0 105 -31q36 -30 36 -76q0 -75 -63 -102l88 -138h-68l-76 125q-14 -2 -26 -2q-11 0 -31 2v-125h-57zM344 1294v-120q30 -3 37 -3q80 0 80 68q0 57 -76 57q-27 0 -41 -2zM395 868q120 0 206 89q85 88 85 212q0 127 -85 215q-86 89 -206 89
t-205 -90q-84 -89 -84 -214q0 -124 85 -212q86 -89 204 -89zM395 819q-142 0 -243 103t-101 247q0 147 101 251t243 104q143 0 245 -105q101 -104 101 -250q0 -144 -101 -246q-102 -104 -245 -104z" />
    <glyph glyph-name="macron" unicode="&#xaf;" horiz-adv-x="901" 
d="M745 1049h-587v98h587v-98z" />
    <glyph glyph-name="degree" unicode="&#xb0;" horiz-adv-x="761" 
d="M600 1194q0 -91 -61 -152t-158 -61q-95 0 -156 61t-61 152t61 152t156 61q97 0 158 -61t61 -152zM516 1194q0 61 -37 101t-98 40q-60 0 -97 -40q-38 -41 -38 -101t38 -101q37 -40 97 -40q61 0 98 40t37 101z" />
    <glyph glyph-name="acute" unicode="&#xb4;" horiz-adv-x="901" 
d="M659 1176l-393 -203l-37 63l371 252z" />
    <glyph glyph-name="paragraph" unicode="&#xb6;" horiz-adv-x="1142" 
d="M991 0h-106v1083q-56 7 -166 11v-1094h-107v336q-212 -12 -362 96t-150 305q0 208 161 336q160 127 437 127q133 0 293 -20v-1180zM612 438v654q-185 -15 -287 -108t-102 -243t116 -233q115 -82 273 -70z" />
    <glyph glyph-name="periodcentered" unicode="&#xb7;" horiz-adv-x="454" 
d="M139 758q0 36 26 62t62 26q39 0 65 -26q25 -25 25 -62q0 -40 -25 -65t-65 -25q-37 0 -62 25q-26 26 -26 65z" />
    <glyph glyph-name="cedilla" unicode="&#xb8;" horiz-adv-x="901" 
d="M680 -307q0 -76 -55 -127t-154 -51q-95 0 -217 67l37 74q105 -59 180 -59q53 0 83 24t30 68q0 108 -207 129l-6 12l53 199l76 -19l-33 -123q109 -23 161 -73q52 -51 52 -121z" />
    <glyph glyph-name="ordmasculine" unicode="&#xba;" horiz-adv-x="778" 
d="M711 1194q0 -141 -91 -235q-92 -95 -231 -95q-141 0 -230 95t-89 235q0 139 89 234q90 96 230 96q141 0 232 -96q90 -94 90 -234zM606 1194q0 108 -59 174q-60 68 -158 68q-96 0 -156 -68q-59 -66 -59 -174q0 -107 58 -174q59 -68 157 -68q97 0 157 69t60 173z" />
    <glyph glyph-name="guillemotright" unicode="&#xbb;" horiz-adv-x="823" 
d="M723 354l-215 -336h-119l221 336l-221 334h119zM426 354l-215 -336h-119l221 336l-221 334h119z" />
    <glyph glyph-name="questiondown" unicode="&#xbf;" horiz-adv-x="786" 
d="M53 328q0 83 41 154q40 70 99 121q57 49 114 96q60 49 99 104q40 56 40 121v163h107v-186q0 -72 -40 -134q-43 -67 -96 -110q-19 -15 -56.5 -46t-56.5 -47q-56 -46 -96 -105t-40 -127q0 -108 74 -173t211 -65q121 0 258 70l32 -101q-164 -77 -299 -77q-187 0 -289 96
t-102 246zM410 1429q0 40 25 65q26 26 65 26q36 0 62 -26t26 -65q0 -36 -26 -62t-62 -26q-39 0 -65 26q-25 25 -25 62z" />
    <glyph glyph-name="Agrave" unicode="&#xc0;" horiz-adv-x="1425" 
d="M1380 0h-123l-194 459h-705l-192 -459h-121l657 1526h21zM1020 557l-309 735l-310 -735h619zM797 1690l-39 -62l-393 203l63 111z" />
    <glyph glyph-name="Aacute" unicode="&#xc1;" horiz-adv-x="1425" 
d="M1380 0h-123l-194 459h-705l-192 -459h-121l657 1526h21zM1020 557l-309 735l-310 -735h619zM1051 1831l-394 -203l-36 64l370 252z" />
    <glyph glyph-name="Acircumflex" unicode="&#xc2;" horiz-adv-x="1425" 
d="M1380 0h-123l-194 459h-705l-192 -459h-121l657 1526h21zM1020 557l-309 735l-310 -735h619zM989 1653h-121l-161 200l-154 -200h-119l248 305h61z" />
    <glyph glyph-name="Atilde" unicode="&#xc3;" horiz-adv-x="1425" 
d="M1380 0h-123l-194 459h-705l-192 -459h-121l657 1526h21zM1020 557l-309 735l-310 -735h619zM1024 1784q-97 -115 -193 -111q-49 0 -126 45q-67 43 -107 45q-64 0 -133 -84l-57 70q97 115 192 111q53 0 125 -45q74 -45 109 -46q64 0 133 84z" />
    <glyph glyph-name="Adieresis" unicode="&#xc4;" horiz-adv-x="1425" 
d="M1380 0h-123l-194 459h-705l-192 -459h-121l657 1526h21zM1020 557l-309 735l-310 -735h619zM973 1767q0 -34 -26 -60t-60 -26q-37 0 -63 26q-25 25 -25 60q0 36 25 62t63 26q35 0 60 -26q26 -28 26 -62zM623 1767q0 -34 -26 -60t-60 -26q-35 0 -61 26q-25 25 -25 60
q0 36 25 62t61 26q35 0 60 -26q26 -28 26 -62z" />
    <glyph glyph-name="Aring" unicode="&#xc5;" horiz-adv-x="1425" 
d="M924 1661q0 -76 -47 -134q-45 -56 -125 -71l628 -1456h-123l-194 459h-705l-192 -459h-121l627 1458q-76 12 -123 70t-47 133q0 88 59 147q60 60 152 60q93 0 152 -60q59 -61 59 -147zM1020 557l-309 735l-310 -735h619zM840 1663q0 57 -36 95t-91 38q-53 0 -89 -38
t-36 -95q0 -59 36 -97t89 -38q55 0 91 38t36 97z" />
    <glyph glyph-name="AE" unicode="&#xc6;" horiz-adv-x="2088" 
d="M1962 0h-848v494h-590l-350 -494h-135l1079 1501h844v-102h-731v-586h659v-102h-659v-607h731v-104zM1114 592v731l-520 -731h520z" />
    <glyph glyph-name="Ccedilla" unicode="&#xc7;" horiz-adv-x="1515" 
d="M1100 -307q0 -76 -56 -127t-153 -51q-95 0 -217 67l37 74q105 -59 180 -59q53 0 83 24t30 68q0 108 -207 129l-6 12l40 154q-307 24 -509 232q-203 209 -203 532q0 344 228 561q227 217 558 217q281 0 522 -164l-51 -96q-234 153 -477 153q-282 0 -468 -185
q-187 -186 -187 -484t189 -481t472 -183q241 0 477 152l41 -95q-241 -161 -512 -163l-24 -93q109 -23 161 -73q52 -51 52 -121z" />
    <glyph glyph-name="Egrave" unicode="&#xc8;" horiz-adv-x="1153" 
d="M1026 0h-848v1501h848v-102h-733v-586h661v-102h-661v-607h733v-104zM688 1690l-39 -62l-393 203l63 111z" />
    <glyph glyph-name="Eacute" unicode="&#xc9;" horiz-adv-x="1153" 
d="M942 1831l-393 -203l-37 64l371 252zM1026 0h-848v1501h848v-102h-733v-586h661v-102h-661v-607h733v-104z" />
    <glyph glyph-name="Ecircumflex" unicode="&#xca;" horiz-adv-x="1153" 
d="M881 1653h-121l-162 200l-154 -200h-118l247 305h62zM1026 0h-848v1501h848v-102h-733v-586h661v-102h-661v-607h733v-104z" />
    <glyph glyph-name="Edieresis" unicode="&#xcb;" horiz-adv-x="1153" 
d="M864 1767q0 -35 -25 -60q-26 -26 -61 -26q-36 0 -62 26t-26 60t26 62q25 26 62 26q36 0 61 -26t25 -62zM514 1767q0 -34 -26 -60t-60 -26t-60 26t-26 60t26 62q25 26 60 26t60 -26q26 -28 26 -62zM1026 0h-848v1501h848v-102h-733v-586h661v-102h-661v-607h733v-104z" />
    <glyph glyph-name="Igrave" unicode="&#xcc;" horiz-adv-x="485" 
d="M301 0h-115v1501h115v-1501zM328 1690l-39 -62l-393 203l63 111z" />
    <glyph glyph-name="Iacute" unicode="&#xcd;" horiz-adv-x="485" 
d="M301 0h-115v1501h115v-1501zM582 1831l-394 -203l-36 64l370 252z" />
    <glyph glyph-name="Icircumflex" unicode="&#xce;" horiz-adv-x="485" 
d="M301 0h-115v1501h115v-1501zM520 1653h-121l-161 200l-154 -200h-119l248 305h61z" />
    <glyph glyph-name="Idieresis" unicode="&#xcf;" horiz-adv-x="485" 
d="M301 0h-115v1501h115v-1501zM504 1767q0 -34 -26 -60t-60 -26q-37 0 -63 26q-25 25 -25 60q0 36 25 62t63 26q35 0 60 -26q26 -28 26 -62zM154 1767q0 -34 -26 -60t-60 -26q-35 0 -61 26q-25 25 -25 60q0 36 25 62t61 26q35 0 60 -26q26 -28 26 -62z" />
    <glyph glyph-name="Eth" unicode="&#xd0;" horiz-adv-x="1576" 
d="M1458 764q0 -329 -223 -553q-223 -225 -623 -225q-188 0 -372 24v703h-179v102h179v676q192 25 364 25q202 0 369 -63q166 -63 269 -169t160 -240q56 -131 56 -280zM1335 764q0 280 -192 466q-191 185 -535 185q-162 0 -254 -16v-584h279v-102h-279v-611q99 -16 264 -16
q345 0 531 189t186 489z" />
    <glyph glyph-name="Ntilde" unicode="&#xd1;" horiz-adv-x="1488" 
d="M1311 -18l-21 -5l-999 1274v-1251h-113v1518l27 6l991 -1260v1237h115v-1519zM1055 1757q-96 -115 -193 -110q-50 0 -127 45q-68 44 -106 45q-64 0 -133 -84l-58 69q97 115 193 111q53 0 125 -45q72 -44 108 -45q64 0 133 84z" />
    <glyph glyph-name="Ograve" unicode="&#xd2;" horiz-adv-x="1724" 
d="M1606 750q0 -330 -217 -550t-531 -220q-311 0 -525 220t-214 550q0 331 217 552q218 222 530 222q311 0 526 -221q214 -220 214 -553zM1481 750q0 287 -175 478t-444 191q-268 0 -443 -191t-175 -478q0 -286 175 -477t443 -191q269 0 444 191t175 477zM946 1690l-39 -62
l-393 203l64 111z" />
    <glyph glyph-name="Oacute" unicode="&#xd3;" horiz-adv-x="1724" 
d="M1200 1831l-393 -203l-37 64l371 252zM1606 750q0 -330 -217 -550t-531 -220q-311 0 -525 220t-214 550q0 331 217 552q218 222 530 222q311 0 526 -221q214 -220 214 -553zM1481 750q0 287 -175 478t-444 191q-268 0 -443 -191t-175 -478q0 -286 175 -477t443 -191
q269 0 444 191t175 477z" />
    <glyph glyph-name="Ocircumflex" unicode="&#xd4;" horiz-adv-x="1724" 
d="M1139 1653h-121l-162 200l-154 -200h-118l247 305h62zM1606 750q0 -330 -217 -550t-531 -220q-311 0 -525 220t-214 550q0 331 217 552q218 222 530 222q311 0 526 -221q214 -220 214 -553zM1481 750q0 287 -175 478t-444 191q-268 0 -443 -191t-175 -478
q0 -286 175 -477t443 -191q269 0 444 191t175 477z" />
    <glyph glyph-name="Otilde" unicode="&#xd5;" horiz-adv-x="1724" 
d="M1606 750q0 -330 -217 -550t-531 -220q-311 0 -525 220t-214 550q0 331 217 552q218 222 530 222q311 0 526 -221q214 -220 214 -553zM1481 750q0 287 -175 478t-444 191q-268 0 -443 -191t-175 -478q0 -286 175 -477t443 -191q269 0 444 191t175 477zM1174 1784
q-97 -115 -193 -111q-51 0 -127 45q-68 44 -106 45q-65 0 -134 -84l-57 70q97 115 193 111q52 0 124 -45q74 -45 109 -46q64 0 133 84z" />
    <glyph glyph-name="Odieresis" unicode="&#xd6;" horiz-adv-x="1724" 
d="M1122 1767q0 -35 -25 -60q-26 -26 -61 -26q-36 0 -62 26t-26 60t26 62q25 26 62 26q36 0 61 -26t25 -62zM772 1767q0 -34 -26 -60t-60 -26t-60 26t-26 60t26 62q25 26 60 26t60 -26q26 -28 26 -62zM1606 750q0 -330 -217 -550t-531 -220q-311 0 -525 220t-214 550
q0 331 217 552q218 222 530 222q311 0 526 -221q214 -220 214 -553zM1481 750q0 287 -175 478t-444 191q-268 0 -443 -191t-175 -478q0 -286 175 -477t443 -191q269 0 444 191t175 477z" />
    <glyph glyph-name="multiply" unicode="&#xd7;" horiz-adv-x="921" 
d="M143 821l70 72l248 -248l248 248l69 -72l-248 -248l248 -245l-69 -72l-248 248l-248 -248l-70 72l246 245z" />
    <glyph glyph-name="Oslash" unicode="&#xd8;" horiz-adv-x="1724" 
d="M1606 750q0 -330 -217 -550t-531 -220q-282 0 -491 186l-170 -178l-70 71q7 8 29 30l13 13t21 20.5t22 22.5q50 52 62 64l25 27q-180 217 -180 514q0 331 217 552q218 222 530 222q284 0 492 -191l172 180l69 -69q-139 -146 -174 -180q181 -214 181 -514zM1280 1253
q-172 166 -418 166q-268 0 -443 -191t-175 -478q0 -249 137 -428zM1481 750q0 250 -138 430l-225 -234q-155 -162 -448 -467l-226 -233q175 -164 418 -164q269 0 444 191t175 477z" />
    <glyph glyph-name="Ugrave" unicode="&#xd9;" horiz-adv-x="1449" 
d="M1286 545q0 -263 -153 -414q-152 -151 -410 -151q-263 0 -410 147t-147 418v956h115v-954q0 -227 117 -344q119 -119 325 -119q205 0 326 120q120 119 120 343v954h117v-956zM811 1663l-39 -61l-393 202l63 111z" />
    <glyph glyph-name="Uacute" unicode="&#xda;" horiz-adv-x="1449" 
d="M1286 545q0 -263 -153 -414q-152 -151 -410 -151q-263 0 -410 147t-147 418v956h115v-954q0 -227 117 -344q119 -119 325 -119q205 0 326 120q120 119 120 343v954h117v-956zM1065 1804l-393 -202l-37 63l371 252z" />
    <glyph glyph-name="Ucircumflex" unicode="&#xdb;" horiz-adv-x="1449" 
d="M1286 545q0 -263 -153 -414q-152 -151 -410 -151q-263 0 -410 147t-147 418v956h115v-954q0 -227 117 -344q119 -119 325 -119q205 0 326 120q120 119 120 343v954h117v-956zM1004 1626h-121l-162 201l-154 -201h-118l247 305h62z" />
    <glyph glyph-name="Udieresis" unicode="&#xdc;" horiz-adv-x="1449" 
d="M1286 545q0 -263 -153 -414q-152 -151 -410 -151q-263 0 -410 147t-147 418v956h115v-954q0 -227 117 -344q119 -119 325 -119q205 0 326 120q120 119 120 343v954h117v-956zM987 1741q0 -36 -25 -61t-61 -25q-37 0 -62 25q-26 26 -26 61q0 33 26 61q25 27 62 27
q35 0 61 -27q25 -26 25 -61zM637 1741q0 -35 -26 -61q-25 -25 -60 -25t-60 25q-26 26 -26 61q0 33 26 61q25 27 60 27t60 -27q26 -28 26 -61z" />
    <glyph glyph-name="Yacute" unicode="&#xdd;" horiz-adv-x="1282" 
d="M1223 1501l-525 -827v-674h-114v676l-525 825h129l457 -729l451 729h127zM979 1804l-393 -202l-37 63l371 252z" />
    <glyph glyph-name="Thorn" unicode="&#xde;" horiz-adv-x="1136" 
d="M1065 770q0 -229 -158 -372q-157 -142 -430 -142q-82 0 -184 12v-268h-115v1501h115v-260q90 8 194 8q276 0 427 -137t151 -342zM942 764q0 159 -117 270t-325 111q-99 0 -207 -15v-757q125 -15 188 -15q217 0 340 112q121 111 121 294z" />
    <glyph glyph-name="germandbls" unicode="&#xdf;" horiz-adv-x="958" 
d="M889 836l-307 -385q147 -7 232 -92q83 -83 83 -207q0 -161 -112 -253t-285 -92q-75 0 -138 15l15 98q61 -12 121 -12q135 0 212 63q76 63 76 176q0 99 -71 158q-72 60 -203 60q-38 0 -90 -7l-10 25l295 373h-457v-756h-113v1137q0 187 79 282q80 97 226 97q80 0 131 -21
l-20 -98q-44 16 -100 16q-105 0 -154 -61t-49 -201v-295h631z" />
    <glyph glyph-name="agrave" unicode="&#xe0;" horiz-adv-x="886" 
d="M770 0h-106v92q-108 -108 -271 -108q-136 0 -225 71q-90 72 -90 197q0 118 91 193t228 75q123 0 260 -65v77q0 124 -58 182t-189 58q-115 0 -224 -47l-22 98q132 49 258 49q348 0 348 -340v-532zM657 190v168q-127 72 -245 72q-101 0 -163 -46q-63 -46 -63 -132
q0 -84 62 -129t168 -45q147 0 241 112zM537 1034l-39 -61l-394 203l64 110z" />
    <glyph glyph-name="aacute" unicode="&#xe1;" horiz-adv-x="886" 
d="M770 0h-106v92q-108 -108 -271 -108q-136 0 -225 71q-90 72 -90 197q0 118 91 193t228 75q123 0 260 -65v77q0 124 -58 182t-189 58q-115 0 -224 -47l-22 98q132 49 258 49q348 0 348 -340v-532zM657 190v168q-127 72 -245 72q-101 0 -163 -46q-63 -46 -63 -132
q0 -84 62 -129t168 -45q147 0 241 112zM788 1176l-393 -203l-37 63l371 252z" />
    <glyph glyph-name="acircumflex" unicode="&#xe2;" horiz-adv-x="886" 
d="M770 0h-106v92q-108 -108 -271 -108q-136 0 -225 71q-90 72 -90 197q0 118 91 193t228 75q123 0 260 -65v77q0 124 -58 182t-189 58q-115 0 -224 -47l-22 98q132 49 258 49q348 0 348 -340v-532zM657 190v168q-127 72 -245 72q-101 0 -163 -46q-63 -46 -63 -132
q0 -84 62 -129t168 -45q147 0 241 112zM727 997h-121l-162 201l-153 -201h-119l248 306h61z" />
    <glyph glyph-name="atilde" unicode="&#xe3;" horiz-adv-x="886" 
d="M770 0h-106v92q-108 -108 -271 -108q-136 0 -225 71q-90 72 -90 197q0 118 91 193t228 75q123 0 260 -65v77q0 124 -58 182t-189 58q-115 0 -224 -47l-22 98q132 49 258 49q348 0 348 -340v-532zM657 190v168q-127 72 -245 72q-101 0 -163 -46q-63 -46 -63 -132
q0 -84 62 -129t168 -45q147 0 241 112zM762 1128q-96 -115 -193 -110q-51 0 -127 45q-68 44 -106 45q-64 0 -133 -84l-58 70q96 115 193 110q53 0 125 -45q72 -44 108 -45q65 0 134 84z" />
    <glyph glyph-name="adieresis" unicode="&#xe4;" horiz-adv-x="886" 
d="M770 0h-106v92q-108 -108 -271 -108q-136 0 -225 71q-90 72 -90 197q0 118 91 193t228 75q123 0 260 -65v77q0 124 -58 182t-189 58q-115 0 -224 -47l-22 98q132 49 258 49q348 0 348 -340v-532zM657 190v168q-127 72 -245 72q-101 0 -163 -46q-63 -46 -63 -132
q0 -84 62 -129t168 -45q147 0 241 112zM713 1112q0 -34 -26 -60t-60 -26q-37 0 -63 26q-25 25 -25 60q0 36 25 62t63 26q35 0 60 -26q26 -28 26 -62zM362 1112q0 -35 -25 -60q-26 -26 -61 -26q-34 0 -60 26t-26 60t26 62q25 26 60 26q36 0 61 -26t25 -62z" />
    <glyph glyph-name="aring" unicode="&#xe5;" horiz-adv-x="886" 
d="M770 0h-106v92q-108 -108 -271 -108q-136 0 -225 71q-90 72 -90 197q0 118 91 193t228 75q123 0 260 -65v77q0 124 -58 182t-189 58q-115 0 -224 -47l-22 98q132 49 258 49q348 0 348 -340v-532zM662 1200q0 -86 -59 -147q-59 -60 -152 -60q-92 0 -152 60q-59 59 -59 147
t59 147q60 60 152 60q91 0 151 -60t60 -147zM657 190v168q-127 72 -245 72q-101 0 -163 -46q-63 -46 -63 -132q0 -84 62 -129t168 -45q147 0 241 112zM578 1200q0 60 -36 97q-36 38 -91 38q-54 0 -90 -38q-35 -36 -35 -97q0 -58 35 -96q36 -39 90 -39q55 0 91 38
q36 37 36 97z" />
    <glyph glyph-name="ae" unicode="&#xe6;" horiz-adv-x="1511" 
d="M657 455v77q0 123 -57 182q-57 58 -190 58q-115 0 -224 -47l-22 98q132 49 260 49q252 0 309 -184q108 184 330 184q173 0 271 -114q98 -115 98 -295q0 -32 -2 -60h-662q7 -144 95 -232q87 -87 255 -87q114 0 242 51q0 -1 1 -4l2 -6t1 -6q1 -8 8 -32q7 -23 8 -34l4 -14
q-144 -55 -272 -55q-289 0 -391 213q-50 -103 -141 -158t-205 -55q-125 0 -211 72t-86 196q0 118 91 193t226 75q133 0 262 -65zM1325 494q-7 123 -76 202q-67 78 -194 78q-122 0 -195 -76t-88 -204h553zM666 344q-113 86 -254 86q-101 0 -163 -46q-63 -46 -63 -132
q0 -83 58 -129q57 -45 153 -45q100 0 175 65q78 67 94 201z" />
    <glyph glyph-name="ccedilla" unicode="&#xe7;" horiz-adv-x="868" 
d="M700 -307q0 -76 -55 -127t-153 -51q-96 0 -218 67l37 74q105 -59 181 -59q52 0 82 24t30 68q0 108 -207 129l-6 12l43 164q-156 30 -252 150t-96 280q0 187 127 317q128 131 322 131q148 0 284 -86l-51 -88q-118 74 -240 74q-145 0 -238 -95t-93 -249q0 -150 97 -247
t238 -97q123 0 242 74l45 -88q-136 -86 -284 -86h-23l-25 -97q109 -23 161 -73q52 -51 52 -121z" />
    <glyph glyph-name="egrave" unicode="&#xe8;" horiz-adv-x="944" 
d="M864 459q0 -37 -4 -56h-661q7 -144 95 -232q87 -87 255 -87q115 0 244 51q0 -1 1 -4l2 -6t1 -6t1.5 -7.5t3 -12l2.5 -12.5q7 -31 7 -34l4 -14q-144 -55 -272 -55q-220 0 -338 124q-119 125 -119 318q0 187 112 317q111 129 296 129q176 0 273 -115t97 -298zM203 494h553
q-7 123 -76 202q-68 78 -195 78q-121 0 -194 -76t-88 -204zM578 1034l-39 -61l-394 203l64 110z" />
    <glyph glyph-name="eacute" unicode="&#xe9;" horiz-adv-x="944" 
d="M829 1176l-393 -203l-37 63l371 252zM864 459q0 -37 -4 -56h-661q7 -144 95 -232q87 -87 255 -87q115 0 244 51q0 -1 1 -4l2 -6t1 -6t1.5 -7.5t3 -12l2.5 -12.5q7 -31 7 -34l4 -14q-144 -55 -272 -55q-220 0 -338 124q-119 125 -119 318q0 187 112 317q111 129 296 129
q176 0 273 -115t97 -298zM203 494h553q-7 123 -76 202q-68 78 -195 78q-121 0 -194 -76t-88 -204z" />
    <glyph glyph-name="ecircumflex" unicode="&#xea;" horiz-adv-x="944" 
d="M768 997h-121l-162 201l-153 -201h-119l248 306h61zM864 459q0 -37 -4 -56h-661q7 -144 95 -232q87 -87 255 -87q115 0 244 51q0 -1 1 -4l2 -6t1 -6t1.5 -7.5t3 -12l2.5 -12.5q7 -31 7 -34l4 -14q-144 -55 -272 -55q-220 0 -338 124q-119 125 -119 318q0 187 112 317
q111 129 296 129q176 0 273 -115t97 -298zM203 494h553q-7 123 -76 202q-68 78 -195 78q-121 0 -194 -76t-88 -204z" />
    <glyph glyph-name="edieresis" unicode="&#xeb;" horiz-adv-x="944" 
d="M752 1112q0 -34 -26 -60t-60 -26q-37 0 -63 26q-25 25 -25 60q0 36 25 62t63 26q35 0 60 -26q26 -28 26 -62zM401 1112q0 -35 -25 -60q-26 -26 -61 -26q-34 0 -60 26t-26 60t26 62q25 26 60 26q36 0 61 -26t25 -62zM864 459q0 -37 -4 -56h-661q7 -144 95 -232
q87 -87 255 -87q115 0 244 51q0 -1 1 -4l2 -6t1 -6t1.5 -7.5t3 -12l2.5 -12.5q7 -31 7 -34l4 -14q-144 -55 -272 -55q-220 0 -338 124q-119 125 -119 318q0 187 112 317q111 129 296 129q176 0 273 -115t97 -298zM203 494h553q-7 123 -76 202q-68 78 -195 78
q-121 0 -194 -76t-88 -204z" />
    <glyph glyph-name="igrave" unicode="&#xec;" horiz-adv-x="391" 
d="M254 0h-115v856h115v-856zM283 1034l-39 -61l-394 203l64 110z" />
    <glyph glyph-name="iacute" unicode="&#xed;" horiz-adv-x="391" 
d="M535 1176l-394 -203l-37 63l371 252zM254 0h-115v856h115v-856z" />
    <glyph glyph-name="icircumflex" unicode="&#xee;" horiz-adv-x="391" 
d="M473 997h-121l-162 201l-153 -201h-119l248 306h61zM254 0h-115v856h115v-856z" />
    <glyph glyph-name="idieresis" unicode="&#xef;" horiz-adv-x="391" 
d="M459 1112q0 -34 -26 -60t-60 -26q-37 0 -63 26q-25 25 -25 60q0 36 25 62t63 26q35 0 60 -26q26 -28 26 -62zM109 1112q0 -34 -26 -60t-60 -26q-35 0 -61 26q-25 25 -25 60q0 36 25 62t61 26q35 0 60 -26q26 -28 26 -62zM254 0h-115v856h115v-856z" />
    <glyph glyph-name="eth" unicode="&#xf0;" horiz-adv-x="1021" 
d="M293 1057l-60 69l168 150q-104 81 -237 143l45 88q157 -75 270 -161l144 127l61 -72l-131 -115q383 -338 383 -827q0 -211 -120 -343t-308 -132q-194 0 -307 132q-113 133 -113 326q0 180 113 307q112 125 282 125q198 0 310 -149q-66 273 -318 492zM823 432
q0 151 -86 248q-86 96 -235 96q-136 0 -218 -96q-83 -97 -83 -244q0 -148 85 -252t224 -104q140 0 226 101q87 102 87 251z" />
    <glyph glyph-name="ntilde" unicode="&#xf1;" 
d="M850 0h-115v551q0 223 -196 223q-147 0 -297 -164v-610h-113v856h109v-147q153 163 327 163q142 0 213 -80q72 -81 72 -217v-575zM799 1128q-96 -115 -193 -110q-50 0 -127 45q-68 44 -106 45q-64 0 -133 -84l-58 70q96 115 193 110q53 0 125 -45q72 -44 108 -45
q64 0 133 84z" />
    <glyph glyph-name="ograve" unicode="&#xf2;" horiz-adv-x="1024" 
d="M938 430q0 -189 -121 -317q-121 -129 -305 -129q-186 0 -305 128t-119 316q0 186 120 315t306 129q184 0 304 -128t120 -314zM823 428q0 153 -86 251q-85 97 -225 97t-225 -98q-86 -100 -86 -250t86 -250q85 -98 225 -98t225 98q86 100 86 250zM598 1034l-39 -61
l-393 203l63 110z" />
    <glyph glyph-name="oacute" unicode="&#xf3;" horiz-adv-x="1024" 
d="M850 1176l-393 -203l-37 63l371 252zM938 430q0 -189 -121 -317q-121 -129 -305 -129q-186 0 -305 128t-119 316q0 186 120 315t306 129q184 0 304 -128t120 -314zM823 428q0 153 -86 251q-85 97 -225 97t-225 -98q-86 -100 -86 -250t86 -250q85 -98 225 -98t225 98
q86 100 86 250z" />
    <glyph glyph-name="ocircumflex" unicode="&#xf4;" horiz-adv-x="1024" 
d="M788 997h-120l-162 201l-154 -201h-119l248 306h62zM938 430q0 -189 -121 -317q-121 -129 -305 -129q-186 0 -305 128t-119 316q0 186 120 315t306 129q184 0 304 -128t120 -314zM823 428q0 153 -86 251q-85 97 -225 97t-225 -98q-86 -100 -86 -250t86 -250
q85 -98 225 -98t225 98q86 100 86 250z" />
    <glyph glyph-name="otilde" unicode="&#xf5;" horiz-adv-x="1024" 
d="M938 430q0 -189 -121 -317q-121 -129 -305 -129q-186 0 -305 128t-119 316q0 186 120 315t306 129q184 0 304 -128t120 -314zM823 428q0 153 -86 251q-85 97 -225 97t-225 -98q-86 -100 -86 -250t86 -250q85 -98 225 -98t225 98q86 100 86 250zM823 1128
q-96 -114 -192 -110q-51 0 -127 45q-67 43 -107 45q-64 0 -133 -84l-57 70q96 114 192 110q53 0 125 -45q72 -44 109 -45q64 0 133 84z" />
    <glyph glyph-name="odieresis" unicode="&#xf6;" horiz-adv-x="1024" 
d="M772 1112q0 -34 -26 -60t-60 -26q-36 0 -62 26t-26 60t26 62q25 26 62 26q35 0 60 -26q26 -28 26 -62zM422 1112q0 -34 -26 -60t-60 -26q-35 0 -61 26q-25 25 -25 60q0 36 25 62t61 26q35 0 60 -26q26 -28 26 -62zM938 430q0 -189 -121 -317q-121 -129 -305 -129
q-186 0 -305 128t-119 316q0 186 120 315t306 129q184 0 304 -128t120 -314zM823 428q0 153 -86 251q-85 97 -225 97t-225 -98q-86 -100 -86 -250t86 -250q85 -98 225 -98t225 98q86 100 86 250z" />
    <glyph glyph-name="divide" unicode="&#xf7;" horiz-adv-x="942" 
d="M123 524v101h696v-101h-696zM389 868q0 36 24 60t58 24t58 -24t24 -60q0 -33 -24 -57q-25 -25 -58 -25q-32 0 -57 25t-25 57zM389 276q0 36 24 60t58 24t58 -24t24 -60q0 -33 -24 -57t-58 -24q-33 0 -57 24q-25 25 -25 57z" />
    <glyph glyph-name="oslash" unicode="&#xf8;" horiz-adv-x="1024" 
d="M971 807l-115 -109q82 -112 82 -268q0 -190 -120 -318t-306 -128q-171 0 -287 110l-114 -110l-60 59l119 113q-82 116 -82 272q0 188 120 316t306 128q173 0 289 -112l110 106zM248 229l481 461q-83 86 -217 86q-140 0 -226 -96q-85 -95 -85 -252q0 -110 47 -199z
M778 623l-479 -459q84 -84 213 -84q142 0 227 97q86 98 86 251q0 110 -47 195z" />
    <glyph glyph-name="ugrave" unicode="&#xf9;" 
d="M842 0h-109v141q-60 -63 -150 -111q-86 -46 -173 -46q-144 0 -216 81q-73 82 -73 216v575h115v-551q0 -223 198 -223q149 0 295 160v614h113v-856zM567 1034l-39 -61l-393 203l64 110z" />
    <glyph glyph-name="uacute" unicode="&#xfa;" 
d="M819 1176l-393 -203l-37 63l371 252zM842 0h-109v141q-60 -63 -150 -111q-86 -46 -173 -46q-144 0 -216 81q-73 82 -73 216v575h115v-551q0 -223 198 -223q149 0 295 160v614h113v-856z" />
    <glyph glyph-name="ucircumflex" unicode="&#xfb;" 
d="M758 997h-121l-162 201l-153 -201h-119l248 306h61zM842 0h-109v141q-60 -63 -150 -111q-86 -46 -173 -46q-144 0 -216 81q-73 82 -73 216v575h115v-551q0 -223 198 -223q149 0 295 160v614h113v-856z" />
    <glyph glyph-name="udieresis" unicode="&#xfc;" 
d="M741 1112q0 -35 -25 -60q-26 -26 -61 -26q-36 0 -62 26t-26 60t26 62q25 26 62 26q36 0 61 -26t25 -62zM391 1112q0 -35 -25 -60q-26 -26 -61 -26q-34 0 -60 26t-26 60t26 62q25 26 60 26q36 0 61 -26t25 -62zM842 0h-109v141q-60 -63 -150 -111q-86 -46 -173 -46
q-144 0 -216 81q-73 82 -73 216v575h115v-551q0 -223 198 -223q149 0 295 160v614h113v-856z" />
    <glyph glyph-name="yacute" unicode="&#xfd;" horiz-adv-x="874" 
d="M860 856l-604 -1298h-115l242 499l-367 799h125l297 -684l299 684h123zM774 1176l-393 -203l-37 63l371 252z" />
    <glyph glyph-name="thorn" unicode="&#xfe;" horiz-adv-x="1036" 
d="M948 430q0 -195 -121 -320q-121 -126 -307 -126q-148 0 -278 88v-514h-113v1943h109v-749q123 120 301 120q173 0 291 -126q118 -125 118 -316zM836 428q0 150 -88 248t-226 98q-169 0 -280 -129v-450q115 -115 278 -115q138 0 226 96q90 98 90 252z" />
    <glyph glyph-name="ydieresis" unicode="&#xff;" horiz-adv-x="874" 
d="M860 856l-604 -1298h-115l242 499l-367 799h125l297 -684l299 684h123zM698 1112q0 -35 -25 -60q-26 -26 -61 -26q-36 0 -62 26t-26 60t26 62q25 26 62 26q36 0 61 -26t25 -62zM348 1112q0 -35 -25 -60q-26 -26 -61 -26q-34 0 -60 26t-26 60t26 62q25 26 60 26
q36 0 61 -26t25 -62z" />
    <glyph glyph-name="Amacron" unicode="&#x100;" horiz-adv-x="1425" 
d="M1380 0h-123l-194 459h-705l-192 -459h-121l657 1526h21zM1020 557l-309 735l-310 -735h619zM1008 1704h-588v98h588v-98z" />
    <glyph glyph-name="amacron" unicode="&#x101;" horiz-adv-x="886" 
d="M770 0h-106v92q-108 -108 -271 -108q-136 0 -225 71q-90 72 -90 197q0 118 91 193t228 75q123 0 260 -65v77q0 124 -58 182t-189 58q-115 0 -224 -47l-22 98q132 49 258 49q348 0 348 -340v-532zM657 190v168q-127 72 -245 72q-101 0 -163 -46q-63 -46 -63 -132
q0 -84 62 -129t168 -45q147 0 241 112zM745 1049h-587v98h587v-98z" />
    <glyph glyph-name="Abreve" unicode="&#x102;" horiz-adv-x="1425" 
d="M1380 0h-123l-194 459h-705l-192 -459h-121l657 1526h21zM1020 557l-309 735l-310 -735h619zM963 1894q0 -100 -68 -171q-67 -70 -182 -70q-114 0 -181 70q-68 71 -69 171l104 11q1 -74 40 -119q37 -43 106 -43q68 0 105 43q39 45 40 119z" />
    <glyph glyph-name="abreve" unicode="&#x103;" horiz-adv-x="886" 
d="M770 0h-106v92q-108 -108 -271 -108q-136 0 -225 71q-90 72 -90 197q0 118 91 193t228 75q123 0 260 -65v77q0 124 -58 182t-189 58q-115 0 -224 -47l-22 98q132 49 258 49q348 0 348 -340v-532zM657 190v168q-127 72 -245 72q-101 0 -163 -46q-63 -46 -63 -132
q0 -84 62 -129t168 -45q147 0 241 112zM700 1239q0 -101 -67 -171q-68 -71 -182 -71q-113 0 -181 71q-68 70 -69 171l104 10q1 -74 40 -119q37 -43 106 -43q68 0 105 43q39 45 40 119z" />
    <glyph glyph-name="Aogonek" unicode="&#x104;" horiz-adv-x="1425" 
d="M1421 -346q-77 -103 -178 -103q-73 -2 -116 41q-44 44 -44 115q1 117 172 297l-192 455h-705l-192 -459h-121l657 1526h21l657 -1526h-34q-166 -179 -166 -281q0 -40 21 -64t56 -24q62 0 115 70zM1020 557l-309 735l-310 -735h619z" />
    <glyph glyph-name="aogonek" unicode="&#x105;" horiz-adv-x="886" 
d="M823 -346q-77 -103 -178 -103q-73 -2 -116 41q-44 44 -44 115q1 65 43 136q39 66 136 165v84q-108 -108 -271 -108q-136 0 -225 71q-90 72 -90 197q0 118 91 193t228 75q123 0 260 -65v77q0 124 -58 182t-189 58q-115 0 -224 -47l-22 98q132 49 258 49q348 0 348 -340
v-532h-22q-166 -179 -166 -281q0 -40 21 -64t56 -24q62 0 115 70zM657 190v168q-127 72 -245 72q-101 0 -163 -46q-63 -46 -63 -132q0 -84 62 -129t168 -45q147 0 241 112z" />
    <glyph glyph-name="Cacute" unicode="&#x106;" horiz-adv-x="1515" 
d="M1210 1831l-393 -203l-37 64l371 252zM1423 143q-245 -163 -518 -163q-334 0 -560 211t-226 557q0 344 228 561q227 217 558 217q281 0 522 -164l-51 -96q-234 153 -477 153q-282 0 -468 -185q-187 -186 -187 -484t189 -481t472 -183q241 0 477 152z" />
    <glyph glyph-name="cacute" unicode="&#x107;" horiz-adv-x="868" 
d="M846 1176l-393 -203l-37 63l370 252zM819 70q-136 -86 -284 -86q-195 0 -322 127t-127 313q0 187 127 317q128 131 322 131q148 0 284 -86l-51 -88q-118 74 -240 74q-145 0 -238 -95t-93 -249q0 -150 97 -247t238 -97q123 0 242 74z" />
    <glyph glyph-name="Cdotaccent" unicode="&#x10a;" horiz-adv-x="1515" 
d="M1423 143q-245 -163 -518 -163q-334 0 -560 211t-226 557q0 344 228 561q227 217 558 217q281 0 522 -164l-51 -96q-234 153 -477 153q-282 0 -468 -185q-187 -186 -187 -484t189 -481t472 -183q241 0 477 152zM784 1767q0 34 26 62q25 26 60 26q38 0 63 -26t25 -62
q0 -35 -25 -60q-26 -26 -63 -26q-34 0 -60 26t-26 60z" />
    <glyph glyph-name="cdotaccent" unicode="&#x10b;" horiz-adv-x="868" 
d="M819 70q-136 -86 -284 -86q-195 0 -322 127t-127 313q0 187 127 317q128 131 322 131q148 0 284 -86l-51 -88q-118 74 -240 74q-145 0 -238 -95t-93 -249q0 -150 97 -247t238 -97q123 0 242 74zM422 1112q0 36 25 62t61 26q37 0 62 -26q26 -28 26 -62t-26 -60t-62 -26
q-35 0 -61 26q-25 25 -25 60z" />
    <glyph glyph-name="Ccaron" unicode="&#x10c;" horiz-adv-x="1515" 
d="M1149 1948l-250 -306h-59l-246 306h121l159 -201l156 201h119zM1423 143q-245 -163 -518 -163q-334 0 -560 211t-226 557q0 344 228 561q227 217 558 217q281 0 522 -164l-51 -96q-234 153 -477 153q-282 0 -468 -185q-187 -186 -187 -484t189 -481t472 -183
q241 0 477 152z" />
    <glyph glyph-name="ccaron" unicode="&#x10d;" horiz-adv-x="868" 
d="M786 1292l-249 -305h-60l-246 305h121l160 -200l156 200h118zM819 70q-136 -86 -284 -86q-195 0 -322 127t-127 313q0 187 127 317q128 131 322 131q148 0 284 -86l-51 -88q-118 74 -240 74q-145 0 -238 -95t-93 -249q0 -150 97 -247t238 -97q123 0 242 74z" />
    <glyph glyph-name="Dcaron" unicode="&#x10e;" horiz-adv-x="1515" 
d="M1397 764q0 -329 -223 -553q-223 -225 -623 -225q-189 0 -373 24v1481q192 25 365 25q201 0 368 -63t270 -169q101 -104 159 -240q57 -133 57 -280zM1274 764q0 280 -194 466q-192 185 -535 185q-160 0 -252 -16v-1297q99 -16 262 -16q346 0 532 189q187 190 187 489z
M1001 1948l-249 -306h-60l-246 306h121l160 -201l156 201h118z" />
    <glyph glyph-name="dcaron" unicode="&#x10f;" horiz-adv-x="1036" 
d="M1104 1501l110 -16q0 -233 -184 -377l-51 43q119 125 125 350zM907 0h-108v104q-116 -120 -295 -120q-182 0 -299 124t-117 316q0 188 123 318t297 130q171 0 287 -106v735h112v-1501zM795 215v430q-107 129 -281 129q-136 0 -224 -97q-89 -98 -89 -251q0 -150 88 -247
t229 -97q169 0 277 133z" />
    <glyph glyph-name="Dcroat" unicode="&#x110;" horiz-adv-x="1576" 
d="M1458 764q0 -329 -223 -553q-223 -225 -623 -225q-188 0 -372 24v703h-179v102h179v676q192 25 364 25q202 0 369 -63q166 -63 269 -169t160 -240q56 -131 56 -280zM1335 764q0 280 -192 466q-191 185 -535 185q-162 0 -254 -16v-584h279v-102h-279v-611q99 -16 264 -16
q345 0 531 189t186 489z" />
    <glyph glyph-name="dcroat" unicode="&#x111;" horiz-adv-x="1036" 
d="M907 0h-108v104q-116 -120 -295 -120q-182 0 -299 124t-117 316q0 188 123 318t297 130q171 0 287 -106v401h-299v99h299v235h112v-235h119v-99h-119v-1167zM795 215v430q-107 129 -281 129q-136 0 -224 -97q-89 -98 -89 -251q0 -150 88 -247t229 -97q169 0 277 133z" />
    <glyph glyph-name="Emacron" unicode="&#x112;" horiz-adv-x="1153" 
d="M1026 0h-848v1501h848v-102h-733v-586h661v-102h-661v-607h733v-104zM899 1704h-588v98h588v-98z" />
    <glyph glyph-name="emacron" unicode="&#x113;" horiz-adv-x="944" 
d="M864 459q0 -37 -4 -56h-661q7 -144 95 -232q87 -87 255 -87q115 0 244 51q0 -1 1 -4l2 -6t1 -6t1.5 -7.5t3 -12l2.5 -12.5q7 -31 7 -34l4 -14q-144 -55 -272 -55q-220 0 -338 124q-119 125 -119 318q0 187 112 317q111 129 296 129q176 0 273 -115t97 -298zM203 494h553
q-7 123 -76 202q-68 78 -195 78q-121 0 -194 -76t-88 -204zM786 1049h-587v98h587v-98z" />
    <glyph glyph-name="Ebreve" unicode="&#x114;" horiz-adv-x="1153" 
d="M1026 0h-848v1501h848v-102h-733v-586h661v-102h-661v-607h733v-104zM854 1894q0 -100 -68 -171q-67 -70 -182 -70q-113 0 -180 70q-69 72 -70 171l105 11q1 -74 40 -119q37 -43 105 -43q69 0 106 43q39 45 40 119z" />
    <glyph glyph-name="ebreve" unicode="&#x115;" horiz-adv-x="944" 
d="M864 459q0 -37 -4 -56h-661q7 -144 95 -232q87 -87 255 -87q115 0 244 51q0 -1 1 -4l2 -6t1 -6t1.5 -7.5t3 -12l2.5 -12.5q7 -31 7 -34l4 -14q-144 -55 -272 -55q-220 0 -338 124q-119 125 -119 318q0 187 112 317q111 129 296 129q176 0 273 -115t97 -298zM203 494h553
q-7 123 -76 202q-68 78 -195 78q-121 0 -194 -76t-88 -204zM741 1239q0 -101 -67 -171q-68 -71 -182 -71q-113 0 -181 71q-67 70 -69 171l104 10q1 -74 40 -119q37 -43 106 -43q68 0 105 43q39 45 40 119z" />
    <glyph glyph-name="Edotaccent" unicode="&#x116;" horiz-adv-x="1153" 
d="M1026 0h-848v1501h848v-102h-733v-586h661v-102h-661v-607h733v-104zM516 1767q0 34 26 62q25 26 60 26q38 0 63 -26t25 -62q0 -35 -25 -60q-26 -26 -63 -26q-34 0 -60 26t-26 60z" />
    <glyph glyph-name="edotaccent" unicode="&#x117;" horiz-adv-x="944" 
d="M864 459q0 -37 -4 -56h-661q7 -144 95 -232q87 -87 255 -87q115 0 244 51q0 -1 1 -4l2 -6t1 -6t1.5 -7.5t3 -12l2.5 -12.5q7 -31 7 -34l4 -14q-144 -55 -272 -55q-220 0 -338 124q-119 125 -119 318q0 187 112 317q111 129 296 129q176 0 273 -115t97 -298zM203 494h553
q-7 123 -76 202q-68 78 -195 78q-121 0 -194 -76t-88 -204zM403 1112q0 34 26 62q25 26 60 26q38 0 63 -26q26 -28 26 -62t-26 -60t-63 -26q-34 0 -60 26t-26 60z" />
    <glyph glyph-name="Eogonek" unicode="&#x118;" horiz-adv-x="1153" 
d="M1026 0h-68q-165 -178 -165 -281q0 -40 21 -64t56 -24q62 0 115 70l49 -47q-77 -103 -178 -103q-73 -2 -116 41q-44 44 -44 115q2 119 168 293h-686v1501h848v-102h-733v-586h661v-102h-661v-607h733v-104z" />
    <glyph glyph-name="eogonek" unicode="&#x119;" horiz-adv-x="944" 
d="M864 459q0 -37 -4 -56h-661q7 -144 95 -232q87 -87 255 -87q115 0 244 51l22 -94q-215 -186 -215 -320q0 -41 22 -66q21 -24 56 -24q62 0 115 70l49 -47q-77 -103 -178 -103q-73 -2 -116 41q-44 44 -44 115q0 129 168 291q-73 -14 -129 -14q-220 0 -338 124
q-119 125 -119 318q0 187 112 317q111 129 296 129q176 0 273 -115t97 -298zM203 494h553q-7 123 -76 202q-68 78 -195 78q-121 0 -194 -76t-88 -204z" />
    <glyph glyph-name="Ecaron" unicode="&#x11a;" horiz-adv-x="1153" 
d="M881 1948l-250 -306h-60l-245 306h120l160 -201l156 201h119zM1026 0h-848v1501h848v-102h-733v-586h661v-102h-661v-607h733v-104z" />
    <glyph glyph-name="ecaron" unicode="&#x11b;" horiz-adv-x="944" 
d="M768 1292l-250 -305h-59l-246 305h121l160 -200l155 200h119zM864 459q0 -37 -4 -56h-661q7 -144 95 -232q87 -87 255 -87q115 0 244 51q0 -1 1 -4l2 -6t1 -6t1.5 -7.5t3 -12l2.5 -12.5q7 -31 7 -34l4 -14q-144 -55 -272 -55q-220 0 -338 124q-119 125 -119 318
q0 187 112 317q111 129 296 129q176 0 273 -115t97 -298zM203 494h553q-7 123 -76 202q-68 78 -195 78q-121 0 -194 -76t-88 -204z" />
    <glyph glyph-name="Gbreve" unicode="&#x11e;" horiz-adv-x="1595" 
d="M915 715h543v-551q-233 -184 -545 -184q-206 0 -386 89t-294 268t-114 413q0 174 66 322q65 147 176 247q108 98 250 152q144 55 288 55q172 0 298 -46t257 -139l-61 -90q-235 171 -494 172q-281 0 -468 -189q-187 -188 -187 -484q0 -297 195 -483q194 -185 479 -185
q238 0 425 131v395h-428v107zM1124 1894q0 -101 -67 -171t-183 -70q-113 0 -180 70q-68 71 -69 171l104 11q1 -74 40 -119q37 -43 105 -43q69 0 106 43q39 45 40 119z" />
    <glyph glyph-name="gbreve" unicode="&#x11f;" horiz-adv-x="1036" 
d="M907 -84q0 -379 -358 -379q-135 0 -285 49l21 105q126 -49 252 -49q132 0 195 64q63 65 63 202v188q-121 -112 -291 -112q-182 0 -299 124t-117 316q0 188 123 318t297 130q179 0 291 -116v100h108v-940zM795 211v430q-111 133 -279 133q-139 0 -227 -98t-88 -252
q0 -150 90 -247t233 -97q164 0 271 131zM795 1239q0 -100 -68 -171t-182 -71q-112 0 -180 71q-69 72 -70 171l104 10q1 -74 40 -119q37 -43 106 -43q68 0 105 43q39 45 40 119z" />
    <glyph glyph-name="Gdotaccent" unicode="&#x120;" horiz-adv-x="1595" 
d="M915 715h543v-551q-233 -184 -545 -184q-206 0 -386 89t-294 268t-114 413q0 174 66 322q65 147 176 247q108 98 250 152q144 55 288 55q172 0 298 -46t257 -139l-61 -90q-235 171 -494 172q-281 0 -468 -189q-187 -188 -187 -484q0 -297 195 -483q194 -185 479 -185
q238 0 425 131v395h-428v107zM788 1767q0 34 26 62q25 26 60 26q38 0 63 -26q26 -28 26 -62t-26 -60t-63 -26q-34 0 -60 26t-26 60z" />
    <glyph glyph-name="gdotaccent" unicode="&#x121;" horiz-adv-x="1036" 
d="M907 -84q0 -379 -358 -379q-135 0 -285 49l21 105q126 -49 252 -49q132 0 195 64q63 65 63 202v188q-121 -112 -291 -112q-182 0 -299 124t-117 316q0 188 123 318t297 130q179 0 291 -116v100h108v-940zM795 211v430q-111 133 -279 133q-139 0 -227 -98t-88 -252
q0 -150 90 -247t233 -97q164 0 271 131zM457 1112q0 36 25 62t61 26q37 0 62 -26q26 -28 26 -62t-26 -60t-62 -26q-35 0 -61 26q-25 25 -25 60z" />
    <glyph glyph-name="Gcommaaccent" unicode="&#x122;" horiz-adv-x="1595" 
d="M969 -262q0 -72 -51 -151t-127 -124l-23 27q94 84 115 188q-43 4 -69 29q-26 24 -26 60q0 34 25 59q24 24 59 24q43 0 70 -31t27 -81zM915 715h543v-551q-233 -184 -545 -184q-206 0 -386 89t-294 268t-114 413q0 174 66 322q65 147 176 247q108 98 250 152
q144 55 288 55q172 0 298 -46t257 -139l-61 -90q-235 171 -494 172q-281 0 -468 -189q-187 -188 -187 -484q0 -297 195 -483q194 -185 479 -185q238 0 425 131v395h-428v107z" />
    <glyph glyph-name="gcommaaccent" unicode="&#x123;" horiz-adv-x="1036" 
d="M907 -84q0 -379 -358 -379q-135 0 -285 49l21 105q126 -49 252 -49q132 0 195 64q63 65 63 202v188q-121 -112 -291 -112q-182 0 -299 124t-117 316q0 188 123 318t297 130q179 0 291 -116v100h108v-940zM795 211v430q-111 133 -279 133q-139 0 -227 -98t-88 -252
q0 -150 90 -247t233 -97q164 0 271 131zM449 1163q0 71 51 151q51 79 127 124l22 -27q-93 -83 -114 -188q42 -4 68 -29q26 -24 26 -59t-25 -60q-24 -24 -59 -24q-43 0 -70 31q-26 30 -26 81z" />
    <glyph glyph-name="Hbar" unicode="&#x126;" horiz-adv-x="1447" 
d="M1270 0h-115v713h-862v-713h-115v1135h-162v98h162v268h115v-268h862v268h115v-268h164v-98h-164v-1135zM293 815h862v320h-862v-320z" />
    <glyph glyph-name="hbar" unicode="&#x127;" horiz-adv-x="954" 
d="M846 0h-115v551q0 223 -199 223q-155 0 -301 -164v-610h-112v1167h-121v99h121v235h112v-235h299v-99h-299v-456q151 161 324 161q144 0 217 -80q74 -82 74 -217v-575z" />
    <glyph glyph-name="Imacron" unicode="&#x12a;" horiz-adv-x="485" 
d="M301 0h-115v1501h115v-1501zM539 1704h-588v98h588v-98z" />
    <glyph glyph-name="imacron" unicode="&#x12b;" horiz-adv-x="391" 
d="M254 0h-115v856h115v-856zM492 1049h-588v98h588v-98z" />
    <glyph glyph-name="Ibreve" unicode="&#x12c;" horiz-adv-x="485" 
d="M301 0h-115v1501h115v-1501zM494 1894q0 -100 -68 -171q-67 -70 -182 -70q-114 0 -181 70q-67 71 -69 171l104 11q1 -74 40 -119q37 -43 106 -43q68 0 105 43q39 45 40 119z" />
    <glyph glyph-name="ibreve" unicode="&#x12d;" horiz-adv-x="391" 
d="M254 0h-115v856h115v-856zM446 1239q0 -101 -67 -171q-68 -71 -182 -71q-113 0 -181 71q-68 70 -69 171l104 10q1 -74 40 -119q37 -43 106 -43q68 0 105 43q39 45 40 119z" />
    <glyph glyph-name="Iogonek" unicode="&#x12e;" horiz-adv-x="485" 
d="M389 -344q-78 -105 -182 -105q-71 -2 -114 43t-42 117q0 66 34 130q35 65 114 159h-13v1501h115v-1501h-10q-146 -175 -146 -279q0 -40 23 -65t55 -25q62 0 115 70z" />
    <glyph glyph-name="iogonek" unicode="&#x12f;" horiz-adv-x="382" 
d="M338 -344q-78 -105 -180 -105q-73 -2 -116 43q-44 45 -42 117q1 115 150 289h-15v856h115v-856h-10q-144 -176 -144 -279q0 -40 22 -65t54 -25q59 0 117 70zM274 1174q0 -35 -24 -59q-23 -23 -57 -23q-36 0 -59 23t-23 59t23 59q24 24 59 24q33 0 57 -24t24 -59z" />
    <glyph glyph-name="Idotaccent" unicode="&#x130;" horiz-adv-x="485" 
d="M301 0h-115v1501h115v-1501zM156 1767q0 36 25 62t61 26q37 0 62 -26q26 -28 26 -62t-26 -60t-62 -26q-35 0 -61 26q-25 25 -25 60z" />
    <glyph glyph-name="dotlessi" unicode="&#x131;" horiz-adv-x="391" 
d="M254 0h-115v856h115v-856z" />
    <glyph glyph-name="Kcommaaccent" unicode="&#x136;" horiz-adv-x="1214" 
d="M723 -238q0 -70 -51 -150q-51 -79 -127 -124l-23 27q94 84 115 188q-43 4 -69 29q-25 24 -25 59t24 59q25 25 60 25q42 0 69 -32q27 -31 27 -81zM1171 0h-151l-727 741v-741h-115v1501h115v-698l702 698h148l-740 -729z" />
    <glyph glyph-name="kcommaaccent" unicode="&#x137;" horiz-adv-x="815" 
d="M528 -262q0 -72 -51 -151t-127 -124l-22 27q93 83 114 188q-42 4 -68 29q-26 24 -26 60q0 34 25 59q24 24 59 24q43 0 70 -31q26 -30 26 -81zM811 0h-143l-426 422v-422h-113v1501h113v-1024l405 379h144l-445 -403z" />
    <glyph glyph-name="Lacute" unicode="&#x139;" horiz-adv-x="1050" 
d="M637 1831l-393 -203l-37 64l371 252zM1026 0h-848v1501h115v-1397h733v-104z" />
    <glyph glyph-name="lacute" unicode="&#x13a;" horiz-adv-x="382" 
d="M563 1821l-393 -203l-37 63l371 252zM248 0h-113v1501h113v-1501z" />
    <glyph glyph-name="Lcommaaccent" unicode="&#x13b;" horiz-adv-x="1050" 
d="M686 -262q0 -72 -51 -151t-127 -124l-23 27q94 84 115 188q-43 4 -69 29q-25 24 -25 60q0 35 24 59t60 24q42 0 69 -31t27 -81zM1026 0h-848v1501h115v-1397h733v-104z" />
    <glyph glyph-name="lcommaaccent" unicode="&#x13c;" horiz-adv-x="382" 
d="M287 -262q0 -72 -51 -151t-127 -124l-23 27q94 84 115 188q-43 4 -69 29q-26 24 -26 60q0 34 25 59q24 24 59 24q43 0 70 -31t27 -81zM248 0h-113v1501h113v-1501z" />
    <glyph glyph-name="Lcaron" unicode="&#x13d;" horiz-adv-x="1050" 
d="M592 1501l110 -16q0 -233 -184 -377l-51 43q119 125 125 350zM1026 0h-848v1501h115v-1397h733v-104z" />
    <glyph glyph-name="lcaron" unicode="&#x13e;" horiz-adv-x="382" 
d="M446 1501l111 -16q0 -233 -184 -377l-51 43q118 124 124 350zM248 0h-113v1501h113v-1501z" />
    <glyph glyph-name="Ldot" unicode="&#x13f;" horiz-adv-x="1050" 
d="M1026 0h-848v1501h115v-1397h733v-104zM688 756q0 -35 26 -61q25 -25 60 -25q38 0 63 25t25 61q0 35 -25 61q-25 27 -63 27q-34 0 -60 -27q-26 -28 -26 -61z" />
    <glyph glyph-name="ldot" unicode="&#x140;" horiz-adv-x="534" 
d="M248 0h-113v1501h113v-1501zM371 752q0 -36 25 -61t61 -25q37 0 62 25q26 26 26 61q0 33 -26 61q-26 27 -62 27q-35 0 -61 -27q-25 -26 -25 -61z" />
    <glyph glyph-name="Lslash" unicode="&#x141;" horiz-adv-x="1091" 
d="M1067 0h-848v668l-133 -60v111l133 59v723h115v-672l213 99v-111q-213 -96 -213 -98v-615h733v-104z" />
    <glyph glyph-name="lslash" unicode="&#x142;" horiz-adv-x="434" 
d="M379 760l-105 -47v-713h-114v655l-105 -47v111l105 47v735h114v-678l105 47v-110z" />
    <glyph glyph-name="Nacute" unicode="&#x143;" horiz-adv-x="1488" 
d="M1081 1804l-393 -202l-37 63l371 252zM1311 -18l-21 -5l-999 1274v-1251h-113v1518l27 6l991 -1260v1237h115v-1519z" />
    <glyph glyph-name="nacute" unicode="&#x144;" 
d="M825 1176l-393 -203l-37 63l371 252zM850 0h-115v551q0 223 -196 223q-147 0 -297 -164v-610h-113v856h109v-147q153 163 327 163q142 0 213 -80q72 -81 72 -217v-575z" />
    <glyph glyph-name="Ncommaaccent" unicode="&#x145;" horiz-adv-x="1488" 
d="M838 -238q0 -69 -52 -150q-51 -79 -127 -124l-22 27q94 84 115 188q-43 4 -69 29q-26 24 -26 59q0 34 25 59t59 25q43 0 70 -32q27 -31 27 -81zM1311 -18l-21 -5l-999 1274v-1251h-113v1518l27 6l991 -1260v1237h115v-1519z" />
    <glyph glyph-name="ncommaaccent" unicode="&#x146;" 
d="M582 -262q0 -70 -52 -151q-51 -79 -127 -124l-22 27q94 84 115 188q-43 4 -69 29q-26 24 -26 60q0 34 25 59q24 24 59 24q43 0 70 -31t27 -81zM850 0h-115v551q0 223 -196 223q-147 0 -297 -164v-610h-113v856h109v-147q153 163 327 163q142 0 213 -80q72 -81 72 -217
v-575z" />
    <glyph glyph-name="Ncaron" unicode="&#x147;" horiz-adv-x="1488" 
d="M1022 1921l-250 -305h-59l-246 305h121l160 -201l155 201h119zM1311 -18l-21 -5l-999 1274v-1251h-113v1518l27 6l991 -1260v1237h115v-1519z" />
    <glyph glyph-name="ncaron" unicode="&#x148;" 
d="M766 1292l-250 -305h-59l-246 305h121l160 -200l155 200h119zM850 0h-115v551q0 223 -196 223q-147 0 -297 -164v-610h-113v856h109v-147q153 163 327 163q142 0 213 -80q72 -81 72 -217v-575z" />
    <glyph glyph-name="Omacron" unicode="&#x14c;" horiz-adv-x="1724" 
d="M1157 1704h-588v98h588v-98zM1606 750q0 -330 -217 -550t-531 -220q-311 0 -525 220t-214 550q0 331 217 552q218 222 530 222q311 0 526 -221q214 -220 214 -553zM1481 750q0 287 -175 478t-444 191q-268 0 -443 -191t-175 -478q0 -286 175 -477t443 -191q269 0 444 191
t175 477z" />
    <glyph glyph-name="omacron" unicode="&#x14d;" horiz-adv-x="1024" 
d="M807 1049h-588v98h588v-98zM938 430q0 -189 -121 -317q-121 -129 -305 -129q-186 0 -305 128t-119 316q0 186 120 315t306 129q184 0 304 -128t120 -314zM823 428q0 153 -86 251q-85 97 -225 97t-225 -98q-86 -100 -86 -250t86 -250q85 -98 225 -98t225 98q86 100 86 250
z" />
    <glyph glyph-name="Obreve" unicode="&#x14e;" horiz-adv-x="1724" 
d="M1606 750q0 -330 -217 -550t-531 -220q-311 0 -525 220t-214 550q0 331 217 552q218 222 530 222q311 0 526 -221q214 -220 214 -553zM1481 750q0 287 -175 478t-444 191q-268 0 -443 -191t-175 -478q0 -286 175 -477t443 -191q269 0 444 191t175 477zM1112 1894
q0 -100 -68 -171q-67 -70 -182 -70q-113 0 -180 70q-69 72 -70 171l105 11q1 -74 40 -119q37 -43 105 -43q69 0 106 43q39 45 40 119z" />
    <glyph glyph-name="obreve" unicode="&#x14f;" horiz-adv-x="1024" 
d="M938 430q0 -189 -121 -317q-121 -129 -305 -129q-186 0 -305 128t-119 316q0 186 120 315t306 129q184 0 304 -128t120 -314zM823 428q0 153 -86 251q-85 97 -225 97t-225 -98q-86 -100 -86 -250t86 -250q85 -98 225 -98t225 98q86 100 86 250zM762 1239q0 -100 -68 -171
t-182 -71q-112 0 -180 71q-69 72 -70 171l105 10q1 -74 40 -119q37 -43 105 -43t105 43q39 45 40 119z" />
    <glyph glyph-name="Ohungarumlaut" unicode="&#x150;" horiz-adv-x="1724" 
d="M967 1968l-226 -328l-57 37l180 355zM1233 1939l-221 -321l-58 37l176 348zM1606 750q0 -330 -217 -550t-531 -220q-311 0 -525 220t-214 550q0 331 217 552q218 222 530 222q311 0 526 -221q214 -220 214 -553zM1481 750q0 287 -175 478t-444 191q-268 0 -443 -191
t-175 -478q0 -286 175 -477t443 -191q269 0 444 191t175 477z" />
    <glyph glyph-name="ohungarumlaut" unicode="&#x151;" horiz-adv-x="1024" 
d="M616 1313l-225 -328l-57 37l180 354zM883 1284l-221 -321l-58 36l176 349zM938 430q0 -189 -121 -317q-121 -129 -305 -129q-186 0 -305 128t-119 316q0 186 120 315t306 129q184 0 304 -128t120 -314zM823 428q0 153 -86 251q-85 97 -225 97t-225 -98q-86 -100 -86 -250
t86 -250q85 -98 225 -98t225 98q86 100 86 250z" />
    <glyph glyph-name="OE" unicode="&#x152;" horiz-adv-x="2187" 
d="M2060 0h-821q-127 -14 -266 -14q-203 0 -368 63q-162 62 -269 169q-102 102 -161 240q-56 131 -56 279q0 159 55 297q56 140 159 248t267 171q163 63 367 63q147 0 282 -15h811v-102h-733v-586h662v-102h-662v-607h733v-104zM1212 102v1299q-99 16 -251 16
q-346 0 -532 -189q-185 -188 -185 -491q0 -278 192 -464q191 -185 535 -185q147 0 241 14z" />
    <glyph glyph-name="oe" unicode="&#x153;" horiz-adv-x="1675" 
d="M1597 459q0 -28 -2 -56h-661q6 -145 93 -232t255 -87q115 0 244 51q0 -1 1 -4l2 -6t1 -6t1.5 -7.5t3 -12l2.5 -12.5q7 -31 7 -34l4 -14q-144 -55 -272 -55q-294 0 -402 221q-51 -102 -146 -162q-93 -59 -216 -59q-186 0 -305 128t-119 316q0 186 120 315t306 129
q123 0 216 -59q97 -62 147 -160q49 100 139 160q88 59 211 59q176 0 273 -115t97 -298zM1489 494q-6 124 -75 202t-195 78q-122 0 -194 -76q-72 -77 -87 -204h551zM823 428q0 153 -86 251q-85 97 -225 97t-225 -98q-86 -100 -86 -250t86 -250q85 -98 225 -98t225 98
q86 100 86 250z" />
    <glyph glyph-name="Racute" unicode="&#x154;" horiz-adv-x="1208" 
d="M1157 0h-139l-410 610q-59 -8 -131 -8q-76 0 -182 8v-610h-117v1487q190 24 322 24q273 0 421 -121t148 -323q0 -156 -91 -269q-91 -114 -257 -163zM946 1061q0 157 -113 252q-114 96 -321 96q-110 0 -217 -18v-678q111 -13 188 -13q222 0 343 97q120 96 120 264z
M913 1831l-393 -203l-37 64l371 252z" />
    <glyph glyph-name="racute" unicode="&#x155;" horiz-adv-x="583" 
d="M549 764q-96 -5 -177 -49q-84 -46 -130 -129v-586h-113v856h109v-162q128 180 311 180v-110zM666 1176l-394 -203l-36 63l370 252z" />
    <glyph glyph-name="Rcommaaccent" unicode="&#x156;" horiz-adv-x="1208" 
d="M1157 0h-139l-410 610q-59 -8 -131 -8q-76 0 -182 8v-610h-117v1487q190 24 322 24q273 0 421 -121t148 -323q0 -156 -91 -269q-91 -114 -257 -163zM946 1061q0 157 -113 252q-114 96 -321 96q-110 0 -217 -18v-678q111 -13 188 -13q222 0 343 97q120 96 120 264z
M678 -248q0 -70 -51 -150q-51 -79 -127 -124l-23 26q94 83 115 189q-44 5 -69 28q-25 24 -25 60q0 35 24 59q25 25 60 25q42 0 69 -32q27 -31 27 -81z" />
    <glyph glyph-name="rcommaaccent" unicode="&#x157;" horiz-adv-x="583" 
d="M549 764q-96 -5 -177 -49q-84 -46 -130 -129v-586h-113v856h109v-162q128 180 311 180v-110zM283 -260q0 -70 -52 -151q-51 -79 -127 -124l-22 27q94 83 115 189q-44 5 -69 28q-26 24 -26 60q0 34 25 59t59 25q43 0 70 -32q27 -31 27 -81z" />
    <glyph glyph-name="Rcaron" unicode="&#x158;" horiz-adv-x="1208" 
d="M1157 0h-139l-410 610q-59 -8 -131 -8q-76 0 -182 8v-610h-117v1487q190 24 322 24q273 0 421 -121t148 -323q0 -156 -91 -269q-91 -114 -257 -163zM946 1061q0 157 -113 252q-114 96 -321 96q-110 0 -217 -18v-678q111 -13 188 -13q222 0 343 97q120 96 120 264z
M854 1948l-250 -306h-59l-246 306h121l160 -201l155 201h119z" />
    <glyph glyph-name="rcaron" unicode="&#x159;" horiz-adv-x="583" 
d="M549 764q-96 -5 -177 -49q-84 -46 -130 -129v-586h-113v856h109v-162q128 180 311 180v-110zM606 1292l-250 -305h-59l-246 305h121l160 -200l155 200h119z" />
    <glyph glyph-name="Sacute" unicode="&#x15a;" horiz-adv-x="1058" 
d="M885 1831l-393 -203l-37 64l370 252zM950 387q0 -181 -132 -296q-133 -116 -326 -116q-221 0 -435 140l56 100q198 -135 389 -135q147 0 239 83q93 84 93 210q0 122 -76 194q-78 74 -254 152q-190 84 -282 177q-91 92 -91 239q0 165 126 278q127 113 325 113
q185 0 338 -103l-56 -96q-133 94 -293 94q-147 0 -236 -80t-89 -198q0 -111 76 -180q81 -73 233 -144q212 -95 303 -187q92 -94 92 -245z" />
    <glyph glyph-name="sacute" unicode="&#x15b;" horiz-adv-x="729" 
d="M709 1176l-394 -203l-36 63l370 252zM637 238q0 -105 -77 -180q-75 -74 -198 -74q-156 0 -299 106l56 82q122 -94 239 -94q82 0 128 40t46 105q0 55 -44 94t-106 63q-59 23 -124 51q-60 26 -105 79q-44 52 -44 125q0 97 74 167t200 70q129 0 248 -81l-51 -86
q-104 73 -199 73q-81 0 -125 -38q-43 -37 -43 -95q0 -52 44 -90q40 -35 105 -60q56 -22 124 -51q66 -28 107 -78q44 -53 44 -128z" />
    <glyph glyph-name="Scedilla" unicode="&#x15e;" horiz-adv-x="1058" 
d="M698 -307q0 -76 -55 -127t-154 -51q-95 0 -217 67l37 74q105 -59 180 -59q53 0 83 24t30 68q0 108 -207 129l-6 12l39 147q-190 18 -371 138l56 100q198 -135 389 -135q147 0 239 83q93 84 93 210q0 122 -76 194q-78 74 -254 152q-190 84 -282 177q-91 92 -91 239
q0 165 126 278q127 113 325 113q185 0 338 -103l-56 -96q-133 94 -293 94q-147 0 -236 -80t-89 -198q0 -111 76 -180q81 -73 233 -144q212 -95 303 -187q92 -94 92 -245q0 -178 -127 -292q-128 -114 -315 -120l-23 -88q109 -23 161 -73q52 -51 52 -121z" />
    <glyph glyph-name="scedilla" unicode="&#x15f;" horiz-adv-x="729" 
d="M553 -307q0 -76 -55 -127t-154 -51q-95 0 -217 67l37 74q105 -59 180 -59q53 0 83 24t30 68q0 108 -207 129l-6 12l43 160q-119 21 -224 100l56 82q122 -94 239 -94q82 0 128 40t46 105q0 55 -44 94t-106 63q-59 23 -124 51q-60 26 -105 79q-44 52 -44 125q0 97 74 167
t200 70q129 0 248 -81l-51 -86q-104 73 -199 73q-81 0 -125 -38q-43 -37 -43 -95q0 -52 44 -90q40 -35 105 -60q56 -22 124 -51q66 -28 107 -78q44 -53 44 -128q0 -103 -77 -178q-76 -74 -195 -76l-25 -97q109 -23 161 -73q52 -51 52 -121z" />
    <glyph glyph-name="Scaron" unicode="&#x160;" horiz-adv-x="1058" 
d="M823 1948l-250 -306h-59l-246 306h121l160 -201l156 201h118zM950 387q0 -181 -132 -296q-133 -116 -326 -116q-221 0 -435 140l56 100q198 -135 389 -135q147 0 239 83q93 84 93 210q0 122 -76 194q-78 74 -254 152q-190 84 -282 177q-91 92 -91 239q0 165 126 278
q127 113 325 113q185 0 338 -103l-56 -96q-133 94 -293 94q-147 0 -236 -80t-89 -198q0 -111 76 -180q81 -73 233 -144q212 -95 303 -187q92 -94 92 -245z" />
    <glyph glyph-name="scaron" unicode="&#x161;" horiz-adv-x="729" 
d="M649 1292l-250 -305h-59l-246 305h121l160 -200l155 200h119zM637 238q0 -105 -77 -180q-75 -74 -198 -74q-156 0 -299 106l56 82q122 -94 239 -94q82 0 128 40t46 105q0 55 -44 94t-106 63q-59 23 -124 51q-60 26 -105 79q-44 52 -44 125q0 97 74 167t200 70
q129 0 248 -81l-51 -86q-104 73 -199 73q-81 0 -125 -38q-43 -37 -43 -95q0 -52 44 -90q40 -35 105 -60q56 -22 124 -51q66 -28 107 -78q44 -53 44 -128z" />
    <glyph glyph-name="Tcommaaccent" unicode="&#x162;" horiz-adv-x="1257" 
d="M723 -262q0 -72 -51 -151t-127 -124l-23 27q94 84 115 188q-43 4 -69 29q-25 24 -25 60q0 35 24 59t60 24q42 0 69 -31t27 -81zM1196 1399h-508v-1399h-117v1399h-510v102h1135v-102z" />
    <glyph glyph-name="tcommaaccent" unicode="&#x163;" horiz-adv-x="600" 
d="M438 -262q0 -72 -51 -151t-127 -124l-22 27q93 83 114 188q-42 4 -68 29q-26 24 -26 60q0 34 25 59q24 24 59 24q43 0 70 -31q26 -30 26 -81zM563 756h-270v-537q0 -135 143 -135q43 0 92 10l11 -96q-74 -14 -129 -14q-228 0 -228 243v529h-145v26l145 80v185l111 81
v-272h270v-100z" />
    <glyph glyph-name="Tcaron" unicode="&#x164;" horiz-adv-x="1257" 
d="M905 1948l-250 -306h-59l-246 306h121l160 -201l155 201h119zM1196 1399h-508v-1399h-117v1399h-510v102h1135v-102z" />
    <glyph glyph-name="tcaron" unicode="&#x165;" horiz-adv-x="600" 
d="M504 1374l110 -16q0 -233 -184 -377l-51 43q119 125 125 350zM563 756h-270v-537q0 -135 143 -135q43 0 92 10l11 -96q-74 -14 -129 -14q-228 0 -228 243v529h-145v26l145 80v185l111 81v-272h270v-100z" />
    <glyph glyph-name="Umacron" unicode="&#x16a;" horiz-adv-x="1449" 
d="M1286 545q0 -263 -153 -414q-152 -151 -410 -151q-263 0 -410 147t-147 418v956h115v-954q0 -227 117 -344q119 -119 325 -119q205 0 326 120q120 119 120 343v954h117v-956zM1022 1677h-588v99h588v-99z" />
    <glyph glyph-name="umacron" unicode="&#x16b;" 
d="M842 0h-109v141q-60 -63 -150 -111q-86 -46 -173 -46q-144 0 -216 81q-73 82 -73 216v575h115v-551q0 -223 198 -223q149 0 295 160v614h113v-856zM776 1049h-588v98h588v-98z" />
    <glyph glyph-name="Ubreve" unicode="&#x16c;" horiz-adv-x="1449" 
d="M1286 545q0 -263 -153 -414q-152 -151 -410 -151q-263 0 -410 147t-147 418v956h115v-954q0 -227 117 -344q119 -119 325 -119q205 0 326 120q120 119 120 343v954h117v-956zM977 1868q0 -100 -68 -171t-182 -71q-112 0 -180 71q-69 72 -70 171l105 10q1 -74 40 -119
q37 -43 105 -43q69 0 106 43q38 44 39 119z" />
    <glyph glyph-name="ubreve" unicode="&#x16d;" 
d="M842 0h-109v141q-60 -63 -150 -111q-86 -46 -173 -46q-144 0 -216 81q-73 82 -73 216v575h115v-551q0 -223 198 -223q149 0 295 160v614h113v-856zM731 1239q0 -101 -67 -171q-68 -71 -183 -71q-112 0 -180 71q-69 72 -70 171l105 10q1 -74 40 -119q37 -43 105 -43
q69 0 106 43q39 45 40 119z" />
    <glyph glyph-name="Uring" unicode="&#x16e;" horiz-adv-x="1449" 
d="M1286 545q0 -263 -153 -414q-152 -151 -410 -151q-263 0 -410 147t-147 418v956h115v-954q0 -227 117 -344q119 -119 325 -119q205 0 326 120q120 119 120 343v954h117v-956zM936 1829q0 -89 -58 -148t-153 -59q-93 0 -152 59t-59 148q0 87 59 146q61 61 152 61t152 -61
q59 -59 59 -146zM852 1829q0 59 -36 97t-91 38q-53 0 -89 -38t-36 -97q0 -57 36 -96t89 -39q55 0 91 38t36 97z" />
    <glyph glyph-name="uring" unicode="&#x16f;" 
d="M690 1200q0 -88 -58 -147q-58 -60 -153 -60q-91 0 -151 60t-60 147t60 147t151 60q92 0 152 -60q59 -59 59 -147zM606 1200q0 60 -36 97q-36 38 -91 38q-53 0 -89 -38q-36 -37 -36 -97q0 -57 36 -96t89 -39q55 0 91 38q36 37 36 97zM842 0h-109v141q-60 -63 -150 -111
q-86 -46 -173 -46q-144 0 -216 81q-73 82 -73 216v575h115v-551q0 -223 198 -223q149 0 295 160v614h113v-856z" />
    <glyph glyph-name="Uhungarumlaut" unicode="&#x170;" horiz-adv-x="1449" 
d="M1286 545q0 -263 -153 -414q-152 -151 -410 -151q-263 0 -410 147t-147 418v956h115v-954q0 -227 117 -344q119 -119 325 -119q205 0 326 120q120 119 120 343v954h117v-956zM831 1942l-225 -328l-57 37l180 354zM1098 1913l-221 -322l-58 37l176 348z" />
    <glyph glyph-name="uhungarumlaut" unicode="&#x171;" 
d="M842 0h-109v141q-60 -63 -150 -111q-86 -46 -173 -46q-144 0 -216 81q-73 82 -73 216v575h115v-551q0 -223 198 -223q149 0 295 160v614h113v-856zM586 1313l-226 -328l-57 37l180 354zM852 1284l-221 -321l-58 36l177 349z" />
    <glyph glyph-name="Uogonek" unicode="&#x172;" horiz-adv-x="1449" 
d="M1286 545q0 -244 -133 -392t-360 -169q-150 -170 -150 -265q0 -39 22 -64q21 -24 56 -24q62 0 115 70l49 -47q-77 -103 -178 -103q-73 -2 -116 41q-44 44 -44 115q1 116 149 273q-249 7 -390 154q-140 146 -140 411v956h115v-954q0 -227 117 -344q119 -119 325 -119
q205 0 326 120q120 119 120 343v954h117v-956z" />
    <glyph glyph-name="uogonek" unicode="&#x173;" 
d="M842 0h-21q-166 -179 -166 -281q0 -39 22 -64q21 -24 56 -24q62 0 115 70l49 -47q-77 -103 -178 -103q-73 -2 -116 41q-44 44 -44 115q1 67 42 135t132 162v137q-60 -63 -150 -111q-86 -46 -173 -46q-144 0 -216 81q-73 82 -73 216v575h115v-551q0 -223 198 -223
q149 0 295 160v614h113v-856z" />
    <glyph glyph-name="Wcircumflex" unicode="&#x174;" horiz-adv-x="1949" 
d="M1251 1653h-121l-161 200l-154 -200h-119l248 305h62zM1880 1501l-393 -1521l-29 -5l-485 1285l-481 -1285l-29 5l-393 1521h114l316 -1231l465 1239h20l469 -1235l313 1227h113z" />
    <glyph glyph-name="wcircumflex" unicode="&#x175;" horiz-adv-x="1251" 
d="M905 997h-121l-161 201l-154 -201h-119l248 306h61zM1214 856l-286 -881h-21l-274 664l-281 -664h-20l-289 881h123l192 -643l263 643h20l268 -643l185 643h120z" />
    <glyph glyph-name="Ycircumflex" unicode="&#x176;" horiz-adv-x="1282" 
d="M1223 1501l-525 -827v-674h-114v676l-525 825h129l457 -729l451 729h127zM918 1626h-121l-162 201l-154 -201h-119l248 305h62z" />
    <glyph glyph-name="ycircumflex" unicode="&#x177;" horiz-adv-x="874" 
d="M860 856l-604 -1298h-115l242 499l-367 799h125l297 -684l299 684h123zM715 997h-121l-162 201l-153 -201h-119l248 306h61z" />
    <glyph glyph-name="Ydieresis" unicode="&#x178;" horiz-adv-x="1282" 
d="M1223 1501l-525 -827v-674h-114v676l-525 825h129l457 -729l451 729h127zM901 1741q0 -36 -25 -61t-61 -25q-37 0 -62 25q-26 26 -26 61q0 33 26 61q25 27 62 27q35 0 61 -27q25 -26 25 -61zM551 1741q0 -35 -26 -61q-25 -25 -60 -25q-36 0 -61 25t-25 61q0 35 25 61
q26 27 61 27t60 -27q26 -28 26 -61z" />
    <glyph glyph-name="Zacute" unicode="&#x179;" horiz-adv-x="1292" 
d="M983 1831l-393 -203l-37 64l371 252zM1188 1481l-914 -1377h904v-104h-1076l-8 20l912 1379h-861v102h1033z" />
    <glyph glyph-name="zacute" unicode="&#x17a;" horiz-adv-x="813" 
d="M741 1176l-393 -203l-37 63l371 252zM770 836l-565 -738h553v-98h-721l-8 18l565 740h-524v98h692z" />
    <glyph glyph-name="Zdotaccent" unicode="&#x17b;" horiz-adv-x="1292" 
d="M1188 1481l-914 -1377h904v-104h-1076l-8 20l912 1379h-861v102h1033zM557 1767q0 34 26 62q25 26 60 26q38 0 63 -26t25 -62q0 -35 -25 -60q-26 -26 -63 -26q-34 0 -60 26t-26 60z" />
    <glyph glyph-name="zdotaccent" unicode="&#x17c;" horiz-adv-x="813" 
d="M770 836l-565 -738h553v-98h-721l-8 18l565 740h-524v98h692zM317 1112q0 34 26 62q25 26 60 26q38 0 63 -26q26 -28 26 -62t-26 -60t-63 -26q-34 0 -60 26t-26 60z" />
    <glyph glyph-name="Zcaron" unicode="&#x17d;" horiz-adv-x="1292" 
d="M922 1948l-250 -306h-60l-245 306h120l160 -201l156 201h119zM1188 1481l-914 -1377h904v-104h-1076l-8 20l912 1379h-861v102h1033z" />
    <glyph glyph-name="zcaron" unicode="&#x17e;" horiz-adv-x="813" 
d="M682 1292l-250 -305h-59l-246 305h121l160 -200l155 200h119zM770 836l-565 -738h553v-98h-721l-8 18l565 740h-524v98h692z" />
    <glyph glyph-name="florin" unicode="&#x192;" horiz-adv-x="768" 
d="M752 1180l-23 -99q-46 15 -98 15q-110 0 -166 -67t-74 -218l-14 -123h205l-4 -98h-211l-68 -590h-115l68 590h-127l6 22l133 82l12 109q43 397 351 397q68 0 125 -20z" />
    <glyph glyph-name="Aringacute" unicode="&#x1fa;" horiz-adv-x="1425" 
d="M1030 2126l-393 -203l-37 64l371 251zM924 1661q0 -76 -47 -134q-45 -56 -125 -71l628 -1456h-123l-194 459h-705l-192 -459h-121l627 1458q-76 12 -123 70t-47 133q0 88 59 147q60 60 152 60q93 0 152 -60q59 -61 59 -147zM1020 557l-309 735l-310 -735h619zM840 1663
q0 57 -36 95t-91 38q-53 0 -89 -38t-36 -95q0 -59 36 -97t89 -38q55 0 91 38t36 97z" />
    <glyph glyph-name="aringacute" unicode="&#x1fb;" horiz-adv-x="886" 
d="M770 0h-106v92q-108 -108 -271 -108q-136 0 -225 71q-90 72 -90 197q0 118 91 193t228 75q123 0 260 -65v77q0 124 -58 182t-189 58q-115 0 -224 -47l-22 98q132 49 258 49q348 0 348 -340v-532zM657 1200q0 -88 -58 -147q-59 -60 -153 -60q-91 0 -151 60q-59 59 -59 147
t59 147q60 60 151 60q92 0 152 -60q59 -59 59 -147zM657 190v168q-127 72 -245 72q-101 0 -163 -46q-63 -46 -63 -132q0 -84 62 -129t168 -45q147 0 241 112zM573 1200q0 61 -35 97q-36 38 -92 38q-53 0 -89 -38q-35 -36 -35 -97q0 -58 35 -96q36 -39 89 -39q56 0 92 38
q35 36 35 97zM784 1698l-393 -203l-37 64l371 251z" />
    <glyph glyph-name="AEacute" unicode="&#x1fc;" horiz-adv-x="2088" 
d="M1962 0h-848v494h-590l-350 -494h-135l1079 1501h844v-102h-731v-586h659v-102h-659v-607h731v-104zM1114 592v731l-520 -731h520zM1661 1831l-393 -203l-37 64l371 252z" />
    <glyph glyph-name="aeacute" unicode="&#x1fd;" horiz-adv-x="1511" 
d="M1094 1176l-394 -203l-36 63l370 252zM657 455v77q0 123 -57 182q-57 58 -190 58q-115 0 -224 -47l-22 98q132 49 260 49q252 0 309 -184q108 184 330 184q173 0 271 -114q98 -115 98 -295q0 -32 -2 -60h-662q7 -144 95 -232q87 -87 255 -87q114 0 242 51q0 -1 1 -4l2 -6
t1 -6q1 -8 8 -32q7 -23 8 -34l4 -14q-144 -55 -272 -55q-289 0 -391 213q-50 -103 -141 -158t-205 -55q-125 0 -211 72t-86 196q0 118 91 193t226 75q133 0 262 -65zM1325 494q-7 123 -76 202q-67 78 -194 78q-122 0 -195 -76t-88 -204h553zM666 344q-113 86 -254 86
q-101 0 -163 -46q-63 -46 -63 -132q0 -83 58 -129q57 -45 153 -45q100 0 175 65q78 67 94 201z" />
    <glyph glyph-name="Oslashacute" unicode="&#x1fe;" horiz-adv-x="1724" 
d="M1606 750q0 -330 -217 -550t-531 -220q-282 0 -491 186l-170 -178l-70 71q7 8 29 30l13 13t21 20.5t22 22.5q50 52 62 64l25 27q-180 217 -180 514q0 331 217 552q218 222 530 222q284 0 492 -191l172 180l69 -69q-139 -146 -174 -180q181 -214 181 -514zM1280 1253
q-172 166 -418 166q-268 0 -443 -191t-175 -478q0 -249 137 -428zM1481 750q0 250 -138 430l-225 -234q-155 -162 -448 -467l-226 -233q175 -164 418 -164q269 0 444 191t175 477zM1200 1831l-393 -203l-37 64l371 252z" />
    <glyph glyph-name="oslashacute" unicode="&#x1ff;" horiz-adv-x="1024" 
d="M971 807l-115 -109q82 -112 82 -268q0 -190 -120 -318t-306 -128q-171 0 -287 110l-114 -110l-60 59l119 113q-82 116 -82 272q0 188 120 316t306 128q173 0 289 -112l110 106zM248 229l481 461q-83 86 -217 86q-140 0 -226 -96q-85 -95 -85 -252q0 -110 47 -199z
M778 623l-479 -459q84 -84 213 -84q142 0 227 97q86 98 86 251q0 110 -47 195zM848 1176l-393 -203l-37 63l370 252z" />
    <glyph glyph-name="Scommaaccent" unicode="&#x218;" horiz-adv-x="1058" 
d="M610 -262q0 -72 -51 -151t-127 -124l-22 27q93 83 114 188q-42 4 -68 29q-26 24 -26 60q0 34 25 59q24 24 59 24q43 0 70 -31q26 -30 26 -81zM950 387q0 -181 -132 -296q-133 -116 -326 -116q-221 0 -435 140l56 100q198 -135 389 -135q147 0 239 83q93 84 93 210
q0 122 -76 194q-78 74 -254 152q-190 84 -282 177q-91 92 -91 239q0 165 126 278q127 113 325 113q185 0 338 -103l-56 -96q-133 94 -293 94q-147 0 -236 -80t-89 -198q0 -111 76 -180q81 -73 233 -144q212 -95 303 -187q92 -94 92 -245z" />
    <glyph glyph-name="scommaaccent" unicode="&#x219;" horiz-adv-x="729" 
d="M451 -262q0 -70 -52 -151q-51 -79 -127 -124l-22 27q94 84 115 188q-43 4 -69 29q-26 24 -26 60q0 34 25 59q24 24 59 24q43 0 70 -31t27 -81zM637 238q0 -105 -77 -180q-75 -74 -197 -74q-157 0 -300 106l56 82q122 -94 239 -94q82 0 128 40t46 105q0 55 -44 94t-106 63
q-59 23 -124 51q-60 26 -105 79q-44 52 -44 125q0 97 74 167t200 70q129 0 248 -81l-51 -86q-104 73 -199 73q-81 0 -125 -38q-43 -37 -43 -95q0 -52 44 -90q40 -35 105 -60q56 -22 124 -51q66 -28 107 -78q44 -53 44 -128z" />
    <glyph glyph-name="schwa" unicode="&#x259;" horiz-adv-x="944" 
d="M80 395q0 37 4 56h661q-7 144 -95 232q-87 87 -255 87q-114 0 -243 -51q0 1 -2 6.5t-3 9.5q0 3 -1.5 7.5t-3 12l-2.5 12.5q-4 21 -9 36l-2 12q144 55 272 55q220 0 338 -124q119 -125 119 -318q0 -187 -112 -317q-111 -129 -295 -129q-177 0 -274 115t-97 298zM741 360
h-553q7 -123 76 -202q68 -78 195 -78q121 0 194 76t88 204z" />
    <glyph glyph-name="circumflex" unicode="&#x2c6;" horiz-adv-x="901" 
d="M731 997h-121l-161 201l-154 -201h-119l248 306h61z" />
    <glyph glyph-name="caron" unicode="&#x2c7;" horiz-adv-x="901" 
d="M727 1292l-250 -305h-59l-246 305h121l160 -200l155 200h119z" />
    <glyph glyph-name="breve" unicode="&#x2d8;" horiz-adv-x="901" 
d="M700 1239q0 -101 -67 -171q-68 -71 -182 -71q-113 0 -181 71q-68 70 -69 171l104 10q1 -74 40 -119q37 -43 106 -43q68 0 105 43q39 45 40 119z" />
    <glyph glyph-name="dotaccent" unicode="&#x2d9;" horiz-adv-x="901" 
d="M365 1112q0 36 25 62t61 26q37 0 62 -26q26 -28 26 -62t-26 -60t-62 -26q-35 0 -61 26q-25 25 -25 60z" />
    <glyph glyph-name="ring" unicode="&#x2da;" horiz-adv-x="901" 
d="M662 1200q0 -86 -59 -147q-59 -60 -152 -60q-92 0 -152 60q-59 59 -59 147t59 147q60 60 152 60q91 0 151 -60t60 -147zM578 1200q0 60 -36 97q-36 38 -91 38q-54 0 -90 -38q-35 -36 -35 -97q0 -58 35 -96q36 -39 90 -39q55 0 91 38q36 37 36 97z" />
    <glyph glyph-name="ogonek" unicode="&#x2db;" horiz-adv-x="901" 
d="M662 -346q-77 -103 -179 -103q-72 -2 -115 41q-44 44 -44 115q1 76 53 153q50 75 174 199l41 -53q-172 -188 -172 -287q0 -40 21 -64t57 -24q61 0 114 70z" />
    <glyph glyph-name="tilde" unicode="&#x2dc;" horiz-adv-x="901" 
d="M758 1128q-96 -115 -193 -110q-51 0 -127 45q-68 44 -106 45q-64 0 -133 -84l-58 70q96 115 193 110q53 0 125 -45q72 -44 108 -45q64 0 133 84z" />
    <glyph glyph-name="hungarumlaut" unicode="&#x2dd;" horiz-adv-x="901" 
d="M483 1313l-225 -328l-57 37l180 354zM750 1284l-222 -321l-57 36l176 349z" />
    <glyph glyph-name="commaaccent" unicode="&#x326;" horiz-adv-x="385" 
d="M289 -262q0 -72 -51 -151t-127 -124l-23 27q94 84 115 188q-43 4 -69 29q-25 24 -25 60q0 35 24 59t60 24q42 0 69 -31t27 -81z" />
    <glyph glyph-name="Wgrave" unicode="&#x1e80;" horiz-adv-x="1949" 
d="M1880 1501l-393 -1521l-29 -5l-485 1285l-481 -1285l-29 5l-393 1521h114l316 -1231l465 1239h20l469 -1235l313 1227h113zM1061 1690l-39 -62l-393 203l63 111z" />
    <glyph glyph-name="wgrave" unicode="&#x1e81;" horiz-adv-x="1251" 
d="M1214 856l-286 -881h-21l-274 664l-281 -664h-20l-289 881h123l192 -643l263 643h20l268 -643l185 643h120zM713 1034l-39 -61l-393 203l63 110z" />
    <glyph glyph-name="Wacute" unicode="&#x1e82;" horiz-adv-x="1949" 
d="M1313 1831l-393 -203l-37 64l370 252zM1880 1501l-393 -1521l-29 -5l-485 1285l-481 -1285l-29 5l-393 1521h114l316 -1231l465 1239h20l469 -1235l313 1227h113z" />
    <glyph glyph-name="wacute" unicode="&#x1e83;" horiz-adv-x="1251" 
d="M967 1176l-394 -203l-36 63l370 252zM1214 856l-286 -881h-21l-274 664l-281 -664h-20l-289 881h123l192 -643l263 643h20l268 -643l185 643h120z" />
    <glyph glyph-name="Wdieresis" unicode="&#x1e84;" horiz-adv-x="1949" 
d="M1237 1767q0 -34 -26 -60t-60 -26q-36 0 -62 26t-26 60t26 62q25 26 62 26q35 0 60 -26q26 -28 26 -62zM887 1767q0 -34 -26 -60t-60 -26q-35 0 -61 26q-25 25 -25 60q0 36 25 62t61 26q35 0 60 -26q26 -28 26 -62zM1880 1501l-393 -1521l-29 -5l-485 1285l-481 -1285
l-29 5l-393 1521h114l316 -1231l465 1239h20l469 -1235l313 1227h113z" />
    <glyph glyph-name="wdieresis" unicode="&#x1e85;" horiz-adv-x="1251" 
d="M889 1112q0 -34 -26 -60t-60 -26q-37 0 -63 26q-25 25 -25 60q0 36 25 62t63 26q35 0 60 -26q26 -28 26 -62zM539 1112q0 -34 -26 -60t-60 -26q-35 0 -61 26q-25 25 -25 60q0 36 25 62t61 26q35 0 60 -26q26 -28 26 -62zM1214 856l-286 -881h-21l-274 664l-281 -664h-20
l-289 881h123l192 -643l263 643h20l268 -643l185 643h120z" />
    <glyph glyph-name="Ygrave" unicode="&#x1ef2;" horiz-adv-x="1282" 
d="M1223 1501l-525 -827v-674h-114v676l-525 825h129l457 -729l451 729h127zM725 1663l-39 -61l-393 202l63 111z" />
    <glyph glyph-name="ygrave" unicode="&#x1ef3;" horiz-adv-x="874" 
d="M860 856l-604 -1298h-115l242 499l-367 799h125l297 -684l299 684h123zM522 1034l-39 -61l-393 203l64 110z" />
    <glyph glyph-name="enspace" unicode="&#x2002;" horiz-adv-x="1024" 
 />
    <glyph glyph-name="emspace" unicode="&#x2003;" horiz-adv-x="2048" 
 />
    <glyph glyph-name="threeperemspace" unicode="&#x2004;" horiz-adv-x="681" 
 />
    <glyph glyph-name="fourperemspace" unicode="&#x2005;" horiz-adv-x="512" 
 />
    <glyph glyph-name="figurespace" unicode="&#x2007;" horiz-adv-x="1064" 
 />
    <glyph glyph-name="thinspace" unicode="&#x2009;" horiz-adv-x="272" 
 />
    <glyph glyph-name="hairspace" unicode="&#x200a;" horiz-adv-x="153" 
 />
    <glyph glyph-name="endash" unicode="&#x2013;" horiz-adv-x="1024" 
d="M922 446h-820v101h820v-101z" />
    <glyph glyph-name="emdash" unicode="&#x2014;" horiz-adv-x="1536" 
d="M1434 446h-1332v101h1332v-101z" />
    <glyph glyph-name="quoteleft" unicode="&#x2018;" horiz-adv-x="323" 
d="M248 1223q0 -35 -25 -60q-24 -24 -59 -24q-45 0 -72 31q-26 30 -26 83q0 75 51 155t129 126l22 -27q-98 -94 -116 -194q44 -4 70 -30t26 -60z" />
    <glyph glyph-name="quoteright" unicode="&#x2019;" horiz-adv-x="323" 
d="M260 1407q0 -74 -52 -153q-53 -80 -130 -126l-23 27q96 89 117 193q-44 5 -70 29q-26 25 -26 63q0 35 25 59q27 25 61 25q43 0 70 -33q28 -34 28 -84z" />
    <glyph glyph-name="quotesinglbase" unicode="&#x201a;" horiz-adv-x="323" 
d="M260 47q0 -76 -52 -155q-52 -78 -130 -125l-23 26q96 89 117 193q-45 5 -70 30q-26 26 -26 62q0 35 25 59q27 25 61 25q43 0 70 -32q28 -33 28 -83z" />
    <glyph glyph-name="quotedblleft" unicode="&#x201c;" horiz-adv-x="598" 
d="M522 1223q0 -36 -24 -60t-60 -24q-44 0 -71 31t-27 83q0 75 51 155t129 126l23 -27q-99 -95 -117 -194q46 -5 71 -30t25 -60zM248 1223q0 -35 -25 -60q-24 -24 -59 -24q-45 0 -72 31q-26 30 -26 83q0 75 51 155t129 126l22 -27q-98 -94 -116 -194q44 -4 70 -30t26 -60z
" />
    <glyph glyph-name="quotedblright" unicode="&#x201d;" horiz-adv-x="598" 
d="M535 1407q0 -73 -53 -153t-130 -126l-22 27q95 87 116 193q-43 4 -69 29q-27 25 -27 63q0 35 26 59q27 25 60 25q44 0 71 -33q28 -34 28 -84zM260 1407q0 -74 -52 -153q-53 -80 -130 -126l-23 27q96 89 117 193q-44 5 -70 29q-26 25 -26 63q0 35 25 59q27 25 61 25
q43 0 70 -33q28 -34 28 -84z" />
    <glyph glyph-name="quotedblbase" unicode="&#x201e;" horiz-adv-x="598" 
d="M532 47q0 -77 -51 -156q-50 -79 -129 -124l-22 26q95 87 116 193q-44 5 -69 30q-27 27 -27 62t26 59q27 25 60 25q43 0 70 -32q26 -30 26 -83zM260 47q0 -76 -52 -155q-52 -78 -130 -125l-23 26q96 89 117 193q-45 5 -70 30q-26 26 -26 62q0 35 25 59q27 25 61 25
q43 0 70 -32q28 -33 28 -83z" />
    <glyph glyph-name="dagger" unicode="&#x2020;" horiz-adv-x="931" 
d="M850 1028h-324v-709h-110v709h-328v100h328v373h110v-373h324v-100z" />
    <glyph glyph-name="daggerdbl" unicode="&#x2021;" horiz-adv-x="931" 
d="M854 639h-328v-320h-110v320h-322v98h322v346h-328v101h328v317h110v-317h324v-101h-324v-346h328v-98z" />
    <glyph glyph-name="bullet" unicode="&#x2022;" horiz-adv-x="718" 
d="M598 750q0 -99 -70 -172q-69 -72 -168 -72q-98 0 -167 72q-70 73 -70 172q0 104 68 173q69 70 169 70t168 -71q70 -73 70 -172z" />
    <glyph glyph-name="ellipsis" unicode="&#x2026;" horiz-adv-x="1239" 
d="M121 74q0 37 26 62q28 26 64 26q35 0 63 -26q27 -26 27 -62q0 -40 -27 -65q-26 -25 -63 -25q-38 0 -64 25t-26 65zM530 74q0 36 27 62q28 26 64 26q35 0 63 -26q27 -26 27 -62q0 -40 -27 -65q-26 -25 -63 -25q-38 0 -64 25q-27 25 -27 65zM940 74q0 36 27 62q28 26 63 26
q36 0 64 -26q26 -25 26 -62q0 -40 -26 -65t-64 -25q-37 0 -63 25q-27 25 -27 65z" />
    <glyph glyph-name="perthousand" unicode="&#x2030;" horiz-adv-x="1892" 
d="M502 901q0 92 -41 154q-40 61 -115 61q-74 0 -116 -61q-42 -62 -42 -154q0 -89 42 -151t116 -62t115 62t41 151zM596 901q0 -124 -68 -212q-67 -87 -184 -87q-115 0 -181 87q-67 88 -67 212q0 127 68 213t182 86q117 0 183 -86q67 -87 67 -213zM1167 1159l-954 -1192
l-66 56l955 1191zM1126 281q0 91 -41 153t-116 62q-74 0 -115 -62t-41 -153q0 -90 41 -152q40 -61 115 -61q76 0 116 61q41 62 41 152zM1219 281q0 -124 -68 -212q-67 -87 -182 -87q-117 0 -183 86q-65 84 -65 213q0 127 66 213t184 86q115 0 181 -86q67 -87 67 -213z
M1704 281q0 91 -41 153t-117 62q-73 0 -114 -62t-41 -153q0 -90 41 -152q40 -61 114 -61q77 0 117 61q41 62 41 152zM1796 281q0 -126 -67 -212q-67 -87 -183 -87t-182 86t-66 213q0 126 67 213q66 86 183 86q116 0 182 -86t66 -213z" />
    <glyph glyph-name="guilsinglleft" unicode="&#x2039;" horiz-adv-x="526" 
d="M434 18h-119l-215 336l215 334h119l-221 -334z" />
    <glyph glyph-name="guilsinglright" unicode="&#x203a;" horiz-adv-x="526" 
d="M426 354l-215 -336h-119l221 336l-221 334h119z" />
    <glyph glyph-name="fraction" unicode="&#x2044;" horiz-adv-x="1124" 
d="M1092 1157l-988 -1192l-71 58l987 1189z" />
    <glyph glyph-name="Euro" unicode="&#x20ac;" horiz-adv-x="1308" 
d="M197 678h-140v100h162q57 193 221 307q165 115 373 115q205 0 389 -113l-49 -94q-168 105 -348 105q-165 0 -289 -85q-125 -86 -176 -235h621v-100h-646q-6 -44 -6 -92q0 -46 6 -90h646v-97h-619q51 -149 179 -232t292 -83q182 0 350 104l39 -94q-184 -114 -389 -114
q-214 0 -376 113q-163 114 -220 306h-160v97h138q-5 63 -5 90q0 41 7 92z" />
    <glyph glyph-name="published" unicode="&#x2117;" horiz-adv-x="1724" 
d="M1049 883q0 68 -51 116t-140 48l-92 -7v-325q41 -6 82 -6q97 0 149 47t52 127zM1149 885q0 -115 -80 -187q-78 -71 -219 -71q-37 0 -84 4v-254h-94v745q77 11 172 11q144 0 225 -70q80 -69 80 -178zM1622 750q0 -322 -222 -548q-222 -227 -538 -227q-315 0 -537 227
q-223 228 -223 548q0 319 223 548q222 228 537 228q316 0 538 -228t222 -548zM1524 750q0 287 -194 489q-194 201 -468 201q-275 0 -467 -201t-192 -489t192 -487q192 -200 467 -200q274 0 468 200t194 487z" />
    <glyph glyph-name="servicemark" unicode="&#x2120;" horiz-adv-x="915" 
d="M39 1094l24 63q56 -41 115 -41q34 0 53 17t19 43t-18 44t-70 42q-105 46 -105 127q0 51 39 86q38 34 105 34q69 0 114 -32l-22 -64q-45 31 -92 31q-70 0 -70 -53q0 -24 20 -41q19 -16 64 -37q109 -50 109 -133q0 -58 -40 -95q-39 -36 -106 -36q-73 0 -139 45zM862 1055
h-69l-7 278l-147 -229h-8l-148 229l-4 -278h-69l18 452h10l199 -305l194 305h11z" />
    <glyph glyph-name="trademark" unicode="&#x2122;" horiz-adv-x="985" 
d="M932 1055h-72l-4 276l-143 -219h-8l-146 219l-2 -276h-74l19 452h10l197 -293l194 293h10zM395 1434h-141v-379h-76v379h-139v67h356v-67z" />
    <glyph glyph-name="arrowleft" unicode="&#x2190;" horiz-adv-x="1456" 
d="M1354 494l-1094 2l455 -375l-62 -76l-590 490v18l590 489l62 -75l-455 -375l1094 2v-100z" />
    <glyph glyph-name="arrowright" unicode="&#x2192;" horiz-adv-x="1456" 
d="M102 594l1094 -2l-455 375l64 75l588 -489v-18l-588 -490l-64 76l455 375l-1094 -2v100z" />
    <glyph glyph-name="minus" unicode="&#x2212;" horiz-adv-x="942" 
d="M123 524v101h696v-101h-696z" />
    <glyph glyph-name="G.alt" horiz-adv-x="1695" 
d="M862 702h737q0 -313 -200 -517q-201 -205 -504 -205q-151 0 -292 54q-139 53 -248 150q-106 95 -172 244q-64 146 -64 322q0 232 113 412q114 181 290 273q175 91 377 91q172 0 298 -46t257 -139l-61 -90q-238 171 -494 172q-281 0 -468 -189q-187 -188 -187 -484
q0 -297 191 -482q192 -186 464 -186q231 0 396 147t182 371h-615v102z" />
    <glyph glyph-name="M.alt" horiz-adv-x="1734" 
d="M1579 0h-117l-24 1243l-561 -874h-21l-559 872l-25 -1241h-116l51 1520l26 4l639 -1000l629 1000l27 -4z" />
    <glyph glyph-name="zero.lin" horiz-adv-x="1345" 
d="M1223 750q0 -335 -149 -553q-148 -217 -404 -217q-254 0 -401 217q-146 216 -146 553q0 339 148 556q149 218 405 218q253 0 400 -218q147 -217 147 -556zM1100 750q0 295 -115 483q-114 186 -313 186q-202 0 -314 -186q-112 -185 -112 -483q0 -296 114 -482t314 -186
q199 0 312 185q114 186 114 483z" />
    <glyph glyph-name="one.lin" horiz-adv-x="794" 
d="M508 0h-115v1378l-264 -90l-33 94l387 140h25v-1522z" />
    <glyph glyph-name="two.lin" horiz-adv-x="1130" 
d="M993 0h-942l-10 27q317 330 547 598q126 148 185 262q58 112 58 217q0 137 -90 224t-243 87q-175 0 -348 -112l-37 98q189 123 383 123q208 0 333 -116t125 -302q0 -123 -65 -241q-65 -119 -201 -283q-109 -131 -438 -478h743v-104z" />
    <glyph glyph-name="three.lin" horiz-adv-x="1095" 
d="M969 442q0 -198 -141 -330t-365 -132q-179 0 -379 71l41 96q180 -65 334 -65q178 0 287 100q110 101 110 256q0 146 -122 236t-320 90q-68 0 -176 -16l-19 24l578 627h-709v102h897l12 -24l-573 -619q246 -5 395 -110q150 -107 150 -306z" />
    <glyph glyph-name="four.lin" horiz-adv-x="1232" 
d="M1176 457h-250v-457h-113v457h-762v32l840 1037h35v-971h250v-98zM813 555v727l-586 -727h586z" />
    <glyph glyph-name="five.lin" horiz-adv-x="1142" 
d="M1016 446q0 -199 -143 -333q-142 -133 -365 -133q-185 0 -377 69l41 101q172 -66 328 -66q183 0 291 99t108 257q0 151 -111 250q-110 98 -301 98q-137 0 -278 -30l-14 18v725h759v-102h-645v-525q85 17 189 17q240 0 379 -124t139 -321z" />
    <glyph glyph-name="six.lin" horiz-adv-x="1218" 
d="M1108 475q0 -207 -138 -352q-138 -146 -354 -146q-219 0 -354 147t-135 380q0 285 197 559q197 273 622 498l58 -97q-272 -136 -455 -313t-260 -375q58 75 151 118q96 44 205 44q198 0 331 -131q132 -131 132 -332zM989 465q0 166 -103 270q-104 105 -263 105
q-166 0 -271 -105q-104 -104 -104 -260q0 -167 105 -280t265 -113q162 0 267 108q104 107 104 275z" />
    <glyph glyph-name="seven.lin" horiz-adv-x="1038" 
d="M1004 1501l-650 -1501h-121l615 1399h-797v102h953z" />
    <glyph glyph-name="eight.lin" horiz-adv-x="1153" 
d="M1032 395q0 -176 -128 -296q-126 -119 -326 -119q-201 0 -327 119q-128 120 -128 296q0 121 71 221t189 146q-106 49 -169 145q-62 94 -62 211q0 175 119 290q121 116 307 116q185 0 306 -115q120 -114 120 -289q0 -117 -63 -213q-63 -95 -171 -145q119 -47 191 -146
q71 -98 71 -221zM889 1116q0 134 -86 222q-85 87 -228 87q-141 0 -226 -87q-85 -86 -85 -222q0 -130 86 -219q85 -88 228 -88q140 0 225 88q86 89 86 219zM913 401q0 138 -95 228q-94 90 -243 90q-145 0 -239 -90t-94 -228t95 -230q94 -91 241 -91t241 91t94 230z" />
    <glyph glyph-name="nine.lin" horiz-adv-x="1208" 
d="M109 1034q0 207 138 348q139 142 351 142q220 0 354 -146q133 -145 133 -377q0 -287 -198 -561q-197 -272 -623 -497l-57 96q554 281 711 682q-51 -66 -143 -107q-93 -41 -197 -41q-200 0 -334 130q-135 131 -135 331zM225 1044q0 -164 103 -269q102 -103 264 -103
q166 0 267 104q102 105 102 258q0 167 -103 279q-101 110 -262 110q-162 0 -266 -107q-105 -108 -105 -272z" />
    <glyph glyph-name="fraction.lin" horiz-adv-x="1388" 
d="M1356 1477l-1245 -1502l-76 62l1243 1501z" />
    <glyph glyph-name="ampersand.cap" horiz-adv-x="1492" 
d="M578 846q185 66 275 150q91 85 91 204q0 93 -61 158t-164 65t-173 -77q-71 -79 -71 -193q0 -143 103 -307zM965 268q-304 271 -439 463q-286 -118 -286 -348q0 -130 94 -215q95 -86 244 -86q180 0 387 186zM635 764q121 -170 405 -422q129 134 306 377l86 -60
q-194 -261 -314 -385q124 -107 281 -231l-70 -80q-68 58 -138 115q-97 79 -149 125q-241 -223 -467 -223q-193 0 -324 111q-130 111 -130 292q0 288 350 428q-109 182 -109 336q0 159 108 267t251 108q155 0 246 -96q90 -94 90 -222q0 -150 -107 -255q-107 -106 -315 -185z
" />
    <glyph glyph-name="guillemotleft.cap" horiz-adv-x="823" 
d="M731 424h-119l-215 336l215 334h119l-221 -334zM434 424h-119l-215 336l215 334h119l-221 -334z" />
    <glyph glyph-name="guillemotright.cap" horiz-adv-x="823" 
d="M723 760l-215 -336h-119l221 336l-221 334h119zM426 760l-215 -336h-119l221 336l-221 334h119z" />
    <glyph glyph-name="guilsinglleft.cap" horiz-adv-x="526" 
d="M434 424h-119l-215 336l215 334h119l-221 -334z" />
    <glyph glyph-name="guilsinglright.cap" horiz-adv-x="526" 
d="M426 760l-215 -336h-119l221 336l-221 334h119z" />
    <glyph glyph-name="hyphen.cap" horiz-adv-x="694" 
d="M592 711h-490v100h490v-100z" />
    <glyph glyph-name="endash.cap" horiz-adv-x="1024" 
d="M922 711h-820v100h820v-100z" />
    <glyph glyph-name="emdash.cap" horiz-adv-x="1536" 
d="M1434 711h-1332v100h1332v-100z" />
    <glyph glyph-name="slash.cap" horiz-adv-x="653" 
d="M625 1718l-488 -1943h-106l489 1943h105z" />
    <glyph glyph-name="backslash.cap" horiz-adv-x="653" 
d="M625 -225h-107l-487 1943h104z" />
    <glyph glyph-name="bar.cap" horiz-adv-x="473" 
d="M287 -225h-103v1943h103v-1943z" />
    <glyph glyph-name="parenleft.cap" horiz-adv-x="681" 
d="M692 -164l-49 -86q-260 157 -402 428q-141 268 -141 567t141 568t402 430l51 -84q-232 -141 -359 -387q-128 -247 -128 -527t128 -524t357 -385z" />
    <glyph glyph-name="parenright.cap" horiz-adv-x="681" 
d="M582 745q0 -299 -141 -567q-142 -271 -402 -428l-51 86q231 141 359 385t128 524t-128 527q-127 246 -359 387l51 84q261 -161 402 -430t141 -568z" />
    <glyph glyph-name="bracketleft.cap" horiz-adv-x="604" 
d="M555 -225h-391v1943h391v-94h-285v-1755h285v-94z" />
    <glyph glyph-name="bracketright.cap" horiz-adv-x="604" 
d="M442 -225h-391v94h285v1755h-285v94h391v-1943z" />
    <glyph glyph-name="braceleft.cap" horiz-adv-x="606" 
d="M569 -240q-344 0 -344 355v438q0 77 -29 112t-108 35h-47v97h47q78 0 108 34q29 33 29 113v432q0 357 344 357v-101q-119 0 -177 -59t-58 -193v-409q0 -95 -28 -146q-26 -48 -107 -77q80 -29 107 -78q28 -51 28 -146v-411q0 -134 58 -193t177 -59v-101z" />
    <glyph glyph-name="braceright.cap" horiz-adv-x="606" 
d="M565 700h-47q-78 0 -107 -35q-30 -36 -30 -112v-438q0 -355 -344 -355v101q121 0 179 59t58 193v411q0 95 28 146q27 49 106 78q-80 29 -106 77q-28 51 -28 146v409q0 134 -58 193t-179 59v101q344 0 344 -357v-432q0 -78 30 -113q30 -34 107 -34h47v-97z" />
    <glyph glyph-name="at.cap" horiz-adv-x="1773" 
d="M1642 819q0 -243 -147 -368q-78 -66 -186 -66q-69 0 -121 34q-55 36 -78 97q-111 -127 -262 -127q-103 0 -171 56q-69 57 -69 157q0 90 70 148q69 57 176 57t211 -55v45q0 97 -44 144q-43 46 -155 46q-76 0 -172 -35l-16 92q108 41 207 41q291 0 291 -290v-162
q0 -82 39 -118q41 -38 100 -38q75 0 119 43q102 92 102 289q0 84 -22 174q-21 85 -71 167q-47 77 -123 142q-72 61 -182 99q-105 36 -243 36q-276 0 -465 -196q-188 -195 -188 -483q0 -294 191 -482t532 -188q143 0 315 57l27 -94q-199 -61 -346 -61q-378 0 -604 218
q-224 217 -224 550q0 319 221 548q220 228 541 228q183 0 330 -63q146 -63 235 -165q88 -102 135 -225q47 -124 47 -252zM1065 575v84q-85 62 -195 62q-64 0 -107 -33q-44 -33 -44 -86q0 -55 44 -90t107 -35q122 0 195 98z" />
    <glyph glyph-name="registered.alt" horiz-adv-x="1724" 
d="M862 -25q-315 0 -537 227q-223 228 -223 548q0 319 223 548q222 228 537 228q316 0 538 -228t222 -548q0 -322 -222 -548q-222 -227 -538 -227zM862 63q274 0 468 200t194 487t-194 489q-194 201 -468 201q-275 0 -467 -201t-192 -489t192 -487q192 -200 467 -200z
M649 377v743q93 13 178 13q147 0 223 -63t76 -167q0 -155 -159 -217l204 -309h-110l-180 287q-32 -5 -58 -5q-21 0 -39 1q-36 2 -41 2v-285h-94zM743 1040v-297q44 -4 78 -4q100 0 152 42q53 42 53 118q0 69 -49 109q-50 41 -137 41q-48 0 -97 -9z" />
    <glyph glyph-name="dollar.lin" horiz-adv-x="1058" 
d="M551 1690l98 -11l-12 -155q147 -18 272 -99l-53 -94q-103 70 -227 88l-51 -616q189 -89 277 -182q87 -91 87 -236q0 -174 -124 -288q-125 -115 -308 -122l-14 -170l-99 9l13 166q-184 21 -357 135l53 96q158 -103 312 -127l53 649q-176 80 -262 172t-86 236
q0 153 116 264q115 110 298 121zM829 373q0 108 -63 180q-61 69 -199 137l-49 -610q140 8 225 90q86 83 86 203zM233 1149q0 -102 63 -171t185 -130l47 575q-132 -7 -214 -86q-81 -78 -81 -188z" />
    <glyph glyph-name="sterling.lin" horiz-adv-x="1148" 
d="M1075 0h-977v104h172v592h-161v27l161 84v227q0 224 118 357t347 133q171 0 328 -113l-59 -94q-143 98 -281 98q-170 0 -254 -97q-84 -98 -84 -276v-241h410v-103h-410v-594h690v-104z" />
    <glyph glyph-name="Euro.lin" horiz-adv-x="1628" 
d="M268 866h-184v101h201q67 251 274 404t479 153q251 0 484 -142l-45 -92q-213 132 -447 133q-224 0 -393 -124q-172 -126 -234 -332h826v-101h-848q-8 -54 -8 -118q0 -67 8 -121h848v-103h-823q66 -206 237 -323q173 -119 395 -119q228 0 449 135l35 -92
q-236 -145 -486 -145q-274 0 -478 147t-273 397h-201v103h182q-8 54 -8 118q0 58 10 121z" />
    <glyph glyph-name="yen.lin" horiz-adv-x="1335" 
d="M1257 1501l-477 -747h385v-101h-436v-200h436v-101h-436v-352h-111v352h-438v101h438v200h-438v101h387l-479 747h135l453 -723l450 723h131z" />
    <glyph glyph-name="cent.lin" horiz-adv-x="917" 
d="M406 168l12 160q-153 33 -243 150q-91 118 -91 278q0 179 116 307q114 126 287 141l13 154l96 -8l-12 -148q120 -11 233 -82l-51 -88q-104 59 -191 70l-53 -684h8q120 0 242 74l45 -89q-140 -86 -289 -86h-14l-12 -157zM195 760q0 -123 63 -210q64 -88 168 -118l53 672
q-126 -16 -206 -110q-78 -91 -78 -234z" />
    <glyph glyph-name="numbersign.lin" horiz-adv-x="1454" 
d="M1376 975h-293l-100 -453h295l-23 -100h-297l-94 -422h-104l94 422h-395l-97 -422h-106l94 422h-293l21 100h295l100 453h-295l23 98h295l96 428h106l-94 -428h393l99 428h104l-94 -428h293zM580 975l-101 -453h400l100 453h-399z" />
    <glyph glyph-name="paragraph.lin" horiz-adv-x="1425" 
d="M1249 0h-114v1403q-88 13 -265 18h-8v-1421h-114v438q-259 -16 -455 121q-195 136 -195 383q0 263 203 422q204 160 547 160q154 0 401 -29v-1495zM748 539v878q-258 -21 -392 -144q-137 -125 -137 -325t157 -312t372 -97z" />
    <glyph glyph-name="section.lin" horiz-adv-x="1038" 
d="M928 745q0 -86 -58 -153q-56 -65 -147 -98q141 -82 141 -213t-101 -216t-271 -85q-201 0 -388 131l60 90q168 -123 336 -123q117 0 183 51q67 52 67 133q0 70 -66 117q-68 48 -160 77q-115 37 -188 62q-95 33 -160 94t-65 152q0 87 58 154q59 68 150 98q-141 79 -141 209
q0 131 102 215t263 84q194 0 350 -111l-55 -92q-144 104 -297 104q-114 0 -181 -49t-67 -133q0 -69 65 -115q66 -46 159 -75q83 -25 186 -62q94 -33 159 -94q66 -61 66 -152zM815 727q0 36 -16 64q-17 29 -39 47q-23 19 -68 38q-29 13 -79 30q-10 4 -24 8.5t-35.5 11.5
t-36.5 12t-37 12.5t-36.5 12t-25.5 8.5q-78 -15 -136 -68q-57 -53 -57 -123q0 -34 17 -63t39 -47q24 -19 66 -38q35 -16 79 -31q18 -6 96 -31q87 -27 101 -33q80 15 136 67t56 123z" />
    <glyph glyph-name="degree.lin" horiz-adv-x="743" 
d="M643 1255q0 -109 -75 -189q-75 -79 -195 -79q-123 0 -198 79q-75 80 -75 189q0 111 75 190t196 79q120 0 196 -79t76 -190zM549 1255q0 81 -50 134t-128 53q-76 0 -126 -53t-50 -134q0 -79 50 -134q49 -54 128 -54q77 0 126 54q50 55 50 134z" />
    <glyph glyph-name="percent.lin" horiz-adv-x="1634" 
d="M743 1147q0 -161 -85 -268q-86 -109 -232 -109q-144 0 -229 109q-84 108 -84 268q0 161 85 268q86 109 230 109q146 0 231 -109q84 -108 84 -268zM639 1147q0 123 -54 203t-157 80q-98 0 -155 -81q-56 -80 -56 -202q0 -121 55 -203t154 -82q103 0 158 82t55 203z
M1452 1473l-1200 -1504l-70 60l1198 1503zM1522 356q0 -161 -85 -268q-85 -108 -233 -108q-145 0 -229 108t-84 268q0 162 85 269q86 108 230 108q148 0 232 -108t84 -269zM1417 356q0 124 -55 204q-56 81 -156 81q-97 0 -154 -82t-57 -203q0 -119 56 -201q55 -81 153 -81
q102 0 158 81q55 80 55 201z" />
    <glyph glyph-name="perthousand.lin" horiz-adv-x="2363" 
d="M639 1147q0 123 -54 203t-157 80q-98 0 -155 -81q-56 -80 -56 -202q0 -121 55 -203t154 -82q103 0 158 82t55 203zM743 1147q0 -161 -85 -268q-86 -109 -232 -109q-144 0 -229 109q-84 108 -84 268q0 161 85 268q86 109 230 109q146 0 231 -109q84 -108 84 -268z
M1452 1473l-1200 -1504l-70 60l1198 1503zM1417 356q0 124 -55 204q-56 81 -156 81q-97 0 -154 -82t-57 -203q0 -119 56 -201q55 -81 153 -81q102 0 158 81q55 80 55 201zM1522 356q0 -161 -85 -268q-85 -108 -233 -108q-145 0 -229 108t-84 268q0 162 85 269
q86 108 230 108q148 0 232 -108t84 -269zM2146 356q0 123 -54 204t-155 81q-100 0 -155 -82q-56 -83 -56 -203q0 -119 55 -201q54 -81 154 -81q101 0 156 81q55 80 55 201zM2251 356q0 -160 -84 -268t-232 -108q-147 0 -230 108q-83 109 -83 268q0 161 84 269t231 108
q149 0 231 -108q83 -109 83 -269z" />
    <glyph glyph-name="quotedbl.cap" horiz-adv-x="706" 
d="M403 1477l-237 -344l-64 41l189 372zM676 1454l-240 -344l-65 41l190 375z" />
    <glyph glyph-name="quotesingle.cap" horiz-adv-x="456" 
d="M403 1477l-237 -344l-64 41l189 372z" />
    <glyph glyph-name="plus.lin" horiz-adv-x="942" 
d="M819 711h-295v-310h-106v310h-295v100h295v309h106v-309h295v-100z" />
    <glyph glyph-name="minus.lin" horiz-adv-x="942" 
d="M123 711v100h696v-100h-696z" />
    <glyph glyph-name="divide.lin" horiz-adv-x="942" 
d="M123 711v100h696v-100h-696zM389 1055q0 35 24 59q25 25 58 25t58 -25q24 -24 24 -59q0 -34 -24 -58t-58 -24q-33 0 -57 24q-25 25 -25 58zM389 463q0 35 24 59q25 25 58 25t58 -25q24 -24 24 -59q0 -33 -24 -57q-25 -25 -58 -25q-32 0 -57 25t-25 57z" />
    <glyph glyph-name="equal.lin" horiz-adv-x="825" 
d="M702 854h-579v102h579v-102zM702 565h-579v101h579v-101z" />
    <glyph glyph-name="multiply.lin" horiz-adv-x="921" 
d="M143 1008l70 71l248 -248l248 248l69 -71l-248 -248l248 -246l-69 -72l-248 248l-248 -248l-70 72l246 246z" />
    <glyph glyph-name="less.lin" horiz-adv-x="780" 
d="M700 334l-69 -72l-563 498l563 500l69 -76l-479 -426z" />
    <glyph glyph-name="greater.lin" horiz-adv-x="780" 
d="M713 762l-563 -500l-70 76l479 426l-479 424l70 72z" />
    <glyph glyph-name="florin.lin" horiz-adv-x="968" 
d="M948 1497l-30 -100q-70 22 -132 22q-145 0 -220 -92q-74 -91 -97 -295l-20 -178h280l-6 -102h-287l-86 -752h-117l86 750h-147l4 26l156 78l20 178q27 240 138 366t294 126q90 0 164 -27z" />
    <glyph glyph-name="arrowleft.cap" horiz-adv-x="1456" 
d="M1354 711l-1094 2l455 -375l-62 -76l-590 490v18l590 490l62 -76l-455 -375l1094 2v-100z" />
    <glyph glyph-name="arrowright.cap" horiz-adv-x="1456" 
d="M102 811l1094 -2l-455 375l64 76l588 -490v-18l-588 -490l-64 76l455 375l-1094 -2v100z" />
    <glyph glyph-name="hfjslug" horiz-adv-x="1421" 
d="M1319 -410h-426l-16 29h-334l-17 -29h-424v621q30 0 48 19q18 20 18 46q0 27 -20 47q-19 19 -46 19v1135h205l62 161h684l59 -161h207v-1887zM819 1153v-352h31v160h78v28h-78v135h88v29h-119zM377 1153v-352h31v162h96v-162h31v352h-31v-162h-96v162h-31zM942 807
q18 -8 43 -8q64 0 64 73v281h-33v-281q0 -45 -33 -45q-18 0 -41 13v-33zM715 897l-33 64q47 44 47 86q0 26 -14 44q-15 19 -41 19q-25 0 -41 -19q-17 -20 -17 -44q0 -27 29 -80q-47 -38 -47 -93q0 -34 18 -57q18 -22 46 -22q34 0 55 49h2l24 -49l23 16l-33 61q21 46 27 80
l-27 6q-8 -32 -18 -61zM1071 662v-95h16v27l15 14l33 -41h18l-39 54l37 41h-21l-43 -50v50h-16zM999 598l21 -31h18l-24 35q20 6 20 31q0 10 -9 19q-10 10 -24 10h-43v-95h17v31h24zM872 565q22 0 36 15q14 16 14 34q0 19 -15 34q-16 16 -35 16t-33 -16t-14 -34t14 -34
q13 -15 33 -15zM758 616l-27 46h-18l37 -60v-35h16v35l37 60h-19zM395 662v-95h68v15h-51v26h45v15h-45v24h51v15h-68zM270 662v-95h17v66l51 -66h14v95h-16v-66l-51 66h-15zM494 662l30 -97h17l20 70h2l23 -70h16l29 97h-17l-20 -72h-2l-21 72h-16l-23 -72h-2l-20 72h-16z
M670 981q-25 47 -25 66q0 38 29 38q26 0 26 -38q0 -31 -30 -66zM700 866q-12 -43 -36 -43q-35 0 -35 56q0 37 30 67zM999 612h-24v35h22q21 0 21 -16q0 -19 -19 -19zM872 580q-30 0 -30 34q0 12 9 24q8 11 21 11q16 0 24 -11q9 -12 9 -24q0 -14 -9 -24t-24 -10z" />
    <glyph glyph-name="caron.alt" horiz-adv-x="458" 
d="M236 1509l110 -16q0 -233 -184 -377l-51 43q119 125 125 350z" />
    <glyph glyph-name="NUL" horiz-adv-x="0" 
 />
    </font>
</defs>
</svg>
